SplineFontDB: 3.2
FontName: Roboto-GMM-Regular
FullName: Roboto-GMM
FamilyName: Roboto-GMM
Weight: Regular
Copyright: Copyright 2011 Google Inc. All Rights Reserved.
Version: 2.138
ItalicAngle: 0
UnderlinePosition: -200
UnderlineWidth: 100
Ascent: 1638
Descent: 410
InvalidEm: 0
sfntRevision: 0x00022354
LayerCount: 2
Layer: 0 1 "Back" 1
Layer: 1 1 "Fore" 0
XUID: [1021 847 435918304 24544]
StyleMap: 0x0040
FSType: 0
OS2Version: 4
OS2_WeightWidthSlopeOnly: 0
OS2_UseTypoMetrics: 0
CreationTime: 1221247774
ModificationTime: 1611247250
PfmFamily: 17
TTFWeight: 400
TTFWidth: 5
LineGap: 0
VLineGap: 0
Panose: 2 0 0 0 0 0 0 0 0 0
OS2TypoAscent: 2146
OS2TypoAOffset: 0
OS2TypoDescent: -555
OS2TypoDOffset: 0
OS2TypoLinegap: 0
OS2WinAscent: 2146
OS2WinAOffset: 0
OS2WinDescent: 555
OS2WinDOffset: 0
HheadAscent: 1900
HheadAOffset: 0
HheadDescent: -500
HheadDOffset: 0
OS2SubXSize: 1434
OS2SubYSize: 1331
OS2SubXOff: 0
OS2SubYOff: 287
OS2SupXSize: 1434
OS2SupYSize: 1331
OS2SupXOff: 0
OS2SupYOff: 977
OS2StrikeYSize: 102
OS2StrikeYPos: 512
OS2CapHeight: 1456
OS2XHeight: 1082
OS2Vendor: 'GOOG'
OS2CodePages: 2000019f.00000000
OS2UnicodeRanges: e0000aff.5000217f.00000021.00000000
Lookup: 1 0 0 "'c2sc' Capitals to Small Capitals lookup 0" { "'c2sc' Capitals to Small Capitals lookup 0 subtable"  } ['c2sc' ('DFLT' <'dflt' > 'cyrl' <'dflt' > 'grek' <'dflt' > 'latn' <'AZE ' 'CRT ' 'FRA ' 'MOL ' 'NAV ' 'ROM ' 'TRK ' 'dflt' > ) ]
Lookup: 1 0 0 "'smcp' Lowercase to Small Capitals lookup 1" { "'smcp' Lowercase to Small Capitals lookup 1 subtable"  } ['smcp' ('DFLT' <'dflt' > 'cyrl' <'dflt' > 'grek' <'dflt' > 'latn' <'AZE ' 'CRT ' 'FRA ' 'MOL ' 'NAV ' 'ROM ' 'TRK ' 'dflt' > ) ]
Lookup: 1 0 0 "'unic' Unicase lookup 2" { "'unic' Unicase lookup 2 subtable"  } ['unic' ('DFLT' <'dflt' > 'cyrl' <'dflt' > 'grek' <'dflt' > 'latn' <'AZE ' 'CRT ' 'FRA ' 'MOL ' 'NAV ' 'ROM ' 'TRK ' 'dflt' > ) ]

StartChar: .notdef
Encoding: 1114112 -1 0
Width: 908
Flags: W
LayerCount: 2
Fore
SplineSet
100 0 m 1,0,-1
 100 1456 l 1,1,-1
 808 1456 l 1,2,-1
 808 0 l 1,3,-1
 100 0 l 1,0,-1
194 1402 m 1,4,-1
 452 796 l 1,5,-1
 709 1402 l 1,6,-1
 194 1402 l 1,4,-1
480 728 m 1,7,-1
 754 84 l 1,8,-1
 754 1372 l 1,9,-1
 480 728 l 1,7,-1
154 1360 m 1,10,-1
 154 96 l 1,11,-1
 422 728 l 1,12,-1
 154 1360 l 1,10,-1
194 54 m 1,13,-1
 709 54 l 1,14,-1
 452 660 l 1,15,-1
 194 54 l 1,13,-1
EndSplineSet
EndChar

StartChar: exclam
Encoding: 33 33 6
Width: 528
Flags: W
LayerCount: 2
Fore
SplineSet
361 1456 m 1,0,-1
 348 411 l 1,1,-1
 181 411 l 1,2,-1
 167 1456 l 1,3,-1
 361 1456 l 1,0,-1
161 93 m 0,4,5
 161 138 161 138 188.5 169 c 128,-1,6
 216 200 216 200 270 200 c 0,7,8
 323 200 323 200 351.5 169 c 128,-1,9
 380 138 380 138 380 93 c 0,10,11
 380 50 380 50 351.5 19 c 128,-1,12
 323 -12 323 -12 270 -12 c 0,13,14
 216 -12 216 -12 188.5 19 c 128,-1,15
 161 50 161 50 161 93 c 0,4,5
EndSplineSet
EndChar

StartChar: quotedbl
Encoding: 34 34 7
Width: 656
Flags: W
LayerCount: 2
Fore
SplineSet
278 1400 m 1,0,-1
 248 1043 l 1,1,-1
 137 1043 l 1,2,-1
 137 1536 l 1,3,-1
 278 1536 l 1,4,-1
 278 1400 l 1,0,-1
548 1400 m 1,5,-1
 518 1043 l 1,6,-1
 407 1043 l 1,7,-1
 407 1536 l 1,8,-1
 548 1536 l 1,9,-1
 548 1400 l 1,5,-1
EndSplineSet
EndChar

StartChar: numbersign
Encoding: 35 35 8
Width: 1261
Flags: W
LayerCount: 2
Fore
SplineSet
686 0 m 1,0,-1
 766 410 l 1,1,-1
 502 410 l 1,2,-1
 422 0 l 1,3,-1
 279 0 l 1,4,-1
 359 410 l 1,5,-1
 119 410 l 1,6,-1
 119 548 l 1,7,-1
 386 548 l 1,8,-1
 454 901 l 1,9,-1
 195 901 l 1,10,-1
 195 1040 l 1,11,-1
 481 1040 l 1,12,-1
 562 1456 l 1,13,-1
 706 1456 l 1,14,-1
 625 1040 l 1,15,-1
 889 1040 l 1,16,-1
 970 1456 l 1,17,-1
 1113 1456 l 1,18,-1
 1032 1040 l 1,19,-1
 1235 1040 l 1,20,-1
 1235 901 l 1,21,-1
 1005 901 l 1,22,-1
 936 548 l 1,23,-1
 1160 548 l 1,24,-1
 1160 410 l 1,25,-1
 909 410 l 1,26,-1
 829 0 l 1,27,-1
 686 0 l 1,0,-1
529 548 m 1,28,-1
 793 548 l 1,29,-1
 862 901 l 1,30,-1
 598 901 l 1,31,-1
 529 548 l 1,28,-1
EndSplineSet
EndChar

StartChar: dollar
Encoding: 36 36 9
Width: 1151
Flags: W
LayerCount: 2
Fore
SplineSet
1042 377 m 0,0,1
 1042 203 1042 203 937.5 102.5 c 128,-1,2
 833 2 833 2 656 -17 c 1,3,-1
 656 -208 l 1,4,-1
 507 -208 l 1,5,-1
 507 -18 l 1,6,7
 353 -2 353 -2 231.5 99.5 c 128,-1,8
 110 201 110 201 110 429 c 1,9,-1
 296 429 l 1,10,11
 296 260 296 260 386.5 200.5 c 128,-1,12
 477 141 477 141 575 141 c 0,13,14
 709 141 709 141 782.5 204.5 c 128,-1,15
 856 268 856 268 856 375 c 0,16,17
 856 464 856 464 793 529 c 128,-1,18
 730 594 730 594 574 645 c 0,19,20
 384 704 384 704 275 803 c 128,-1,21
 166 902 166 902 166 1080 c 0,22,23
 166 1246 166 1246 262.5 1349.5 c 128,-1,24
 359 1453 359 1453 524 1473 c 1,25,-1
 524 1692 l 1,26,-1
 674 1692 l 1,27,-1
 674 1472 l 1,28,29
 842 1450 842 1450 935.5 1331.5 c 128,-1,30
 1029 1213 1029 1213 1029 1008 c 1,31,-1
 845 1008 l 1,32,33
 845 1142 845 1142 781 1228.5 c 128,-1,34
 717 1315 717 1315 597 1315 c 0,35,36
 471 1315 471 1315 411.5 1250.5 c 128,-1,37
 352 1186 352 1186 352 1083 c 0,38,39
 352 986 352 986 413 925 c 128,-1,40
 474 864 474 864 639 809 c 0,41,42
 832 747 832 747 937 651 c 128,-1,43
 1042 555 1042 555 1042 377 c 0,0,1
EndSplineSet
Substitution2: "'c2sc' Capitals to Small Capitals lookup 0 subtable" dollar.smcp
Position2: "'cpsp' Capital Spacing lookup 0 subtable" dx=36 dy=0 dh=72 dv=0
EndChar

StartChar: percent
Encoding: 37 37 10
Width: 1500
Flags: W
LayerCount: 2
Fore
SplineSet
105 1099 m 2,0,-1
 105 1176 l 2,1,2
 105 1300 105 1300 185 1388.5 c 128,-1,3
 265 1477 265 1477 403 1477 c 0,4,5
 543 1477 543 1477 622.5 1388.5 c 128,-1,6
 702 1300 702 1300 702 1176 c 2,7,-1
 702 1099 l 2,8,9
 702 977 702 977 623 888.5 c 128,-1,10
 544 800 544 800 405 800 c 256,11,12
 266 800 266 800 185.5 888.5 c 128,-1,13
 105 977 105 977 105 1099 c 2,0,-1
244 1176 m 2,14,-1
 244 1099 l 2,15,16
 244 1030 244 1030 283.5 975 c 128,-1,17
 323 920 323 920 405 920 c 0,18,19
 485 920 485 920 524 974.5 c 128,-1,20
 563 1029 563 1029 563 1099 c 2,21,-1
 563 1176 l 2,22,23
 563 1246 563 1246 523.5 1301.5 c 128,-1,24
 484 1357 484 1357 403 1357 c 0,25,26
 323 1357 323 1357 283.5 1301.5 c 128,-1,27
 244 1246 244 1246 244 1176 c 2,14,-1
1158 1249 m 1,28,-1
 447 111 l 1,29,-1
 343 177 l 1,30,-1
 1054 1315 l 1,31,-1
 1158 1249 l 1,28,-1
814 279 m 2,32,-1
 814 357 l 2,33,34
 814 480 814 480 894 568.5 c 128,-1,35
 974 657 974 657 1112 657 c 0,36,37
 1252 657 1252 657 1331.5 568.5 c 128,-1,38
 1411 480 1411 480 1411 357 c 2,39,-1
 1411 279 l 2,40,41
 1411 156 1411 156 1332 67.5 c 128,-1,42
 1253 -21 1253 -21 1114 -21 c 0,43,44
 974 -21 974 -21 894 67.5 c 128,-1,45
 814 156 814 156 814 279 c 2,32,-1
953 357 m 2,46,-1
 953 279 l 2,47,48
 953 209 953 209 992.5 154 c 128,-1,49
 1032 99 1032 99 1114 99 c 0,50,51
 1195 99 1195 99 1234 153.5 c 128,-1,52
 1273 208 1273 208 1273 279 c 2,53,-1
 1273 357 l 2,54,55
 1273 428 1273 428 1233.5 482.5 c 128,-1,56
 1194 537 1194 537 1112 537 c 0,57,58
 1032 537 1032 537 992.5 482.5 c 128,-1,59
 953 428 953 428 953 357 c 2,46,-1
EndSplineSet
EndChar

StartChar: ampersand
Encoding: 38 38 11
Width: 1274
Flags: W
LayerCount: 2
Fore
SplineSet
1044 0 m 1,0,-1
 948 115 l 1,1,2
 873 48 873 48 772 14 c 128,-1,3
 671 -20 671 -20 571 -20 c 0,4,5
 353 -20 353 -20 227 96 c 128,-1,6
 101 212 101 212 101 392 c 0,7,8
 101 522 101 522 179.5 611.5 c 128,-1,9
 258 701 258 701 383 789 c 1,10,11
 308 879 308 879 263.5 958 c 128,-1,12
 219 1037 219 1037 219 1123 c 0,13,14
 219 1293 219 1293 319 1384.5 c 128,-1,15
 419 1476 419 1476 584 1476 c 0,16,17
 745 1476 745 1476 837.5 1384.5 c 128,-1,18
 930 1293 930 1293 930 1169 c 0,19,20
 930 1063 930 1063 875 990 c 128,-1,21
 820 917 820 917 732 852 c 2,22,-1
 623 771 l 1,23,-1
 947 383 l 1,24,25
 1015 513 1015 513 1015 672 c 1,26,-1
 1181 672 l 1,27,28
 1181 417 1181 417 1058 249 c 1,29,-1
 1266 0 l 1,30,-1
 1044 0 l 1,0,-1
405 1129 m 0,31,32
 405 1074 405 1074 437.5 1014.5 c 128,-1,33
 470 955 470 955 523 889 c 1,34,-1
 627 963 l 2,35,36
 690 1006 690 1006 724.5 1049.5 c 128,-1,37
 759 1093 759 1093 759 1169 c 0,38,39
 759 1228 759 1228 713 1276.5 c 128,-1,40
 667 1325 667 1325 583 1325 c 0,41,42
 495 1325 495 1325 450 1266.5 c 128,-1,43
 405 1208 405 1208 405 1129 c 0,31,32
286 392 m 0,44,45
 286 286 286 286 356 209 c 128,-1,46
 426 132 426 132 571 132 c 0,47,48
 719 132 719 132 840 243 c 1,49,-1
 485 668 l 1,50,-1
 443 637 l 2,51,52
 335 558 335 558 310.5 491 c 128,-1,53
 286 424 286 424 286 392 c 0,44,45
EndSplineSet
Substitution2: "'smcp' Lowercase to Small Capitals lookup 1 subtable" ampersand.smcp
Substitution2: "'c2sc' Capitals to Small Capitals lookup 0 subtable" ampersand.smcp
Position2: "'cpsp' Capital Spacing lookup 0 subtable" dx=36 dy=0 dh=72 dv=0
EndChar

StartChar: quotesingle
Encoding: 39 39 12
Width: 358
Flags: W
LayerCount: 2
Fore
SplineSet
254 1536 m 1,0,-1
 254 1426 l 1,1,-1
 233 1058 l 1,2,-1
 104 1058 l 1,3,-1
 105 1409 l 1,4,-1
 105 1536 l 1,5,-1
 254 1536 l 1,0,-1
EndSplineSet
EndChar

StartChar: parenleft
Encoding: 40 40 13
Width: 701
Flags: W
LayerCount: 2
Fore
SplineSet
134 582 m 2,0,-1
 134 592 l 2,1,2
 134 882 134 882 217 1099 c 128,-1,3
 300 1316 300 1316 414 1453 c 128,-1,4
 528 1590 528 1590 623 1643 c 1,5,-1
 662 1521 l 1,6,7
 544 1432 544 1432 431.5 1203 c 128,-1,8
 319 974 319 974 319 594 c 2,9,-1
 319 580 l 2,10,11
 319 200 319 200 431.5 -31 c 128,-1,12
 544 -262 544 -262 662 -358 c 1,13,-1
 623 -470 l 1,14,15
 528 -418 528 -418 414 -281 c 128,-1,16
 300 -144 300 -144 217 73 c 128,-1,17
 134 290 134 290 134 582 c 2,0,-1
EndSplineSet
EndChar

StartChar: parenright
Encoding: 41 41 14
Width: 713
Flags: W
LayerCount: 2
Fore
SplineSet
567 592 m 2,0,-1
 567 582 l 2,1,2
 567 290 567 290 484 73 c 128,-1,3
 401 -144 401 -144 286.5 -281 c 128,-1,4
 172 -418 172 -418 78 -470 c 1,5,-1
 39 -358 l 1,6,7
 156 -269 156 -269 269 -34.5 c 128,-1,8
 382 200 382 200 382 580 c 2,9,-1
 382 594 l 2,10,11
 382 847 382 847 326 1035.5 c 128,-1,12
 270 1224 270 1224 190 1348 c 128,-1,13
 110 1472 110 1472 39 1530 c 1,14,-1
 78 1643 l 1,15,16
 172 1590 172 1590 286.5 1453 c 128,-1,17
 401 1316 401 1316 484 1099 c 128,-1,18
 567 882 567 882 567 592 c 2,0,-1
EndSplineSet
EndChar

StartChar: asterisk
Encoding: 42 42 15
Width: 882
Flags: W
LayerCount: 2
Fore
SplineSet
129 708 m 1,0,-1
 330 984 l 1,1,-1
 28 1074 l 1,2,-1
 75 1224 l 1,3,-1
 377 1113 l 1,4,-1
 368 1457 l 1,5,-1
 520 1457 l 1,6,-1
 510 1107 l 1,7,-1
 808 1218 l 1,8,-1
 854 1065 l 1,9,-1
 547 974 l 1,10,-1
 744 703 l 1,11,-1
 620 610 l 1,12,-1
 435 898 l 1,13,-1
 254 617 l 1,14,-1
 129 708 l 1,0,-1
EndSplineSet
EndChar

StartChar: plus
Encoding: 43 43 16
Width: 1162
Flags: W
LayerCount: 2
Fore
SplineSet
1076 607 m 1,0,-1
 670 607 l 1,1,-1
 670 146 l 1,2,-1
 485 146 l 1,3,-1
 485 607 l 1,4,-1
 78 607 l 1,5,-1
 78 781 l 1,6,-1
 485 781 l 1,7,-1
 485 1206 l 1,8,-1
 670 1206 l 1,9,-1
 670 781 l 1,10,-1
 1076 781 l 1,11,-1
 1076 607 l 1,0,-1
EndSplineSet
EndChar

StartChar: comma
Encoding: 44 44 17
Width: 403
Flags: W
LayerCount: 2
Fore
SplineSet
309 220 m 1,0,-1
 309 71 l 2,1,2
 309 -20 309 -20 263 -121.5 c 128,-1,3
 217 -223 217 -223 134 -291 c 1,4,-1
 29 -218 l 1,5,6
 76 -152 76 -152 102 -82.5 c 128,-1,7
 128 -13 128 -13 128 68 c 2,8,-1
 128 220 l 1,9,-1
 309 220 l 1,0,-1
EndSplineSet
EndChar

StartChar: hyphen
Encoding: 45 45 18
Width: 566
Flags: W
LayerCount: 2
Fore
SplineSet
526 695 m 1,0,-1
 526 543 l 1,1,-1
 38 543 l 1,2,-1
 38 695 l 1,3,-1
 526 695 l 1,0,-1
EndSplineSet
EndChar

StartChar: period
Encoding: 46 46 19
Width: 540
Flags: W
LayerCount: 2
Fore
SplineSet
144 98 m 0,0,1
 144 145 144 145 173.5 177.5 c 128,-1,2
 203 210 203 210 259 210 c 256,3,4
 315 210 315 210 344.5 177.5 c 128,-1,5
 374 145 374 145 374 98 c 0,6,7
 374 52 374 52 344.5 20 c 128,-1,8
 315 -12 315 -12 259 -12 c 256,9,10
 203 -12 203 -12 173.5 20 c 128,-1,11
 144 52 144 52 144 98 c 0,0,1
EndSplineSet
EndChar

StartChar: slash
Encoding: 47 47 20
Width: 845
Flags: W
LayerCount: 2
Fore
SplineSet
785 1456 m 1,0,-1
 178 -125 l 1,1,-1
 19 -125 l 1,2,-1
 627 1456 l 1,3,-1
 785 1456 l 1,0,-1
EndSplineSet
Substitution2: "'frac' Diagonal Fractions lookup 31 subtable" fraction
EndChar

StartChar: zero
Encoding: 48 48 21
Width: 1151
Flags: W
LayerCount: 2
Fore
SplineSet
1035 844 m 2,0,-1
 1035 622 l 2,1,2
 1035 264 1035 264 911.5 122 c 128,-1,3
 788 -20 788 -20 576 -20 c 0,4,5
 367 -20 367 -20 241 122 c 128,-1,6
 115 264 115 264 115 622 c 2,7,-1
 115 844 l 2,8,9
 115 1201 115 1201 240 1338.5 c 128,-1,10
 365 1476 365 1476 574 1476 c 0,11,12
 786 1476 786 1476 910.5 1338.5 c 128,-1,13
 1035 1201 1035 1201 1035 844 c 2,0,-1
849 592 m 2,14,-1
 849 875 l 2,15,16
 849 1121 849 1121 779 1223 c 128,-1,17
 709 1325 709 1325 574 1325 c 0,18,19
 442 1325 442 1325 371.5 1223 c 128,-1,20
 301 1121 301 1121 301 875 c 2,21,-1
 301 592 l 2,22,23
 301 348 301 348 372.5 240 c 128,-1,24
 444 132 444 132 576 132 c 0,25,26
 712 132 712 132 780.5 240 c 128,-1,27
 849 348 849 348 849 592 c 2,14,-1
EndSplineSet
Substitution2: "'numr' Numerators lookup 34 subtable" zero.frac
Substitution2: "'dnom' Denominators lookup 33 subtable" zero.sup
Substitution2: "'pnum' Proportional Numbers lookup 28 subtable" zero.pnum
Substitution2: "'onum' Oldstyle Figures lookup 27 subtable" zero.tnum
Substitution2: "'c2sc' Capitals to Small Capitals lookup 0 subtable" zero.smcp
Position2: "'cpsp' Capital Spacing lookup 0 subtable" dx=36 dy=0 dh=72 dv=0
EndChar

StartChar: one
Encoding: 49 49 22
Width: 1151
Flags: W
LayerCount: 2
Fore
SplineSet
729 1464 m 1,0,-1
 729 0 l 1,1,-1
 544 0 l 1,2,-1
 544 1233 l 1,3,-1
 171 1097 l 1,4,-1
 171 1264 l 1,5,-1
 700 1464 l 1,6,-1
 729 1464 l 1,0,-1
EndSplineSet
Substitution2: "'numr' Numerators lookup 34 subtable" onesuperior
Substitution2: "'dnom' Denominators lookup 33 subtable" one.sup
Substitution2: "'pnum' Proportional Numbers lookup 28 subtable" one.pnum
Substitution2: "'onum' Oldstyle Figures lookup 27 subtable" one.tnum
Substitution2: "'c2sc' Capitals to Small Capitals lookup 0 subtable" one.smcp
Position2: "'cpsp' Capital Spacing lookup 0 subtable" dx=36 dy=0 dh=72 dv=0
EndChar

StartChar: two
Encoding: 50 50 23
Width: 1151
Flags: W
LayerCount: 2
Fore
SplineSet
1075 152 m 1,0,-1
 1075 0 l 1,1,-1
 122 0 l 1,2,-1
 122 133 l 1,3,-1
 599 664 l 2,4,5
 731 811 731 811 777 895.5 c 128,-1,6
 823 980 823 980 823 1065 c 0,7,8
 823 1172 823 1172 756.5 1248 c 128,-1,9
 690 1324 690 1324 569 1324 c 0,10,11
 423 1324 423 1324 351 1241 c 128,-1,12
 279 1158 279 1158 279 1028 c 1,13,-1
 94 1028 l 1,14,15
 94 1212 94 1212 215 1344 c 128,-1,16
 336 1476 336 1476 569 1476 c 0,17,18
 775 1476 775 1476 891.5 1369 c 128,-1,19
 1008 1262 1008 1262 1008 1087 c 0,20,21
 1008 958 1008 958 927.5 827 c 128,-1,22
 847 696 847 696 735 575 c 2,23,-1
 345 152 l 1,24,-1
 1075 152 l 1,0,-1
EndSplineSet
Substitution2: "'numr' Numerators lookup 34 subtable" twosuperior
Substitution2: "'dnom' Denominators lookup 33 subtable" two.sup
Substitution2: "'pnum' Proportional Numbers lookup 28 subtable" two.pnum
Substitution2: "'onum' Oldstyle Figures lookup 27 subtable" two.tnum
Substitution2: "'c2sc' Capitals to Small Capitals lookup 0 subtable" two.smcp
Position2: "'cpsp' Capital Spacing lookup 0 subtable" dx=36 dy=0 dh=72 dv=0
EndChar

StartChar: three
Encoding: 51 51 24
Width: 1151
Flags: W
LayerCount: 2
Fore
SplineSet
523 667 m 2,0,-1
 391 667 l 1,1,-1
 391 819 l 1,2,-1
 523 819 l 2,3,4
 668 819 668 819 739 890 c 128,-1,5
 810 961 810 961 810 1068 c 0,6,7
 810 1324 810 1324 556 1324 c 0,8,9
 438 1324 438 1324 365 1256.5 c 128,-1,10
 292 1189 292 1189 292 1075 c 1,11,-1
 107 1075 l 1,12,13
 107 1242 107 1242 230.5 1359 c 128,-1,14
 354 1476 354 1476 556 1476 c 0,15,16
 753 1476 753 1476 874.5 1371.5 c 128,-1,17
 996 1267 996 1267 996 1064 c 0,18,19
 996 983 996 983 941.5 891 c 128,-1,20
 887 799 887 799 767 748 c 1,21,22
 912 701 912 701 965 603 c 128,-1,23
 1018 505 1018 505 1018 406 c 0,24,25
 1018 202 1018 202 886 91 c 128,-1,26
 754 -20 754 -20 557 -20 c 0,27,28
 367 -20 367 -20 231 85.5 c 128,-1,29
 95 191 95 191 95 385 c 1,30,-1
 280 385 l 1,31,32
 280 270 280 270 354.5 201 c 128,-1,33
 429 132 429 132 557 132 c 0,34,35
 684 132 684 132 758 199 c 128,-1,36
 832 266 832 266 832 402 c 256,37,38
 832 538 832 538 748 602.5 c 128,-1,39
 664 667 664 667 523 667 c 2,0,-1
EndSplineSet
Substitution2: "'numr' Numerators lookup 34 subtable" threesuperior
Substitution2: "'dnom' Denominators lookup 33 subtable" three.sup
Substitution2: "'pnum' Proportional Numbers lookup 28 subtable" three.pnum
Substitution2: "'onum' Oldstyle Figures lookup 27 subtable" three.tnum
Substitution2: "'c2sc' Capitals to Small Capitals lookup 0 subtable" three.smcp
Position2: "'cpsp' Capital Spacing lookup 0 subtable" dx=36 dy=0 dh=72 dv=0
EndChar

StartChar: four
Encoding: 52 52 25
Width: 1151
Flags: W
LayerCount: 2
Fore
SplineSet
53 447 m 1,0,-1
 705 1456 l 1,1,-1
 902 1456 l 1,2,-1
 902 490 l 1,3,-1
 1105 490 l 1,4,-1
 1105 338 l 1,5,-1
 902 338 l 1,6,-1
 902 0 l 1,7,-1
 717 0 l 1,8,-1
 717 338 l 1,9,-1
 53 338 l 1,10,-1
 53 447 l 1,0,-1
263 490 m 1,11,-1
 717 490 l 1,12,-1
 717 1205 l 1,13,-1
 694 1164 l 1,14,-1
 263 490 l 1,11,-1
EndSplineSet
Substitution2: "'numr' Numerators lookup 34 subtable" four.frac
Substitution2: "'dnom' Denominators lookup 33 subtable" four.sup
Substitution2: "'pnum' Proportional Numbers lookup 28 subtable" four.pnum
Substitution2: "'onum' Oldstyle Figures lookup 27 subtable" four.tnum
Substitution2: "'c2sc' Capitals to Small Capitals lookup 0 subtable" four.smcp
Position2: "'cpsp' Capital Spacing lookup 0 subtable" dx=36 dy=0 dh=72 dv=0
EndChar

StartChar: five
Encoding: 53 53 26
Width: 1151
Flags: W
LayerCount: 2
Fore
SplineSet
355 693 m 1,0,-1
 207 731 l 1,1,-1
 280 1456 l 1,2,-1
 1027 1456 l 1,3,-1
 1027 1285 l 1,4,-1
 437 1285 l 1,5,-1
 393 889 l 1,6,7
 433 912 433 912 494.5 932 c 128,-1,8
 556 952 556 952 636 952 c 0,9,10
 837 952 837 952 953.5 819.5 c 128,-1,11
 1070 687 1070 687 1070 464 c 0,12,13
 1070 255 1070 255 956 117.5 c 128,-1,14
 842 -20 842 -20 609 -20 c 0,15,16
 432 -20 432 -20 303 79.5 c 128,-1,17
 174 179 174 179 154 383 c 1,18,-1
 330 383 l 1,19,20
 365 132 365 132 609 132 c 0,21,22
 740 132 740 132 812 221 c 128,-1,23
 884 310 884 310 884 462 c 0,24,25
 884 599 884 599 808.5 692.5 c 128,-1,26
 733 786 733 786 593 786 c 0,27,28
 500 786 500 786 452 761 c 128,-1,29
 404 736 404 736 355 693 c 1,0,-1
EndSplineSet
Substitution2: "'numr' Numerators lookup 34 subtable" five.frac
Substitution2: "'dnom' Denominators lookup 33 subtable" five.sup
Substitution2: "'pnum' Proportional Numbers lookup 28 subtable" five.pnum
Substitution2: "'onum' Oldstyle Figures lookup 27 subtable" five.tnum
Substitution2: "'c2sc' Capitals to Small Capitals lookup 0 subtable" five.smcp
Position2: "'cpsp' Capital Spacing lookup 0 subtable" dx=36 dy=0 dh=72 dv=0
EndChar

StartChar: six
Encoding: 54 54 27
Width: 1151
Flags: W
LayerCount: 2
Fore
SplineSet
1053 475 m 0,0,1
 1053 268 1053 268 937.5 124 c 128,-1,2
 822 -20 822 -20 601 -20 c 0,3,4
 444 -20 444 -20 340 63.5 c 128,-1,5
 236 147 236 147 184.5 275.5 c 128,-1,6
 133 404 133 404 133 539 c 2,7,-1
 133 626 l 2,8,9
 133 831 133 831 190.5 1022 c 128,-1,10
 248 1213 248 1213 399 1335.5 c 128,-1,11
 550 1458 550 1458 831 1458 c 2,12,-1
 847 1458 l 1,13,-1
 847 1301 l 1,14,-1
 831 1301 l 2,15,16
 654 1301 654 1301 546 1233 c 128,-1,17
 438 1165 438 1165 385.5 1056.5 c 128,-1,18
 333 948 333 948 322 824 c 1,19,20
 382 892 382 892 462.5 923.5 c 128,-1,21
 543 955 543 955 635 955 c 0,22,23
 780 955 780 955 872.5 885 c 128,-1,24
 965 815 965 815 1009 704.5 c 128,-1,25
 1053 594 1053 594 1053 475 c 0,0,1
319 533 m 2,26,27
 319 339 319 339 405.5 236 c 128,-1,28
 492 133 492 133 601 133 c 0,29,30
 729 133 729 133 799.5 226.5 c 128,-1,31
 870 320 870 320 870 466 c 0,32,33
 870 596 870 596 805 699 c 128,-1,34
 740 802 740 802 605 802 c 0,35,36
 508 802 508 802 429 744 c 128,-1,37
 350 686 350 686 319 603 c 1,38,-1
 319 533 l 2,26,27
EndSplineSet
Substitution2: "'numr' Numerators lookup 34 subtable" six.frac
Substitution2: "'dnom' Denominators lookup 33 subtable" six.sup
Substitution2: "'lnum' Lining Figures lookup 30 subtable" six.pnum
Substitution2: "'tnum' Tabular Numbers lookup 29 subtable" six.tnum
Substitution2: "'pnum' Proportional Numbers lookup 28 subtable" six.pnum
Substitution2: "'onum' Oldstyle Figures lookup 27 subtable" six.tnum
Substitution2: "'c2sc' Capitals to Small Capitals lookup 0 subtable" six.smcp
Position2: "'cpsp' Capital Spacing lookup 0 subtable" dx=36 dy=0 dh=72 dv=0
EndChar

StartChar: seven
Encoding: 55 55 28
Width: 1151
Flags: W
LayerCount: 2
Fore
SplineSet
1062 1456 m 1,0,-1
 1062 1352 l 1,1,-1
 459 0 l 1,2,-1
 264 0 l 1,3,-1
 866 1304 l 1,4,-1
 78 1304 l 1,5,-1
 78 1456 l 1,6,-1
 1062 1456 l 1,0,-1
EndSplineSet
Substitution2: "'numr' Numerators lookup 34 subtable" seven.frac
Substitution2: "'dnom' Denominators lookup 33 subtable" seven.sup
Substitution2: "'pnum' Proportional Numbers lookup 28 subtable" seven.pnum
Substitution2: "'onum' Oldstyle Figures lookup 27 subtable" seven.tnum
Substitution2: "'c2sc' Capitals to Small Capitals lookup 0 subtable" seven.smcp
Position2: "'cpsp' Capital Spacing lookup 0 subtable" dx=36 dy=0 dh=72 dv=0
EndChar

StartChar: eight
Encoding: 56 56 29
Width: 1151
Flags: W
LayerCount: 2
Fore
SplineSet
1038 394 m 0,0,1
 1038 194 1038 194 904.5 87 c 128,-1,2
 771 -20 771 -20 575 -20 c 256,3,4
 379 -20 379 -20 245.5 87 c 128,-1,5
 112 194 112 194 112 394 c 0,6,7
 112 516 112 516 177.5 609.5 c 128,-1,8
 243 703 243 703 355 751 c 1,9,10
 258 798 258 798 201.5 884 c 128,-1,11
 145 970 145 970 145 1077 c 0,12,13
 145 1268 145 1268 266.5 1372 c 128,-1,14
 388 1476 388 1476 574 1476 c 0,15,16
 761 1476 761 1476 882.5 1372 c 128,-1,17
 1004 1268 1004 1268 1004 1077 c 0,18,19
 1004 969 1004 969 946 883.5 c 128,-1,20
 888 798 888 798 791 751 c 1,21,22
 904 703 904 703 971 609 c 128,-1,23
 1038 515 1038 515 1038 394 c 0,0,1
819 1074 m 0,24,25
 819 1183 819 1183 751 1253.5 c 128,-1,26
 683 1324 683 1324 574 1324 c 256,27,28
 465 1324 465 1324 398 1256.5 c 128,-1,29
 331 1189 331 1189 331 1074 c 0,30,31
 331 961 331 961 398 893 c 128,-1,32
 465 825 465 825 575 825 c 0,33,34
 684 825 684 825 751.5 893 c 128,-1,35
 819 961 819 961 819 1074 c 0,24,25
852 398 m 0,36,37
 852 520 852 520 774.5 597 c 128,-1,38
 697 674 697 674 573 674 c 0,39,40
 446 674 446 674 371.5 597 c 128,-1,41
 297 520 297 520 297 398 c 0,42,43
 297 272 297 272 371.5 202 c 128,-1,44
 446 132 446 132 575 132 c 256,45,46
 704 132 704 132 778 202 c 128,-1,47
 852 272 852 272 852 398 c 0,36,37
EndSplineSet
Substitution2: "'numr' Numerators lookup 34 subtable" eight.frac
Substitution2: "'dnom' Denominators lookup 33 subtable" eight.sup
Substitution2: "'lnum' Lining Figures lookup 30 subtable" eight.pnum
Substitution2: "'tnum' Tabular Numbers lookup 29 subtable" eight.tnum
Substitution2: "'pnum' Proportional Numbers lookup 28 subtable" eight.pnum
Substitution2: "'onum' Oldstyle Figures lookup 27 subtable" eight.tnum
Substitution2: "'c2sc' Capitals to Small Capitals lookup 0 subtable" eight.smcp
Position2: "'cpsp' Capital Spacing lookup 0 subtable" dx=36 dy=0 dh=72 dv=0
EndChar

StartChar: nine
Encoding: 57 57 30
Width: 1151
Flags: W
LayerCount: 2
Fore
SplineSet
1016 820 m 2,0,1
 1016 678 1016 678 991.5 533.5 c 128,-1,2
 967 389 967 389 896.5 267.5 c 128,-1,3
 826 146 826 146 688 72 c 128,-1,4
 550 -2 550 -2 324 -2 c 2,5,-1
 305 -2 l 1,6,-1
 305 155 l 1,7,-1
 324 155 l 2,8,9
 525 155 525 155 633 224 c 128,-1,10
 741 293 741 293 783.5 404.5 c 128,-1,11
 826 516 826 516 831 642 c 1,12,13
 773 573 773 573 692 530 c 128,-1,14
 611 487 611 487 516 487 c 0,15,16
 372 487 372 487 280 559 c 128,-1,17
 188 631 188 631 144 742.5 c 128,-1,18
 100 854 100 854 100 973 c 0,19,20
 100 1181 100 1181 214.5 1328.5 c 128,-1,21
 329 1476 329 1476 552 1476 c 0,22,23
 718 1476 718 1476 820.5 1390 c 128,-1,24
 923 1304 923 1304 969.5 1169 c 128,-1,25
 1016 1034 1016 1034 1016 887 c 2,26,-1
 1016 820 l 2,0,1
282 983 m 0,27,28
 282 853 282 853 347.5 747 c 128,-1,29
 413 641 413 641 546 641 c 0,30,31
 641 641 641 641 718.5 698 c 128,-1,32
 796 755 796 755 832 839 c 1,33,-1
 832 912 l 2,34,35
 832 1111 832 1111 747.5 1217 c 128,-1,36
 663 1323 663 1323 552 1323 c 0,37,38
 423 1323 423 1323 352.5 1225.5 c 128,-1,39
 282 1128 282 1128 282 983 c 0,27,28
EndSplineSet
Substitution2: "'numr' Numerators lookup 34 subtable" nine.frac
Substitution2: "'dnom' Denominators lookup 33 subtable" nine.sup
Substitution2: "'pnum' Proportional Numbers lookup 28 subtable" nine.pnum
Substitution2: "'onum' Oldstyle Figures lookup 27 subtable" nine.tnum
Substitution2: "'c2sc' Capitals to Small Capitals lookup 0 subtable" nine.smcp
Position2: "'cpsp' Capital Spacing lookup 0 subtable" dx=36 dy=0 dh=72 dv=0
EndChar

StartChar: less
Encoding: 60 60 33
Width: 1041
Flags: W
LayerCount: 2
Fore
SplineSet
890 196 m 1,0,-1
 72 575 l 1,1,-1
 72 720 l 1,2,-1
 890 1098 l 1,3,-1
 890 902 l 1,4,-1
 266 645 l 1,5,-1
 890 392 l 1,6,-1
 890 196 l 1,0,-1
EndSplineSet
EndChar

StartChar: equal
Encoding: 61 61 34
Width: 1124
Flags: W
LayerCount: 2
Fore
SplineSet
986 975 m 1,0,-1
 986 814 l 1,1,-1
 152 814 l 1,2,-1
 152 975 l 1,3,-1
 986 975 l 1,0,-1
986 560 m 1,4,-1
 986 399 l 1,5,-1
 152 399 l 1,6,-1
 152 560 l 1,7,-1
 986 560 l 1,4,-1
EndSplineSet
EndChar

StartChar: greater
Encoding: 62 62 35
Width: 1071
Flags: W
LayerCount: 2
Fore
SplineSet
135 1100 m 1,0,-1
 989 722 l 1,1,-1
 989 576 l 1,2,-1
 135 197 l 1,3,-1
 135 388 l 1,4,-1
 797 651 l 1,5,-1
 135 909 l 1,6,-1
 135 1100 l 1,0,-1
EndSplineSet
EndChar

StartChar: question
Encoding: 63 63 36
Width: 968
Flags: W
LayerCount: 2
Fore
SplineSet
543 410 m 1,0,-1
 357 410 l 1,1,2
 358 554 358 554 396.5 626 c 128,-1,3
 435 698 435 698 530 796 c 0,4,5
 598 866 598 866 649.5 927.5 c 128,-1,6
 701 989 701 989 701 1091 c 0,7,8
 701 1194 701 1194 646 1254 c 128,-1,9
 591 1314 591 1314 487 1314 c 0,10,11
 399 1314 399 1314 330 1266.5 c 128,-1,12
 261 1219 261 1219 260 1115 c 1,13,-1
 75 1115 l 1,14,15
 77 1284 77 1284 195.5 1380 c 128,-1,16
 314 1476 314 1476 487 1476 c 0,17,18
 678 1476 678 1476 782.5 1374 c 128,-1,19
 887 1272 887 1272 887 1096 c 0,20,21
 887 962 887 962 809 857 c 128,-1,22
 731 752 731 752 636 663 c 0,23,24
 581 612 581 612 562 548 c 128,-1,25
 543 484 543 484 543 410 c 1,0,-1
349 93 m 0,26,27
 349 138 349 138 377 169 c 128,-1,28
 405 200 405 200 458 200 c 0,29,30
 512 200 512 200 540 169 c 128,-1,31
 568 138 568 138 568 93 c 0,32,33
 568 50 568 50 540 19 c 128,-1,34
 512 -12 512 -12 458 -12 c 0,35,36
 405 -12 405 -12 377 19 c 128,-1,37
 349 50 349 50 349 93 c 0,26,27
EndSplineSet
EndChar

StartChar: at
Encoding: 64 64 37
Width: 1839
Flags: W
LayerCount: 2
Fore
SplineSet
1265 -364 m 1,0,1
 1195 -409 1195 -409 1090.5 -431 c 128,-1,2
 986 -453 986 -453 893 -453 c 0,3,4
 513 -453 513 -453 305.5 -202.5 c 128,-1,5
 98 48 98 48 116 478 c 0,6,7
 128 752 128 752 235.5 967.5 c 128,-1,8
 343 1183 343 1183 530.5 1307 c 128,-1,9
 718 1431 718 1431 969 1431 c 0,10,11
 1354 1431 1354 1431 1553.5 1180 c 128,-1,12
 1753 929 1753 929 1736 503 c 0,13,14
 1731 380 1731 380 1689.5 259 c 128,-1,15
 1648 138 1648 138 1559.5 58.5 c 128,-1,16
 1471 -21 1471 -21 1327 -21 c 0,17,18
 1139 -21 1139 -21 1087 149 c 1,19,20
 979 -21 979 -21 819 -21 c 0,21,22
 672 -21 672 -21 602 100 c 128,-1,23
 532 221 532 221 550 418 c 0,24,25
 573 681 573 681 700.5 835.5 c 128,-1,26
 828 990 828 990 983 990 c 0,27,28
 1091 990 1091 990 1153 958.5 c 128,-1,29
 1215 927 1215 927 1271 884 c 1,30,-1
 1220 330 l 2,31,32
 1207 184 1207 184 1253 141 c 128,-1,33
 1299 98 1299 98 1348 98 c 0,34,35
 1469 98 1469 98 1534.5 216 c 128,-1,36
 1600 334 1600 334 1607 503 c 0,37,38
 1624 876 1624 876 1468.5 1088 c 128,-1,39
 1313 1300 1313 1300 965 1300 c 0,40,41
 650 1300 650 1300 463 1072 c 128,-1,42
 276 844 276 844 261 478 c 0,43,44
 243 104 243 104 410.5 -112 c 128,-1,45
 578 -328 578 -328 897 -328 c 0,46,47
 985 -328 985 -328 1075.5 -307 c 128,-1,48
 1166 -286 1166 -286 1227 -250 c 1,49,-1
 1265 -364 l 1,0,1
709 418 m 0,50,51
 696 277 696 277 736.5 200 c 128,-1,52
 777 123 777 123 865 123 c 0,53,54
 916 123 916 123 974 169 c 128,-1,55
 1032 215 1032 215 1072 321 c 0,56,57
 1073 325 1073 325 1073 330 c 2,58,-1
 1119 832 l 1,59,60
 1063 861 1063 861 999 861 c 0,61,62
 890 861 890 861 809.5 749 c 128,-1,63
 729 637 729 637 709 418 c 0,50,51
EndSplineSet
EndChar

StartChar: A
Encoding: 65 65 38
Width: 1336
GlyphClass: 2
Flags: W
AnchorPoint: "Anchor-5" 1336 1601 basechar 0
AnchorPoint: "Anchor-3" 1336 -407 basechar 0
AnchorPoint: "Anchor-2" 1336 1600 basechar 0
AnchorPoint: "Anchor-1" 686 0 basechar 0
AnchorPoint: "Anchor-0" 672 1601 basechar 0
LayerCount: 2
Fore
SplineSet
29 0 m 1,0,-1
 584 1456 l 1,1,-1
 753 1456 l 1,2,-1
 1310 0 l 1,3,-1
 1112 0 l 1,4,-1
 973 381 l 1,5,-1
 364 381 l 1,6,-1
 226 0 l 1,7,-1
 29 0 l 1,0,-1
422 539 m 1,8,-1
 916 539 l 1,9,-1
 669 1218 l 1,10,-1
 422 539 l 1,8,-1
EndSplineSet
Substitution2: "'unic' Unicase lookup 2 subtable" A.unic
Substitution2: "'c2sc' Capitals to Small Capitals lookup 0 subtable" A.smcp
Position2: "'cpsp' Capital Spacing lookup 0 subtable" dx=36 dy=0 dh=72 dv=0
EndChar

StartChar: B
Encoding: 66 66 39
Width: 1276
GlyphClass: 2
Flags: W
AnchorPoint: "Anchor-5" 1276 1612 basechar 0
AnchorPoint: "Anchor-3" 1276 -407 basechar 0
AnchorPoint: "Anchor-2" 1276 1600 basechar 0
AnchorPoint: "Anchor-1" 613 10 basechar 0
AnchorPoint: "Anchor-0" 606 1612 basechar 0
LayerCount: 2
Fore
SplineSet
1160 420 m 0,0,1
 1160 216 1160 216 1028.5 108 c 128,-1,2
 897 0 897 0 679 0 c 2,3,-1
 169 0 l 1,4,-1
 169 1456 l 1,5,-1
 646 1456 l 2,6,7
 870 1456 870 1456 995.5 1363.5 c 128,-1,8
 1121 1271 1121 1271 1121 1068 c 0,9,10
 1121 967 1121 967 1063.5 888.5 c 128,-1,11
 1006 810 1006 810 906 767 c 1,12,13
 1029 733 1029 733 1094.5 638 c 128,-1,14
 1160 543 1160 543 1160 420 c 0,0,1
362 1298 m 1,15,-1
 362 836 l 1,16,-1
 652 836 l 2,17,18
 776 836 776 836 852 898 c 128,-1,19
 928 960 928 960 928 1070 c 0,20,21
 928 1298 928 1298 646 1298 c 2,22,-1
 362 1298 l 1,15,-1
968 418 m 0,23,24
 968 540 968 540 901.5 610.5 c 128,-1,25
 835 681 835 681 688 681 c 2,26,-1
 362 681 l 1,27,-1
 362 157 l 1,28,-1
 679 157 l 2,29,30
 816 157 816 157 892 227.5 c 128,-1,31
 968 298 968 298 968 418 c 0,23,24
EndSplineSet
Substitution2: "'c2sc' Capitals to Small Capitals lookup 0 subtable" B.smcp
Position2: "'cpsp' Capital Spacing lookup 0 subtable" dx=36 dy=0 dh=72 dv=0
EndChar

StartChar: C
Encoding: 67 67 40
Width: 1333
GlyphClass: 2
Flags: W
AnchorPoint: "Anchor-5" 1333 1633 basechar 0
AnchorPoint: "Anchor-3" 1333 -407 basechar 0
AnchorPoint: "Anchor-2" 1333 1600 basechar 0
AnchorPoint: "Anchor-1" 680 -10 basechar 0
AnchorPoint: "Anchor-0" 680 1633 basechar 0
LayerCount: 2
Fore
SplineSet
1048 463 m 1,0,-1
 1240 463 l 1,1,2
 1218 256 1218 256 1084 118 c 128,-1,3
 950 -20 950 -20 688 -20 c 0,4,5
 432 -20 432 -20 276 164.5 c 128,-1,6
 120 349 120 349 120 655 c 2,7,-1
 120 800 l 2,8,9
 120 1106 120 1106 277.5 1291 c 128,-1,10
 435 1476 435 1476 705 1476 c 0,11,12
 952 1476 952 1476 1085 1340 c 128,-1,13
 1218 1204 1218 1204 1240 989 c 1,14,-1
 1048 989 l 1,15,16
 1026 1141 1026 1141 950 1229.5 c 128,-1,17
 874 1318 874 1318 705 1318 c 0,18,19
 512 1318 512 1318 412 1176 c 128,-1,20
 312 1034 312 1034 312 802 c 2,21,-1
 312 655 l 2,22,23
 312 440 312 440 403 288.5 c 128,-1,24
 494 137 494 137 688 137 c 0,25,26
 872 137 872 137 947.5 223 c 128,-1,27
 1023 309 1023 309 1048 463 c 1,0,-1
EndSplineSet
Substitution2: "'ss06' Style Set 6 lookup 25 subtable" C.ss06
Substitution2: "'c2sc' Capitals to Small Capitals lookup 0 subtable" C.smcp
Position2: "'cpsp' Capital Spacing lookup 0 subtable" dx=36 dy=0 dh=72 dv=0
EndChar

StartChar: D
Encoding: 68 68 41
Width: 1344
GlyphClass: 2
Flags: W
AnchorPoint: "Anchor-5" 1344 1612 basechar 0
AnchorPoint: "Anchor-3" 1344 -407 basechar 0
AnchorPoint: "Anchor-2" 1344 1600 basechar 0
AnchorPoint: "Anchor-1" 613 10 basechar 0
AnchorPoint: "Anchor-0" 609 1612 basechar 0
LayerCount: 2
Fore
SplineSet
169 0 m 1,0,-1
 169 1456 l 1,1,-1
 581 1456 l 2,2,3
 868 1456 868 1456 1045.5 1271.5 c 128,-1,4
 1223 1087 1223 1087 1223 771 c 2,5,-1
 1223 684 l 2,6,7
 1223 368 1223 368 1044.5 184 c 128,-1,8
 866 0 866 0 563 0 c 2,9,-1
 169 0 l 1,0,-1
581 1298 m 2,10,-1
 362 1298 l 1,11,-1
 362 157 l 1,12,-1
 563 157 l 2,13,14
 796 157 796 157 914 301 c 128,-1,15
 1032 445 1032 445 1032 684 c 2,16,-1
 1032 773 l 2,17,18
 1032 1024 1032 1024 914 1161 c 128,-1,19
 796 1298 796 1298 581 1298 c 2,10,-1
EndSplineSet
Substitution2: "'ss06' Style Set 6 lookup 25 subtable" D.ss06
Substitution2: "'c2sc' Capitals to Small Capitals lookup 0 subtable" D.smcp
Position2: "'cpsp' Capital Spacing lookup 0 subtable" dx=36 dy=0 dh=72 dv=0
EndChar

StartChar: E
Encoding: 69 69 42
Width: 1164
GlyphClass: 2
Flags: W
AnchorPoint: "Anchor-5" 1164 1612 basechar 0
AnchorPoint: "Anchor-3" 1164 -407 basechar 0
AnchorPoint: "Anchor-2" 1164 1600 basechar 0
AnchorPoint: "Anchor-1" 619 10 basechar 0
AnchorPoint: "Anchor-0" 619 1612 basechar 0
LayerCount: 2
Fore
SplineSet
169 0 m 1,0,-1
 169 1456 l 1,1,-1
 1084 1456 l 1,2,-1
 1084 1298 l 1,3,-1
 362 1298 l 1,4,-1
 362 830 l 1,5,-1
 992 830 l 1,6,-1
 992 673 l 1,7,-1
 362 673 l 1,8,-1
 362 157 l 1,9,-1
 1094 157 l 1,10,-1
 1094 0 l 1,11,-1
 169 0 l 1,0,-1
EndSplineSet
Substitution2: "'unic' Unicase lookup 2 subtable" E.unic
Substitution2: "'c2sc' Capitals to Small Capitals lookup 0 subtable" E.smcp
Position2: "'cpsp' Capital Spacing lookup 0 subtable" dx=36 dy=0 dh=72 dv=0
EndChar

StartChar: F
Encoding: 70 70 43
Width: 1132
GlyphClass: 2
Flags: W
AnchorPoint: "Anchor-5" 1132 1612 basechar 0
AnchorPoint: "Anchor-3" 1132 -407 basechar 0
AnchorPoint: "Anchor-2" 1132 1600 basechar 0
AnchorPoint: "Anchor-1" 531 10 basechar 0
AnchorPoint: "Anchor-0" 619 1612 basechar 0
LayerCount: 2
Fore
SplineSet
169 0 m 1,0,-1
 169 1456 l 1,1,-1
 1071 1456 l 1,2,-1
 1071 1298 l 1,3,-1
 362 1298 l 1,4,-1
 362 801 l 1,5,-1
 972 801 l 1,6,-1
 972 643 l 1,7,-1
 362 643 l 1,8,-1
 362 0 l 1,9,-1
 169 0 l 1,0,-1
EndSplineSet
Substitution2: "'c2sc' Capitals to Small Capitals lookup 0 subtable" F.smcp
Position2: "'cpsp' Capital Spacing lookup 0 subtable" dx=36 dy=0 dh=72 dv=0
EndChar

StartChar: G
Encoding: 71 71 44
Width: 1395
GlyphClass: 2
Flags: W
AnchorPoint: "Anchor-5" 1395 1633 basechar 0
AnchorPoint: "Anchor-3" 1395 -407 basechar 0
AnchorPoint: "Anchor-2" 1395 1600 basechar 0
AnchorPoint: "Anchor-1" 730 -9 basechar 0
AnchorPoint: "Anchor-0" 672 1633 basechar 0
LayerCount: 2
Fore
SplineSet
1245 725 m 1,0,-1
 1245 192 l 1,1,2
 1204 132 1204 132 1089 56 c 128,-1,3
 974 -20 974 -20 730 -20 c 0,4,5
 464 -20 464 -20 293 162.5 c 128,-1,6
 122 345 122 345 122 672 c 2,7,-1
 122 785 l 2,8,9
 122 1110 122 1110 274 1293 c 128,-1,10
 426 1476 426 1476 708 1476 c 0,11,12
 958 1476 958 1476 1087.5 1350 c 128,-1,13
 1217 1224 1217 1224 1245 1030 c 1,14,-1
 1052 1030 l 1,15,16
 1032 1148 1032 1148 953.5 1233 c 128,-1,17
 875 1318 875 1318 708 1318 c 0,18,19
 506 1318 506 1318 411 1175 c 128,-1,20
 316 1032 316 1032 316 787 c 2,21,-1
 316 672 l 2,22,23
 316 420 316 420 430 278.5 c 128,-1,24
 544 137 544 137 731 137 c 0,25,26
 886 137 886 137 955 173.5 c 128,-1,27
 1024 210 1024 210 1053 243 c 1,28,-1
 1053 569 l 1,29,-1
 716 569 l 1,30,-1
 716 725 l 1,31,-1
 1245 725 l 1,0,-1
EndSplineSet
Substitution2: "'ss06' Style Set 6 lookup 25 subtable" G.ss06
Substitution2: "'c2sc' Capitals to Small Capitals lookup 0 subtable" G.smcp
Position2: "'cpsp' Capital Spacing lookup 0 subtable" dx=36 dy=0 dh=72 dv=0
EndChar

StartChar: H
Encoding: 72 72 45
Width: 1461
GlyphClass: 2
Flags: W
AnchorPoint: "Anchor-5" 1461 1612 basechar 0
AnchorPoint: "Anchor-3" 1461 -407 basechar 0
AnchorPoint: "Anchor-2" 1461 1600 basechar 0
AnchorPoint: "Anchor-1" 714 10 basechar 0
AnchorPoint: "Anchor-0" 712 1612 basechar 0
LayerCount: 2
Fore
SplineSet
1096 0 m 1,0,-1
 1096 673 l 1,1,-1
 362 673 l 1,2,-1
 362 0 l 1,3,-1
 169 0 l 1,4,-1
 169 1456 l 1,5,-1
 362 1456 l 1,6,-1
 362 830 l 1,7,-1
 1096 830 l 1,8,-1
 1096 1456 l 1,9,-1
 1288 1456 l 1,10,-1
 1288 0 l 1,11,-1
 1096 0 l 1,0,-1
EndSplineSet
Substitution2: "'c2sc' Capitals to Small Capitals lookup 0 subtable" H.smcp
Position2: "'cpsp' Capital Spacing lookup 0 subtable" dx=36 dy=0 dh=72 dv=0
EndChar

StartChar: I
Encoding: 73 73 46
Width: 557
GlyphClass: 2
Flags: W
AnchorPoint: "Anchor-5" 557 1612 basechar 0
AnchorPoint: "Anchor-3" 557 -407 basechar 0
AnchorPoint: "Anchor-2" 557 1600 basechar 0
AnchorPoint: "Anchor-1" 279 9 basechar 0
AnchorPoint: "Anchor-0" 279 1612 basechar 0
LayerCount: 2
Fore
SplineSet
376 1456 m 1,0,-1
 376 0 l 1,1,-1
 183 0 l 1,2,-1
 183 1456 l 1,3,-1
 376 1456 l 1,0,-1
EndSplineSet
Substitution2: "'c2sc' Capitals to Small Capitals lookup 0 subtable" I.smcp
Position2: "'cpsp' Capital Spacing lookup 0 subtable" dx=36 dy=0 dh=72 dv=0
EndChar

StartChar: J
Encoding: 74 74 47
Width: 1130
GlyphClass: 2
Flags: W
AnchorPoint: "Anchor-5" 1130 1599 basechar 0
AnchorPoint: "Anchor-3" 1130 -407 basechar 0
AnchorPoint: "Anchor-2" 1130 1600 basechar 0
AnchorPoint: "Anchor-1" 512 -10 basechar 0
AnchorPoint: "Anchor-0" 852 1599 basechar 0
LayerCount: 2
Fore
SplineSet
780 425 m 2,0,-1
 780 1456 l 1,1,-1
 972 1456 l 1,2,-1
 972 425 l 2,3,4
 972 209 972 209 842.5 94.5 c 128,-1,5
 713 -20 713 -20 513 -20 c 0,6,7
 312 -20 312 -20 182.5 84 c 128,-1,8
 53 188 53 188 53 403 c 1,9,-1
 246 403 l 1,10,11
 246 265 246 265 320.5 201 c 128,-1,12
 395 137 395 137 513 137 c 0,13,14
 627 137 627 137 703.5 210 c 128,-1,15
 780 283 780 283 780 425 c 2,0,-1
EndSplineSet
Substitution2: "'c2sc' Capitals to Small Capitals lookup 0 subtable" J.smcp
Position2: "'cpsp' Capital Spacing lookup 0 subtable" dx=36 dy=0 dh=72 dv=0
EndChar

StartChar: K
Encoding: 75 75 48
Width: 1285
GlyphClass: 2
Flags: W
AnchorPoint: "Anchor-5" 1285 1595 basechar 0
AnchorPoint: "Anchor-3" 1285 -407 basechar 0
AnchorPoint: "Anchor-2" 1285 1600 basechar 0
AnchorPoint: "Anchor-1" 660 90 basechar 0
AnchorPoint: "Anchor-0" 605 1595 basechar 0
LayerCount: 2
Fore
SplineSet
1055 0 m 1,0,-1
 540 678 l 1,1,-1
 362 493 l 1,2,-1
 362 0 l 1,3,-1
 169 0 l 1,4,-1
 169 1456 l 1,5,-1
 362 1456 l 1,6,-1
 362 738 l 1,7,-1
 520 912 l 1,8,-1
 1009 1456 l 1,9,-1
 1241 1456 l 1,10,-1
 669 813 l 1,11,-1
 1285 0 l 1,12,-1
 1055 0 l 1,0,-1
EndSplineSet
Substitution2: "'ss05' Style Set 5 lookup 24 subtable" K.alt2
Substitution2: "'ss04' Style Set 4 lookup 23 subtable" K.alt
Substitution2: "'salt' Stylistic Alternatives lookup 19 subtable" K.alt
Substitution2: "'c2sc' Capitals to Small Capitals lookup 0 subtable" K.smcp
Position2: "'cpsp' Capital Spacing lookup 0 subtable" dx=36 dy=0 dh=72 dv=0
EndChar

StartChar: L
Encoding: 76 76 49
Width: 1103
GlyphClass: 2
Flags: W
AnchorPoint: "Anchor-5" 1103 1596 basechar 0
AnchorPoint: "Anchor-3" 1103 -407 basechar 0
AnchorPoint: "Anchor-2" 1103 1600 basechar 0
AnchorPoint: "Anchor-1" 620 10 basechar 0
AnchorPoint: "Anchor-0" 264 1596 basechar 0
LayerCount: 2
Fore
SplineSet
1052 157 m 1,0,-1
 1052 0 l 1,1,-1
 169 0 l 1,2,-1
 169 1456 l 1,3,-1
 362 1456 l 1,4,-1
 362 157 l 1,5,-1
 1052 157 l 1,0,-1
EndSplineSet
Substitution2: "'c2sc' Capitals to Small Capitals lookup 0 subtable" L.smcp
Position2: "'cpsp' Capital Spacing lookup 0 subtable" dx=36 dy=0 dh=72 dv=0
EndChar

StartChar: M
Encoding: 77 77 50
Width: 1788
GlyphClass: 2
Flags: W
AnchorPoint: "Anchor-5" 1788 1601 basechar 0
AnchorPoint: "Anchor-3" 1788 -407 basechar 0
AnchorPoint: "Anchor-2" 1788 1600 basechar 0
AnchorPoint: "Anchor-1" 893 10 basechar 0
AnchorPoint: "Anchor-0" 890 1601 basechar 0
LayerCount: 2
Fore
SplineSet
894 269 m 1,0,-1
 1370 1456 l 1,1,-1
 1618 1456 l 1,2,-1
 1618 0 l 1,3,-1
 1426 0 l 1,4,-1
 1426 568 l 1,5,-1
 1445 1177 l 1,6,-1
 966 0 l 1,7,-1
 820 0 l 1,8,-1
 342 1179 l 1,9,-1
 361 568 l 1,10,-1
 361 0 l 1,11,-1
 169 0 l 1,12,-1
 169 1456 l 1,13,-1
 417 1456 l 1,14,-1
 894 269 l 1,0,-1
EndSplineSet
Substitution2: "'unic' Unicase lookup 2 subtable" M.unic
Substitution2: "'c2sc' Capitals to Small Capitals lookup 0 subtable" M.smcp
Position2: "'cpsp' Capital Spacing lookup 0 subtable" dx=36 dy=0 dh=72 dv=0
EndChar

StartChar: N
Encoding: 78 78 51
Width: 1461
GlyphClass: 2
Flags: W
AnchorPoint: "Anchor-5" 1461 1601 basechar 0
AnchorPoint: "Anchor-3" 1461 -407 basechar 0
AnchorPoint: "Anchor-2" 1461 1600 basechar 0
AnchorPoint: "Anchor-1" 720 10 basechar 0
AnchorPoint: "Anchor-0" 726 1601 basechar 0
LayerCount: 2
Fore
SplineSet
1289 1456 m 1,0,-1
 1289 0 l 1,1,-1
 1095 0 l 1,2,-1
 362 1123 l 1,3,-1
 362 0 l 1,4,-1
 169 0 l 1,5,-1
 169 1456 l 1,6,-1
 362 1456 l 1,7,-1
 1098 330 l 1,8,-1
 1098 1456 l 1,9,-1
 1289 1456 l 1,0,-1
EndSplineSet
Substitution2: "'unic' Unicase lookup 2 subtable" N.unic
Substitution2: "'c2sc' Capitals to Small Capitals lookup 0 subtable" N.smcp
Position2: "'cpsp' Capital Spacing lookup 0 subtable" dx=36 dy=0 dh=72 dv=0
EndChar

StartChar: O
Encoding: 79 79 52
Width: 1409
GlyphClass: 2
Flags: W
AnchorPoint: "Anchor-5" 1409 1603 basechar 0
AnchorPoint: "Anchor-3" 1409 -407 basechar 0
AnchorPoint: "Anchor-2" 1409 1600 basechar 0
AnchorPoint: "Anchor-1" 707 0 basechar 0
AnchorPoint: "Anchor-0" 707 1603 basechar 0
LayerCount: 2
Fore
SplineSet
1290 774 m 2,0,-1
 1290 682 l 2,1,2
 1290 354 1290 354 1131 167 c 128,-1,3
 972 -20 972 -20 706 -20 c 0,4,5
 447 -20 447 -20 283 167 c 128,-1,6
 119 354 119 354 119 682 c 2,7,-1
 119 774 l 2,8,9
 119 1101 119 1101 282 1288.5 c 128,-1,10
 445 1476 445 1476 704 1476 c 0,11,12
 970 1476 970 1476 1130 1288.5 c 128,-1,13
 1290 1101 1290 1101 1290 774 c 2,0,-1
1099 682 m 2,14,-1
 1099 776 l 2,15,16
 1099 1036 1099 1036 995 1174 c 128,-1,17
 891 1312 891 1312 704 1312 c 0,18,19
 525 1312 525 1312 417.5 1174 c 128,-1,20
 310 1036 310 1036 310 776 c 2,21,-1
 310 682 l 2,22,23
 310 420 310 420 418.5 281.5 c 128,-1,24
 527 143 527 143 706 143 c 0,25,26
 894 143 894 143 996.5 281.5 c 128,-1,27
 1099 420 1099 420 1099 682 c 2,14,-1
EndSplineSet
Substitution2: "'ss06' Style Set 6 lookup 25 subtable" O.ss06
Substitution2: "'c2sc' Capitals to Small Capitals lookup 0 subtable" O.smcp
Position2: "'cpsp' Capital Spacing lookup 0 subtable" dx=36 dy=0 dh=72 dv=0
EndChar

StartChar: P
Encoding: 80 80 53
Width: 1292
GlyphClass: 2
Flags: W
AnchorPoint: "Anchor-5" 1292 1612 basechar 0
AnchorPoint: "Anchor-3" 1292 -407 basechar 0
AnchorPoint: "Anchor-2" 1292 1600 basechar 0
AnchorPoint: "Anchor-1" 530 10 basechar 0
AnchorPoint: "Anchor-0" 606 1612 basechar 0
LayerCount: 2
Fore
SplineSet
706 571 m 2,0,-1
 362 571 l 1,1,-1
 362 0 l 1,2,-1
 169 0 l 1,3,-1
 169 1456 l 1,4,-1
 706 1456 l 2,5,6
 954 1456 954 1456 1085.5 1331 c 128,-1,7
 1217 1206 1217 1206 1217 1012 c 0,8,9
 1217 801 1217 801 1085.5 686 c 128,-1,10
 954 571 954 571 706 571 c 2,0,-1
362 1298 m 1,11,-1
 362 728 l 1,12,-1
 706 728 l 2,13,14
 876 728 876 728 950 807 c 128,-1,15
 1024 886 1024 886 1024 1010 c 0,16,17
 1024 1122 1024 1122 950 1210 c 128,-1,18
 876 1298 876 1298 706 1298 c 2,19,-1
 362 1298 l 1,11,-1
EndSplineSet
Substitution2: "'c2sc' Capitals to Small Capitals lookup 0 subtable" P.smcp
Position2: "'cpsp' Capital Spacing lookup 0 subtable" dx=36 dy=0 dh=72 dv=0
EndChar

StartChar: Q
Encoding: 81 81 54
Width: 1409
GlyphClass: 2
Flags: W
AnchorPoint: "Anchor-5" 1409 1600 basechar 0
AnchorPoint: "Anchor-3" 1409 -407 basechar 0
AnchorPoint: "Anchor-2" 1409 1600 basechar 0
AnchorPoint: "Anchor-1" 698 -10 basechar 0
AnchorPoint: "Anchor-0" 700 1600 basechar 0
LayerCount: 2
Fore
SplineSet
1286 -126 m 1,0,-1
 1156 -246 l 1,1,-1
 849 -2 l 1,2,3
 777 -20 777 -20 697 -20 c 0,4,5
 438 -20 438 -20 274 167 c 128,-1,6
 110 354 110 354 110 682 c 2,7,-1
 110 774 l 2,8,9
 110 1101 110 1101 273 1288.5 c 128,-1,10
 436 1476 436 1476 695 1476 c 0,11,12
 961 1476 961 1476 1121 1288.5 c 128,-1,13
 1281 1101 1281 1101 1281 774 c 2,14,-1
 1281 682 l 2,15,16
 1281 472 1281 472 1214 318.5 c 128,-1,17
 1147 165 1147 165 1027 79 c 1,18,-1
 1286 -126 l 1,0,-1
1090 682 m 2,19,-1
 1090 776 l 2,20,21
 1090 1036 1090 1036 986 1174 c 128,-1,22
 882 1312 882 1312 695 1312 c 0,23,24
 516 1312 516 1312 408.5 1174 c 128,-1,25
 301 1036 301 1036 301 776 c 2,26,-1
 301 682 l 2,27,28
 301 420 301 420 409.5 281.5 c 128,-1,29
 518 143 518 143 697 143 c 0,30,31
 885 143 885 143 987.5 281.5 c 128,-1,32
 1090 420 1090 420 1090 682 c 2,19,-1
EndSplineSet
Substitution2: "'ss06' Style Set 6 lookup 25 subtable" Q.ss06
Substitution2: "'c2sc' Capitals to Small Capitals lookup 0 subtable" Q.smcp
Position2: "'cpsp' Capital Spacing lookup 0 subtable" dx=36 dy=0 dh=72 dv=0
EndChar

StartChar: R
Encoding: 82 82 55
Width: 1262
GlyphClass: 2
Flags: W
AnchorPoint: "Anchor-5" 1262 1601 basechar 0
AnchorPoint: "Anchor-3" 1262 -407 basechar 0
AnchorPoint: "Anchor-2" 1262 1600 basechar 0
AnchorPoint: "Anchor-1" 611 10 basechar 0
AnchorPoint: "Anchor-0" 610 1601 basechar 0
LayerCount: 2
Fore
SplineSet
1020 0 m 1,0,-1
 704 590 l 1,1,-1
 362 590 l 1,2,-1
 362 0 l 1,3,-1
 169 0 l 1,4,-1
 169 1456 l 1,5,-1
 651 1456 l 2,6,7
 896 1456 896 1456 1028.5 1344 c 128,-1,8
 1161 1232 1161 1232 1161 1019 c 0,9,10
 1161 883 1161 883 1087.5 781.5 c 128,-1,11
 1014 680 1014 680 884 630 c 1,12,-1
 1226 12 l 1,13,-1
 1226 0 l 1,14,-1
 1020 0 l 1,0,-1
362 1298 m 1,15,-1
 362 747 l 1,16,-1
 657 747 l 2,17,18
 812 747 812 747 890.5 826.5 c 128,-1,19
 969 906 969 906 969 1019 c 0,20,21
 969 1145 969 1145 893.5 1221.5 c 128,-1,22
 818 1298 818 1298 651 1298 c 2,23,-1
 362 1298 l 1,15,-1
EndSplineSet
Substitution2: "'ss03' Style Set 3 lookup 22 subtable" R.alt
Substitution2: "'c2sc' Capitals to Small Capitals lookup 0 subtable" R.smcp
Position2: "'cpsp' Capital Spacing lookup 0 subtable" dx=36 dy=0 dh=72 dv=0
EndChar

StartChar: S
Encoding: 83 83 56
Width: 1216
GlyphClass: 2
Flags: W
AnchorPoint: "Anchor-5" 1216 1603 basechar 0
AnchorPoint: "Anchor-3" 1216 -407 basechar 0
AnchorPoint: "Anchor-2" 1216 1600 basechar 0
AnchorPoint: "Anchor-1" 628 -1 basechar 0
AnchorPoint: "Anchor-0" 622 1603 basechar 0
LayerCount: 2
Fore
SplineSet
945 368 m 0,0,1
 945 470 945 470 875 530 c 128,-1,2
 805 590 805 590 599 650 c 0,3,4
 383 713 383 713 255 811.5 c 128,-1,5
 127 910 127 910 127 1080 c 256,6,7
 127 1250 127 1250 262.5 1363 c 128,-1,8
 398 1476 398 1476 622 1476 c 0,9,10
 868 1476 868 1476 1001.5 1341 c 128,-1,11
 1135 1206 1135 1206 1135 1036 c 1,12,-1
 943 1036 l 1,13,14
 943 1158 943 1158 864 1238 c 128,-1,15
 785 1318 785 1318 622 1318 c 0,16,17
 468 1318 468 1318 394 1250.5 c 128,-1,18
 320 1183 320 1183 320 1082 c 0,19,20
 320 990 320 990 400.5 929 c 128,-1,21
 481 868 481 868 661 818 c 0,22,23
 908 748 908 748 1023.5 644 c 128,-1,24
 1139 540 1139 540 1139 370 c 0,25,26
 1139 192 1139 192 1000 86 c 128,-1,27
 861 -20 861 -20 631 -20 c 0,28,29
 497 -20 497 -20 370.5 30 c 128,-1,30
 244 80 244 80 162.5 178.5 c 128,-1,31
 81 277 81 277 81 422 c 1,32,-1
 273 422 l 1,33,34
 273 273 273 273 382 205 c 128,-1,35
 491 137 491 137 631 137 c 0,36,37
 782 137 782 137 863.5 199.5 c 128,-1,38
 945 262 945 262 945 368 c 0,0,1
EndSplineSet
Substitution2: "'c2sc' Capitals to Small Capitals lookup 0 subtable" S.smcp
Position2: "'cpsp' Capital Spacing lookup 0 subtable" dx=36 dy=0 dh=72 dv=0
EndChar

StartChar: T
Encoding: 84 84 57
Width: 1222
GlyphClass: 2
Flags: W
AnchorPoint: "Anchor-5" 1222 1600 basechar 0
AnchorPoint: "Anchor-3" 1222 -407 basechar 0
AnchorPoint: "Anchor-2" 1222 1600 basechar 0
AnchorPoint: "Anchor-1" 614 0 basechar 0
AnchorPoint: "Anchor-0" 612 1600 basechar 0
LayerCount: 2
Fore
SplineSet
50 1298 m 1,0,-1
 50 1456 l 1,1,-1
 1175 1456 l 1,2,-1
 1175 1298 l 1,3,-1
 707 1298 l 1,4,-1
 707 0 l 1,5,-1
 517 0 l 1,6,-1
 517 1298 l 1,7,-1
 50 1298 l 1,0,-1
EndSplineSet
Substitution2: "'c2sc' Capitals to Small Capitals lookup 0 subtable" T.smcp
Position2: "'cpsp' Capital Spacing lookup 0 subtable" dx=36 dy=0 dh=72 dv=0
EndChar

StartChar: U
Encoding: 85 85 58
Width: 1328
GlyphClass: 2
Flags: W
AnchorPoint: "Anchor-5" 1328 1601 basechar 0
AnchorPoint: "Anchor-3" 1328 -407 basechar 0
AnchorPoint: "Anchor-2" 1328 1600 basechar 0
AnchorPoint: "Anchor-1" 666 0 basechar 0
AnchorPoint: "Anchor-0" 667 1601 basechar 0
LayerCount: 2
Fore
SplineSet
1002 1456 m 1,0,-1
 1194 1456 l 1,1,-1
 1194 471 l 2,2,3
 1194 225 1194 225 1036 102.5 c 128,-1,4
 878 -20 878 -20 666 -20 c 0,5,6
 443 -20 443 -20 291.5 102.5 c 128,-1,7
 140 225 140 225 140 471 c 2,8,-1
 140 1456 l 1,9,-1
 331 1456 l 1,10,-1
 331 471 l 2,11,12
 331 300 331 300 423.5 218.5 c 128,-1,13
 516 137 516 137 666 137 c 0,14,15
 818 137 818 137 910 218.5 c 128,-1,16
 1002 300 1002 300 1002 471 c 2,17,-1
 1002 1456 l 1,0,-1
EndSplineSet
Substitution2: "'unic' Unicase lookup 2 subtable" U.unic
Substitution2: "'c2sc' Capitals to Small Capitals lookup 0 subtable" U.smcp
Position2: "'cpsp' Capital Spacing lookup 0 subtable" dx=36 dy=0 dh=72 dv=0
EndChar

StartChar: V
Encoding: 86 86 59
Width: 1304
GlyphClass: 2
Flags: W
AnchorPoint: "Anchor-5" 1304 1612 basechar 0
AnchorPoint: "Anchor-3" 1304 -407 basechar 0
AnchorPoint: "Anchor-2" 1304 1600 basechar 0
AnchorPoint: "Anchor-1" 655 10 basechar 0
AnchorPoint: "Anchor-0" 655 1612 basechar 0
LayerCount: 2
Fore
SplineSet
1277 1456 m 1,0,-1
 738 0 l 1,1,-1
 567 0 l 1,2,-1
 29 1456 l 1,3,-1
 238 1456 l 1,4,-1
 651 256 l 1,5,-1
 1068 1456 l 1,6,-1
 1277 1456 l 1,0,-1
EndSplineSet
Substitution2: "'c2sc' Capitals to Small Capitals lookup 0 subtable" V.smcp
Position2: "'cpsp' Capital Spacing lookup 0 subtable" dx=36 dy=0 dh=72 dv=0
EndChar

StartChar: W
Encoding: 87 87 60
Width: 1817
GlyphClass: 2
Flags: W
AnchorPoint: "Anchor-5" 1817 1601 basechar 0
AnchorPoint: "Anchor-3" 1817 -407 basechar 0
AnchorPoint: "Anchor-2" 1817 1600 basechar 0
AnchorPoint: "Anchor-1" 922 10 basechar 0
AnchorPoint: "Anchor-0" 924 1601 basechar 0
LayerCount: 2
Fore
SplineSet
1773 1456 m 1,0,-1
 1421 0 l 1,1,-1
 1246 0 l 1,2,-1
 946 1061 l 1,3,-1
 923 1172 l 1,4,-1
 900 1061 l 1,5,-1
 589 0 l 1,6,-1
 414 0 l 1,7,-1
 61 1456 l 1,8,-1
 253 1456 l 1,9,-1
 483 460 l 1,10,-1
 512 267 l 1,11,-1
 552 440 l 1,12,-1
 841 1456 l 1,13,-1
 1002 1456 l 1,14,-1
 1283 440 l 1,15,-1
 1324 263 l 1,16,-1
 1355 461 l 1,17,-1
 1580 1456 l 1,18,-1
 1773 1456 l 1,0,-1
EndSplineSet
Substitution2: "'c2sc' Capitals to Small Capitals lookup 0 subtable" W.smcp
Position2: "'cpsp' Capital Spacing lookup 0 subtable" dx=36 dy=0 dh=72 dv=0
EndChar

StartChar: X
Encoding: 88 88 61
Width: 1284
GlyphClass: 2
Flags: W
AnchorPoint: "Anchor-5" 1284 1612 basechar 0
AnchorPoint: "Anchor-3" 1284 -407 basechar 0
AnchorPoint: "Anchor-2" 1284 1600 basechar 0
AnchorPoint: "Anchor-1" 645 10 basechar 0
AnchorPoint: "Anchor-0" 653 1612 basechar 0
LayerCount: 2
Fore
SplineSet
294 1456 m 1,0,-1
 644 898 l 1,1,-1
 994 1456 l 1,2,-1
 1219 1456 l 1,3,-1
 759 735 l 1,4,-1
 1230 0 l 1,5,-1
 1003 0 l 1,6,-1
 644 569 l 1,7,-1
 285 0 l 1,8,-1
 58 0 l 1,9,-1
 529 735 l 1,10,-1
 69 1456 l 1,11,-1
 294 1456 l 1,0,-1
EndSplineSet
Substitution2: "'c2sc' Capitals to Small Capitals lookup 0 subtable" X.smcp
Position2: "'cpsp' Capital Spacing lookup 0 subtable" dx=36 dy=0 dh=72 dv=0
EndChar

StartChar: Y
Encoding: 89 89 62
Width: 1230
GlyphClass: 2
Flags: W
AnchorPoint: "Anchor-5" 1230 1600 basechar 0
AnchorPoint: "Anchor-3" 1230 -407 basechar 0
AnchorPoint: "Anchor-2" 1230 1600 basechar 0
AnchorPoint: "Anchor-1" 615 1 basechar 0
AnchorPoint: "Anchor-0" 618 1600 basechar 0
LayerCount: 2
Fore
SplineSet
236 1456 m 1,0,-1
 614 725 l 1,1,-1
 993 1456 l 1,2,-1
 1212 1456 l 1,3,-1
 710 544 l 1,4,-1
 710 0 l 1,5,-1
 517 0 l 1,6,-1
 517 544 l 1,7,-1
 15 1456 l 1,8,-1
 236 1456 l 1,0,-1
EndSplineSet
Substitution2: "'c2sc' Capitals to Small Capitals lookup 0 subtable" Y.smcp
Position2: "'cpsp' Capital Spacing lookup 0 subtable" dx=36 dy=0 dh=72 dv=0
EndChar

StartChar: Z
Encoding: 90 90 63
Width: 1227
GlyphClass: 2
Flags: W
AnchorPoint: "Anchor-5" 1227 1601 basechar 0
AnchorPoint: "Anchor-3" 1227 -407 basechar 0
AnchorPoint: "Anchor-2" 1227 1600 basechar 0
AnchorPoint: "Anchor-1" 613 10 basechar 0
AnchorPoint: "Anchor-0" 616 1601 basechar 0
LayerCount: 2
Fore
SplineSet
100 1298 m 1,0,-1
 100 1456 l 1,1,-1
 1114 1456 l 1,2,-1
 1114 1316 l 1,3,-1
 314 157 l 1,4,-1
 1146 157 l 1,5,-1
 1146 0 l 1,6,-1
 87 0 l 1,7,-1
 87 144 l 1,8,-1
 885 1298 l 1,9,-1
 100 1298 l 1,0,-1
EndSplineSet
Substitution2: "'c2sc' Capitals to Small Capitals lookup 0 subtable" Z.smcp
Position2: "'cpsp' Capital Spacing lookup 0 subtable" dx=36 dy=0 dh=72 dv=0
EndChar

StartChar: bracketleft
Encoding: 91 91 64
Width: 543
Flags: W
LayerCount: 2
Fore
SplineSet
523 1664 m 1,0,-1
 523 1512 l 1,1,-1
 332 1512 l 1,2,-1
 332 -160 l 1,3,-1
 523 -160 l 1,4,-1
 523 -312 l 1,5,-1
 147 -312 l 1,6,-1
 147 1664 l 1,7,-1
 523 1664 l 1,0,-1
EndSplineSet
EndChar

StartChar: backslash
Encoding: 92 92 65
Width: 841
Flags: W
LayerCount: 2
Fore
SplineSet
649 -125 m 1,0,-1
 41 1456 l 1,1,-1
 217 1456 l 1,2,-1
 825 -125 l 1,3,-1
 649 -125 l 1,0,-1
EndSplineSet
EndChar

StartChar: bracketright
Encoding: 93 93 66
Width: 543
Flags: W
LayerCount: 2
Fore
SplineSet
10 1512 m 1,0,-1
 10 1664 l 1,1,-1
 388 1664 l 1,2,-1
 388 -312 l 1,3,-1
 10 -312 l 1,4,-1
 10 -160 l 1,5,-1
 202 -160 l 1,6,-1
 202 1512 l 1,7,-1
 10 1512 l 1,0,-1
EndSplineSet
EndChar

StartChar: asciicircum
Encoding: 94 94 67
Width: 856
Flags: W
LayerCount: 2
Fore
SplineSet
64 729 m 1,0,-1
 363 1456 l 1,1,-1
 491 1456 l 1,2,-1
 789 729 l 1,3,-1
 617 729 l 1,4,-1
 427 1212 l 1,5,-1
 236 729 l 1,6,-1
 64 729 l 1,0,-1
EndSplineSet
EndChar

StartChar: underscore
Encoding: 95 95 68
Width: 924
Flags: W
LayerCount: 2
Fore
SplineSet
921 0 m 1,0,-1
 921 -152 l 1,1,-1
 4 -152 l 1,2,-1
 4 0 l 1,3,-1
 921 0 l 1,0,-1
EndSplineSet
EndChar

StartChar: grave
Encoding: 96 96 69
Width: 633
Flags: W
LayerCount: 2
Fore
SplineSet
281 1536 m 1,0,-1
 474 1242 l 1,1,-1
 315 1242 l 1,2,-1
 57 1536 l 1,3,-1
 281 1536 l 1,0,-1
EndSplineSet
EndChar

StartChar: a
Encoding: 97 97 70
Width: 1114
GlyphClass: 2
Flags: W
AnchorPoint: "Anchor-5" 1114 1290 basechar 0
AnchorPoint: "Anchor-4" 879 654 basechar 0
AnchorPoint: "Anchor-3" 1114 -407 basechar 0
AnchorPoint: "Anchor-2" 1114 1600 basechar 0
AnchorPoint: "Anchor-1" 502 0 basechar 0
AnchorPoint: "Anchor-0" 582 1290 basechar 0
LayerCount: 2
Fore
SplineSet
809 0 m 1,0,1
 791 39 791 39 783 114 c 1,2,3
 731 59 731 59 653 19.5 c 128,-1,4
 575 -20 575 -20 475 -20 c 0,5,6
 309 -20 309 -20 209 73 c 128,-1,7
 109 166 109 166 109 301 c 0,8,9
 109 475 109 475 241 565.5 c 128,-1,10
 373 656 373 656 596 656 c 2,11,-1
 779 656 l 1,12,-1
 779 742 l 2,13,14
 779 838 779 838 721.5 895.5 c 128,-1,15
 664 953 664 953 551 953 c 0,16,17
 446 953 446 953 381.5 901.5 c 128,-1,18
 317 850 317 850 317 782 c 1,19,-1
 132 782 l 1,20,21
 132 898 132 898 249 1000 c 128,-1,22
 366 1102 366 1102 562 1102 c 0,23,24
 738 1102 738 1102 851 1012 c 128,-1,25
 964 922 964 922 964 740 c 2,26,-1
 964 236 l 2,27,28
 964 182 964 182 973.5 121 c 128,-1,29
 983 60 983 60 1002 16 c 1,30,-1
 1002 0 l 1,31,-1
 809 0 l 1,0,1
502 142 m 0,32,33
 602 142 602 142 675.5 192 c 128,-1,34
 749 242 749 242 779 303 c 1,35,-1
 779 526 l 1,36,-1
 626 526 l 2,37,38
 295 526 295 526 295 326 c 0,39,40
 295 249 295 249 347 195.5 c 128,-1,41
 399 142 399 142 502 142 c 0,32,33
EndSplineSet
Substitution2: "'unic' Unicase lookup 2 subtable" A.unic
Substitution2: "'smcp' Lowercase to Small Capitals lookup 1 subtable" A.smcp
EndChar

StartChar: b
Encoding: 98 98 71
Width: 1150
GlyphClass: 2
Flags: W
AnchorPoint: "Anchor-5" 1150 1611 basechar 0
AnchorPoint: "Anchor-3" 1150 -407 basechar 0
AnchorPoint: "Anchor-2" 1150 1600 basechar 0
AnchorPoint: "Anchor-1" 598 -10 basechar 0
AnchorPoint: "Anchor-0" 634 1611 basechar 0
LayerCount: 2
Fore
SplineSet
1057 529 m 2,0,1
 1057 292 1057 292 947 136 c 128,-1,2
 837 -20 837 -20 636 -20 c 0,3,4
 431 -20 431 -20 320 125 c 1,5,-1
 310 0 l 1,6,-1
 140 0 l 1,7,-1
 140 1536 l 1,8,-1
 326 1536 l 1,9,-1
 326 965 l 1,10,11
 436 1102 436 1102 634 1102 c 0,12,13
 838 1102 838 1102 947.5 950 c 128,-1,14
 1057 798 1057 798 1057 550 c 2,15,-1
 1057 529 l 2,0,1
588 946 m 0,16,17
 487 946 487 946 424 897.5 c 128,-1,18
 361 849 361 849 326 778 c 1,19,-1
 326 307 l 1,20,21
 362 235 362 235 426 186 c 128,-1,22
 490 137 490 137 590 137 c 0,23,24
 740 137 740 137 805.5 252.5 c 128,-1,25
 871 368 871 368 871 529 c 2,26,-1
 871 550 l 2,27,28
 871 711 871 711 808.5 828.5 c 128,-1,29
 746 946 746 946 588 946 c 0,16,17
EndSplineSet
Substitution2: "'ss06' Style Set 6 lookup 25 subtable" b.ss06
Substitution2: "'unic' Unicase lookup 2 subtable" B
Substitution2: "'smcp' Lowercase to Small Capitals lookup 1 subtable" B.smcp
EndChar

StartChar: c
Encoding: 99 99 72
Width: 1072
GlyphClass: 2
Flags: W
AnchorPoint: "Anchor-5" 1072 1290 basechar 0
AnchorPoint: "Anchor-3" 1072 -407 basechar 0
AnchorPoint: "Anchor-2" 1072 1600 basechar 0
AnchorPoint: "Anchor-1" 533 -10 basechar 0
AnchorPoint: "Anchor-0" 533 1290 basechar 0
LayerCount: 2
Fore
SplineSet
574 132 m 0,0,1
 673 132 673 132 747.5 191 c 128,-1,2
 822 250 822 250 829 342 c 1,3,-1
 1005 342 l 1,4,5
 998 197 998 197 872 88.5 c 128,-1,6
 746 -20 746 -20 574 -20 c 0,7,8
 330 -20 330 -20 211.5 141 c 128,-1,9
 93 302 93 302 93 520 c 2,10,-1
 93 562 l 2,11,12
 93 780 93 780 211.5 941 c 128,-1,13
 330 1102 330 1102 574 1102 c 0,14,15
 764 1102 764 1102 881 989.5 c 128,-1,16
 998 877 998 877 1005 710 c 1,17,-1
 829 710 l 1,18,19
 822 810 822 810 753.5 880 c 128,-1,20
 685 950 685 950 574 950 c 0,21,22
 460 950 460 950 395.5 892 c 128,-1,23
 331 834 331 834 304.5 745 c 128,-1,24
 278 656 278 656 278 562 c 2,25,-1
 278 520 l 2,26,27
 278 425 278 425 304 336 c 128,-1,28
 330 247 330 247 394.5 189.5 c 128,-1,29
 459 132 459 132 574 132 c 0,0,1
EndSplineSet
Substitution2: "'ss06' Style Set 6 lookup 25 subtable" c.ss06
Substitution2: "'unic' Unicase lookup 2 subtable" C
Substitution2: "'smcp' Lowercase to Small Capitals lookup 1 subtable" C.smcp
EndChar

StartChar: d
Encoding: 100 100 73
Width: 1155
GlyphClass: 2
Flags: W
AnchorPoint: "Anchor-5" 1155 1612 basechar 0
AnchorPoint: "Anchor-3" 1155 -407 basechar 0
AnchorPoint: "Anchor-2" 1155 1600 basechar 0
AnchorPoint: "Anchor-1" 617 0 basechar 0
AnchorPoint: "Anchor-0" 549 1612 basechar 0
LayerCount: 2
Fore
SplineSet
839 0 m 1,0,-1
 830 116 l 1,1,2
 719 -20 719 -20 521 -20 c 0,3,4
 330 -20 330 -20 212.5 136 c 128,-1,5
 95 292 95 292 95 529 c 2,6,-1
 95 550 l 2,7,8
 95 798 95 798 212.5 950 c 128,-1,9
 330 1102 330 1102 523 1102 c 0,10,11
 714 1102 714 1102 823 974 c 1,12,-1
 823 1536 l 1,13,-1
 1009 1536 l 1,14,-1
 1009 0 l 1,15,-1
 839 0 l 1,0,-1
281 529 m 2,16,17
 281 368 281 368 349 252.5 c 128,-1,18
 417 137 417 137 567 137 c 0,19,20
 664 137 664 137 725 181 c 128,-1,21
 786 225 786 225 823 294 c 1,22,-1
 823 792 l 1,23,24
 787 859 787 859 725.5 902.5 c 128,-1,25
 664 946 664 946 569 946 c 0,26,27
 418 946 418 946 349.5 828.5 c 128,-1,28
 281 711 281 711 281 550 c 2,29,-1
 281 529 l 2,16,17
EndSplineSet
Substitution2: "'ss06' Style Set 6 lookup 25 subtable" d.ss06
Substitution2: "'unic' Unicase lookup 2 subtable" D
Substitution2: "'smcp' Lowercase to Small Capitals lookup 1 subtable" D.smcp
EndChar

StartChar: e
Encoding: 101 101 74
Width: 1086
GlyphClass: 2
Flags: W
AnchorPoint: "Anchor-5" 1086 1290 basechar 0
AnchorPoint: "Anchor-4" 912 654 basechar 0
AnchorPoint: "Anchor-3" 1086 -407 basechar 0
AnchorPoint: "Anchor-2" 1086 1600 basechar 0
AnchorPoint: "Anchor-1" 568 0 basechar 0
AnchorPoint: "Anchor-0" 565 1290 basechar 0
LayerCount: 2
Fore
SplineSet
997 189 m 1,0,1
 944 109 944 109 847 44.5 c 128,-1,2
 750 -20 750 -20 590 -20 c 0,3,4
 364 -20 364 -20 228.5 127 c 128,-1,5
 93 274 93 274 93 503 c 2,6,-1
 93 545 l 2,7,8
 93 722 93 722 160.5 846.5 c 128,-1,9
 228 971 228 971 336 1036.5 c 128,-1,10
 444 1102 444 1102 566 1102 c 0,11,12
 798 1102 798 1102 904.5 950.5 c 128,-1,13
 1011 799 1011 799 1011 572 c 2,14,-1
 1011 489 l 1,15,-1
 279 489 l 1,16,17
 283 340 283 340 367.5 235.5 c 128,-1,18
 452 131 452 131 600 131 c 0,19,20
 698 131 698 131 766 171 c 128,-1,21
 834 211 834 211 885 278 c 1,22,-1
 997 189 l 1,0,1
566 950 m 0,23,24
 456 950 456 950 380 870 c 128,-1,25
 304 790 304 790 285 640 c 1,26,-1
 826 640 l 1,27,-1
 826 654 l 1,28,29
 819 762 819 762 763.5 856 c 128,-1,30
 708 950 708 950 566 950 c 0,23,24
EndSplineSet
Substitution2: "'ss07' Style Set 7 lookup 26 subtable" e.ss07
Substitution2: "'unic' Unicase lookup 2 subtable" E.unic
Substitution2: "'smcp' Lowercase to Small Capitals lookup 1 subtable" E.smcp
EndChar

StartChar: f
Encoding: 102 102 75
Width: 712
GlyphClass: 2
Flags: W
AnchorPoint: "Anchor-5" 712 1754 basechar 0
AnchorPoint: "Anchor-3" 712 -407 basechar 0
AnchorPoint: "Anchor-2" 712 1600 basechar 0
AnchorPoint: "Anchor-1" 330 10 basechar 0
AnchorPoint: "Anchor-0" 502 1754 basechar 0
LayerCount: 2
Fore
SplineSet
647 940 m 1,0,-1
 417 940 l 1,1,-1
 417 0 l 1,2,-1
 232 0 l 1,3,-1
 232 940 l 1,4,-1
 61 940 l 1,5,-1
 61 1082 l 1,6,-1
 232 1082 l 1,7,-1
 232 1196 l 2,8,9
 232 1371 232 1371 326.5 1464 c 128,-1,10
 421 1557 421 1557 587 1557 c 0,11,12
 648 1557 648 1557 715 1541 c 1,13,-1
 705 1390 l 1,14,15
 663 1399 663 1399 605 1399 c 0,16,17
 417 1399 417 1399 417 1196 c 2,18,-1
 417 1082 l 1,19,-1
 647 1082 l 1,20,-1
 647 940 l 1,0,-1
EndSplineSet
Substitution2: "'unic' Unicase lookup 2 subtable" F
Substitution2: "'smcp' Lowercase to Small Capitals lookup 1 subtable" F.smcp
EndChar

StartChar: g
Encoding: 103 103 76
Width: 1150
GlyphClass: 2
Flags: W
AnchorPoint: "Anchor-5" 1150 1290 basechar 0
AnchorPoint: "Anchor-3" 1150 -407 basechar 0
AnchorPoint: "Anchor-2" 1150 1600 basechar 0
AnchorPoint: "Anchor-1" 554 -447 basechar 0
AnchorPoint: "Anchor-0" 556 1290 basechar 0
LayerCount: 2
Fore
SplineSet
1010 23 m 2,0,1
 1010 -192 1010 -192 882 -309.5 c 128,-1,2
 754 -427 754 -427 552 -427 c 0,3,4
 468 -427 468 -427 346 -386 c 128,-1,5
 224 -345 224 -345 151 -239 c 1,6,-1
 248 -129 l 1,7,8
 316 -212 316 -212 390 -243.5 c 128,-1,9
 464 -275 464 -275 538 -275 c 0,10,11
 669 -275 669 -275 747 -201.5 c 128,-1,12
 825 -128 825 -128 825 14 c 2,13,-1
 825 109 l 1,14,15
 715 -20 715 -20 522 -20 c 0,16,17
 327 -20 327 -20 212 136 c 128,-1,18
 97 292 97 292 97 529 c 2,19,-1
 97 550 l 2,20,21
 97 798 97 798 211.5 950 c 128,-1,22
 326 1102 326 1102 524 1102 c 0,23,24
 723 1102 723 1102 833 962 c 1,25,-1
 842 1082 l 1,26,-1
 1010 1082 l 1,27,-1
 1010 23 l 2,0,1
282 529 m 2,28,29
 282 368 282 368 349.5 252.5 c 128,-1,30
 417 137 417 137 567 137 c 0,31,32
 666 137 666 137 727.5 182 c 128,-1,33
 789 227 789 227 825 297 c 1,34,-1
 825 790 l 1,35,36
 790 857 790 857 728 901.5 c 128,-1,37
 666 946 666 946 569 946 c 0,38,39
 418 946 418 946 350 828.5 c 128,-1,40
 282 711 282 711 282 550 c 2,41,-1
 282 529 l 2,28,29
EndSplineSet
Substitution2: "'ss07' Style Set 7 lookup 26 subtable" g.ss07
Substitution2: "'ss06' Style Set 6 lookup 25 subtable" g.ss06
Substitution2: "'ss01' Style Set 1 lookup 20 subtable" g.alt
Substitution2: "'salt' Stylistic Alternatives lookup 19 subtable" g.alt
Substitution2: "'unic' Unicase lookup 2 subtable" G
Substitution2: "'smcp' Lowercase to Small Capitals lookup 1 subtable" G.smcp
EndChar

StartChar: h
Encoding: 104 104 77
Width: 1128
GlyphClass: 2
Flags: W
AnchorPoint: "Anchor-5" 1128 1611 basechar 0
AnchorPoint: "Anchor-3" 1128 -407 basechar 0
AnchorPoint: "Anchor-2" 1128 1600 basechar 0
AnchorPoint: "Anchor-1" 588 10 basechar 0
AnchorPoint: "Anchor-0" 501 1611 basechar 0
LayerCount: 2
Fore
SplineSet
590 946 m 0,0,1
 501 946 501 946 433 898 c 128,-1,2
 365 850 365 850 326 773 c 1,3,-1
 326 0 l 1,4,-1
 141 0 l 1,5,-1
 141 1536 l 1,6,-1
 326 1536 l 1,7,-1
 326 953 l 1,8,9
 449 1102 449 1102 645 1102 c 0,10,11
 805 1102 805 1102 898.5 1012 c 128,-1,12
 992 922 992 922 992 709 c 2,13,-1
 992 0 l 1,14,-1
 806 0 l 1,15,-1
 806 711 l 2,16,17
 806 838 806 838 750.5 892 c 128,-1,18
 695 946 695 946 590 946 c 0,0,1
EndSplineSet
Substitution2: "'unic' Unicase lookup 2 subtable" H
Substitution2: "'smcp' Lowercase to Small Capitals lookup 1 subtable" H.smcp
EndChar

StartChar: i
Encoding: 105 105 78
Width: 498
GlyphClass: 2
Flags: W
AnchorPoint: "Anchor-5" 498 1600 basechar 0
AnchorPoint: "Anchor-4" 277 654 basechar 0
AnchorPoint: "Anchor-3" 498 -407 basechar 0
AnchorPoint: "Anchor-2" 498 1600 basechar 0
AnchorPoint: "Anchor-1" 249 10 basechar 0
AnchorPoint: "Anchor-0" 251 1600 basechar 0
LayerCount: 2
Fore
SplineSet
142 1369 m 0,0,1
 142 1414 142 1414 169.5 1445 c 128,-1,2
 197 1476 197 1476 251 1476 c 0,3,4
 304 1476 304 1476 332.5 1445 c 128,-1,5
 361 1414 361 1414 361 1369 c 0,6,7
 361 1326 361 1326 332.5 1295.5 c 128,-1,8
 304 1265 304 1265 251 1265 c 0,9,10
 197 1265 197 1265 169.5 1295.5 c 128,-1,11
 142 1326 142 1326 142 1369 c 0,0,1
342 1082 m 1,12,-1
 342 0 l 1,13,-1
 156 0 l 1,14,-1
 156 1082 l 1,15,-1
 342 1082 l 1,12,-1
EndSplineSet
Substitution2: "Single Substitution lookup 5 subtable" uni0069.ccmp
Substitution2: "'unic' Unicase lookup 2 subtable" I
Substitution2: "'smcp' Lowercase to Small Capitals lookup 1 subtable" I.smcp
EndChar

StartChar: j
Encoding: 106 106 79
Width: 490
GlyphClass: 2
Flags: W
AnchorPoint: "Anchor-5" 490 1600 basechar 0
AnchorPoint: "Anchor-3" 490 -407 basechar 0
AnchorPoint: "Anchor-2" 490 1600 basechar 0
AnchorPoint: "Anchor-1" 190 -459 basechar 0
AnchorPoint: "Anchor-0" 223 1600 basechar 0
LayerCount: 2
Fore
SplineSet
127 1369 m 0,0,1
 127 1414 127 1414 155 1445 c 128,-1,2
 183 1476 183 1476 236 1476 c 0,3,4
 290 1476 290 1476 318 1445 c 128,-1,5
 346 1414 346 1414 346 1369 c 0,6,7
 346 1326 346 1326 318 1295.5 c 128,-1,8
 290 1265 290 1265 236 1265 c 0,9,10
 183 1265 183 1265 155 1295.5 c 128,-1,11
 127 1326 127 1326 127 1369 c 0,0,1
146 1082 m 1,12,-1
 332 1082 l 1,13,-1
 332 -129 l 2,14,15
 332 -437 332 -437 49 -437 c 0,16,17
 -13 -437 -13 -437 -66 -420 c 1,18,-1
 -65 -271 l 1,19,20
 -28 -280 -28 -280 20 -280 c 0,21,22
 81 -280 81 -280 113.5 -246 c 128,-1,23
 146 -212 146 -212 146 -129 c 2,24,-1
 146 1082 l 1,12,-1
EndSplineSet
Substitution2: "Single Substitution lookup 5 subtable" uni006A.ccmp
Substitution2: "'unic' Unicase lookup 2 subtable" J
Substitution2: "'smcp' Lowercase to Small Capitals lookup 1 subtable" J.smcp
EndChar

StartChar: k
Encoding: 107 107 80
Width: 1038
GlyphClass: 2
Flags: W
AnchorPoint: "Anchor-5" 908 1611 basechar 0
AnchorPoint: "Anchor-3" 1038 -407 basechar 0
AnchorPoint: "Anchor-2" 1038 1600 basechar 0
AnchorPoint: "Anchor-1" 529 71 basechar 0
AnchorPoint: "Anchor-0" 549 1611 basechar 0
LayerCount: 2
Fore
SplineSet
819 0 m 1,0,-1
 444 502 l 1,1,-1
 327 381 l 1,2,-1
 327 0 l 1,3,-1
 141 0 l 1,4,-1
 141 1536 l 1,5,-1
 327 1536 l 1,6,-1
 327 608 l 1,7,-1
 426 726 l 1,8,-1
 762 1082 l 1,9,-1
 988 1082 l 1,10,-1
 566 631 l 1,11,-1
 1037 0 l 1,12,-1
 819 0 l 1,0,-1
EndSplineSet
Substitution2: "'ss05' Style Set 5 lookup 24 subtable" k.alt2
Substitution2: "'ss04' Style Set 4 lookup 23 subtable" k.alt
Substitution2: "'unic' Unicase lookup 2 subtable" K
Substitution2: "'smcp' Lowercase to Small Capitals lookup 1 subtable" K.smcp
EndChar

StartChar: l
Encoding: 108 108 81
Width: 498
GlyphClass: 2
Flags: W
AnchorPoint: "Anchor-5" 498 1697 basechar 0
AnchorPoint: "Anchor-3" 498 -407 basechar 0
AnchorPoint: "Anchor-2" 498 1600 basechar 0
AnchorPoint: "Anchor-1" 249 10 basechar 0
AnchorPoint: "Anchor-0" 249 1697 basechar 0
LayerCount: 2
Fore
SplineSet
342 1536 m 1,0,-1
 342 0 l 1,1,-1
 156 0 l 1,2,-1
 156 1536 l 1,3,-1
 342 1536 l 1,0,-1
EndSplineSet
Substitution2: "'unic' Unicase lookup 2 subtable" L
Substitution2: "'smcp' Lowercase to Small Capitals lookup 1 subtable" L.smcp
EndChar

StartChar: m
Encoding: 109 109 82
Width: 1796
GlyphClass: 2
Flags: W
AnchorPoint: "Anchor-5" 1796 1290 basechar 0
AnchorPoint: "Anchor-3" 1796 -407 basechar 0
AnchorPoint: "Anchor-2" 1796 1600 basechar 0
AnchorPoint: "Anchor-1" 897 10 basechar 0
AnchorPoint: "Anchor-0" 911 1290 basechar 0
LayerCount: 2
Fore
SplineSet
574 946 m 0,0,1
 475 946 475 946 415 904 c 128,-1,2
 355 862 355 862 325 793 c 1,3,-1
 325 0 l 1,4,-1
 139 0 l 1,5,-1
 139 1082 l 1,6,-1
 315 1082 l 1,7,-1
 320 964 l 1,8,9
 437 1102 437 1102 640 1102 c 0,10,11
 744 1102 744 1102 825.5 1060.5 c 128,-1,12
 907 1019 907 1019 950 928 c 1,13,14
 1004 1006 1004 1006 1090.5 1054 c 128,-1,15
 1177 1102 1177 1102 1294 1102 c 0,16,17
 1468 1102 1468 1102 1562.5 1009 c 128,-1,18
 1657 916 1657 916 1657 711 c 2,19,-1
 1657 0 l 1,20,-1
 1471 0 l 1,21,-1
 1471 713 l 2,22,23
 1471 849 1471 849 1408.5 897.5 c 128,-1,24
 1346 946 1346 946 1240 946 c 0,25,26
 1128 946 1128 946 1064 879.5 c 128,-1,27
 1000 813 1000 813 990 718 c 1,28,-1
 990 0 l 1,29,-1
 805 0 l 1,30,-1
 805 712 l 2,31,32
 805 839 805 839 742 892.5 c 128,-1,33
 679 946 679 946 574 946 c 0,0,1
EndSplineSet
Substitution2: "'unic' Unicase lookup 2 subtable" M.unic
Substitution2: "'smcp' Lowercase to Small Capitals lookup 1 subtable" M.smcp
EndChar

StartChar: n
Encoding: 110 110 83
Width: 1131
GlyphClass: 2
Flags: W
AnchorPoint: "Anchor-5" 1131 1290 basechar 0
AnchorPoint: "Anchor-3" 1131 -407 basechar 0
AnchorPoint: "Anchor-2" 1131 1600 basechar 0
AnchorPoint: "Anchor-1" 563 10 basechar 0
AnchorPoint: "Anchor-0" 573 1290 basechar 0
LayerCount: 2
Fore
SplineSet
590 946 m 0,0,1
 501 946 501 946 433 898 c 128,-1,2
 365 850 365 850 326 773 c 1,3,-1
 326 0 l 1,4,-1
 141 0 l 1,5,-1
 141 1082 l 1,6,-1
 316 1082 l 1,7,-1
 322 947 l 1,8,9
 445 1102 445 1102 645 1102 c 0,10,11
 805 1102 805 1102 898.5 1012 c 128,-1,12
 992 922 992 922 992 709 c 2,13,-1
 992 0 l 1,14,-1
 806 0 l 1,15,-1
 806 711 l 2,16,17
 806 838 806 838 750.5 892 c 128,-1,18
 695 946 695 946 590 946 c 0,0,1
EndSplineSet
Substitution2: "'unic' Unicase lookup 2 subtable" N.unic
Substitution2: "'smcp' Lowercase to Small Capitals lookup 1 subtable" N.smcp
EndChar

StartChar: o
Encoding: 111 111 84
Width: 1168
GlyphClass: 2
Flags: W
AnchorPoint: "Anchor-5" 1168 1290 basechar 0
AnchorPoint: "Anchor-4" 994 654 basechar 0
AnchorPoint: "Anchor-3" 1168 -407 basechar 0
AnchorPoint: "Anchor-2" 1168 1600 basechar 0
AnchorPoint: "Anchor-1" 584 -1 basechar 0
AnchorPoint: "Anchor-0" 575 1290 basechar 0
LayerCount: 2
Fore
SplineSet
92 529 m 2,0,-1
 92 552 l 2,1,2
 92 787 92 787 224 944.5 c 128,-1,3
 356 1102 356 1102 583 1102 c 0,4,5
 812 1102 812 1102 944.5 944.5 c 128,-1,6
 1077 787 1077 787 1077 552 c 2,7,-1
 1077 529 l 2,8,9
 1077 294 1077 294 944.5 137 c 128,-1,10
 812 -20 812 -20 585 -20 c 0,11,12
 357 -20 357 -20 224.5 137 c 128,-1,13
 92 294 92 294 92 529 c 2,0,-1
277 552 m 2,14,-1
 277 529 l 2,15,16
 277 368 277 368 353.5 250 c 128,-1,17
 430 132 430 132 585 132 c 0,18,19
 737 132 737 132 814 250 c 128,-1,20
 891 368 891 368 891 529 c 2,21,-1
 891 552 l 2,22,23
 891 711 891 711 814 830.5 c 128,-1,24
 737 950 737 950 583 950 c 0,25,26
 430 950 430 950 353.5 830.5 c 128,-1,27
 277 711 277 711 277 552 c 2,14,-1
EndSplineSet
Substitution2: "'ss06' Style Set 6 lookup 25 subtable" o.ss06
Substitution2: "'unic' Unicase lookup 2 subtable" O
Substitution2: "'smcp' Lowercase to Small Capitals lookup 1 subtable" O.smcp
EndChar

StartChar: p
Encoding: 112 112 85
Width: 1150
GlyphClass: 2
Flags: W
AnchorPoint: "Anchor-5" 1150 1280 basechar 0
AnchorPoint: "Anchor-3" 1150 -407 basechar 0
AnchorPoint: "Anchor-2" 1150 1600 basechar 0
AnchorPoint: "Anchor-1" 231 -407 basechar 0
AnchorPoint: "Anchor-0" 629 1280 basechar 0
LayerCount: 2
Fore
SplineSet
635 -20 m 0,0,1
 440 -20 440 -20 326 105 c 1,2,-1
 326 -416 l 1,3,-1
 140 -416 l 1,4,-1
 140 1082 l 1,5,-1
 310 1082 l 1,6,-1
 319 963 l 1,7,8
 433 1102 433 1102 632 1102 c 0,9,10
 837 1102 837 1102 946 950 c 128,-1,11
 1055 798 1055 798 1055 550 c 2,12,-1
 1055 529 l 2,13,14
 1055 292 1055 292 945.5 136 c 128,-1,15
 836 -20 836 -20 635 -20 c 0,0,1
578 946 m 0,16,17
 484 946 484 946 423 903.5 c 128,-1,18
 362 861 362 861 326 797 c 1,19,-1
 326 279 l 1,20,21
 363 215 363 215 423.5 173.5 c 128,-1,22
 484 132 484 132 580 132 c 0,23,24
 730 132 730 132 799.5 250 c 128,-1,25
 869 368 869 368 869 529 c 2,26,-1
 869 550 l 2,27,28
 869 711 869 711 799.5 828.5 c 128,-1,29
 730 946 730 946 578 946 c 0,16,17
EndSplineSet
Substitution2: "'ss06' Style Set 6 lookup 25 subtable" p.ss06
Substitution2: "'unic' Unicase lookup 2 subtable" P
Substitution2: "'smcp' Lowercase to Small Capitals lookup 1 subtable" P.smcp
EndChar

StartChar: q
Encoding: 113 113 86
Width: 1164
GlyphClass: 2
Flags: W
AnchorPoint: "Anchor-5" 1164 1290 basechar 0
AnchorPoint: "Anchor-3" 1164 -407 basechar 0
AnchorPoint: "Anchor-2" 1164 1600 basechar 0
AnchorPoint: "Anchor-1" 916 -407 basechar 0
AnchorPoint: "Anchor-0" 537 1290 basechar 0
LayerCount: 2
Fore
SplineSet
1008 1082 m 1,0,-1
 1008 -416 l 1,1,-1
 822 -416 l 1,2,-1
 822 100 l 1,3,4
 711 -20 711 -20 524 -20 c 0,5,6
 324 -20 324 -20 209.5 136 c 128,-1,7
 95 292 95 292 95 529 c 2,8,-1
 95 550 l 2,9,10
 95 798 95 798 209 950 c 128,-1,11
 323 1102 323 1102 526 1102 c 0,12,13
 718 1102 718 1102 830 973 c 1,14,-1
 838 1082 l 1,15,-1
 1008 1082 l 1,0,-1
281 529 m 2,16,17
 281 368 281 368 350.5 250 c 128,-1,18
 420 132 420 132 570 132 c 0,19,20
 662 132 662 132 723 173 c 128,-1,21
 784 214 784 214 822 277 c 1,22,-1
 822 808 l 1,23,24
 784 870 784 870 723 910 c 128,-1,25
 662 950 662 950 572 950 c 0,26,27
 420 950 420 950 350.5 830.5 c 128,-1,28
 281 711 281 711 281 550 c 2,29,-1
 281 529 l 2,16,17
EndSplineSet
Substitution2: "'ss06' Style Set 6 lookup 25 subtable" q.ss06
Substitution2: "'unic' Unicase lookup 2 subtable" Q
Substitution2: "'smcp' Lowercase to Small Capitals lookup 1 subtable" Q.smcp
EndChar

StartChar: r
Encoding: 114 114 87
Width: 694
GlyphClass: 2
Flags: W
AnchorPoint: "Anchor-5" 694 1290 basechar 0
AnchorPoint: "Anchor-3" 694 -407 basechar 0
AnchorPoint: "Anchor-2" 694 1600 basechar 0
AnchorPoint: "Anchor-1" 246 11 basechar 0
AnchorPoint: "Anchor-0" 408 1290 basechar 0
LayerCount: 2
Fore
SplineSet
573 924 m 0,0,1
 478 924 478 924 417 881.5 c 128,-1,2
 356 839 356 839 326 768 c 1,3,-1
 326 0 l 1,4,-1
 141 0 l 1,5,-1
 141 1082 l 1,6,-1
 321 1082 l 1,7,-1
 325 958 l 1,8,9
 366 1024 366 1024 429.5 1063 c 128,-1,10
 493 1102 493 1102 582 1102 c 0,11,12
 634 1102 634 1102 664 1088 c 1,13,-1
 663 916 l 1,14,15
 622 924 622 924 573 924 c 0,0,1
EndSplineSet
Substitution2: "'unic' Unicase lookup 2 subtable" R
Substitution2: "'smcp' Lowercase to Small Capitals lookup 1 subtable" R.smcp
EndChar

StartChar: s
Encoding: 115 115 88
Width: 1057
GlyphClass: 2
Flags: W
AnchorPoint: "Anchor-5" 1057 1290 basechar 0
AnchorPoint: "Anchor-3" 1057 -407 basechar 0
AnchorPoint: "Anchor-2" 1057 1600 basechar 0
AnchorPoint: "Anchor-1" 562 -10 basechar 0
AnchorPoint: "Anchor-0" 562 1290 basechar 0
LayerCount: 2
Fore
SplineSet
771 287 m 0,0,1
 771 347 771 347 726.5 394.5 c 128,-1,2
 682 442 682 442 522 474 c 0,3,4
 341 512 341 512 236.5 582 c 128,-1,5
 132 652 132 652 132 786 c 0,6,7
 132 914 132 914 241.5 1008 c 128,-1,8
 351 1102 351 1102 533 1102 c 0,9,10
 727 1102 727 1102 836 1003 c 128,-1,11
 945 904 945 904 945 764 c 1,12,-1
 760 764 l 1,13,14
 760 831 760 831 701 890.5 c 128,-1,15
 642 950 642 950 533 950 c 0,16,17
 418 950 418 950 368 900 c 128,-1,18
 318 850 318 850 318 791 c 0,19,20
 318 731 318 731 366 694.5 c 128,-1,21
 414 658 414 658 567 624 c 0,22,23
 766 578 766 578 861 505 c 128,-1,24
 956 432 956 432 956 301 c 0,25,26
 956 158 956 158 841.5 69 c 128,-1,27
 727 -20 727 -20 538 -20 c 0,28,29
 323 -20 323 -20 209 90 c 128,-1,30
 95 200 95 200 95 334 c 1,31,-1
 281 334 l 1,32,33
 287 219 287 219 369.5 175.5 c 128,-1,34
 452 132 452 132 538 132 c 0,35,36
 651 132 651 132 711 176 c 128,-1,37
 771 220 771 220 771 287 c 0,0,1
EndSplineSet
Substitution2: "'unic' Unicase lookup 2 subtable" S
Substitution2: "'smcp' Lowercase to Small Capitals lookup 1 subtable" S.smcp
EndChar

StartChar: t
Encoding: 116 116 89
Width: 670
GlyphClass: 2
Flags: W
AnchorPoint: "Anchor-5" 670 1481 basechar 0
AnchorPoint: "Anchor-3" 670 -407 basechar 0
AnchorPoint: "Anchor-2" 670 1600 basechar 0
AnchorPoint: "Anchor-1" 453 0 basechar 0
AnchorPoint: "Anchor-0" 312 1481 basechar 0
LayerCount: 2
Fore
SplineSet
599 0 m 1,0,1
 577 -7 577 -7 541.5 -13.5 c 128,-1,2
 506 -20 506 -20 456 -20 c 0,3,4
 353 -20 353 -20 280 43 c 128,-1,5
 207 106 207 106 207 269 c 2,6,-1
 207 940 l 1,7,-1
 9 940 l 1,8,-1
 9 1082 l 1,9,-1
 207 1082 l 1,10,-1
 207 1345 l 1,11,-1
 392 1345 l 1,12,-1
 392 1082 l 1,13,-1
 594 1082 l 1,14,-1
 594 940 l 1,15,-1
 392 940 l 1,16,-1
 392 268 l 2,17,18
 392 185 392 185 428 162 c 128,-1,19
 464 139 464 139 511 139 c 0,20,21
 534 139 534 139 559.5 143.5 c 128,-1,22
 585 148 585 148 598 151 c 1,23,-1
 599 0 l 1,0,1
EndSplineSet
Substitution2: "'unic' Unicase lookup 2 subtable" T
Substitution2: "'smcp' Lowercase to Small Capitals lookup 1 subtable" T.smcp
EndChar

StartChar: u
Encoding: 117 117 90
Width: 1129
GlyphClass: 2
Flags: W
AnchorPoint: "Anchor-5" 1129 1290 basechar 0
AnchorPoint: "Anchor-4" 920 654 basechar 0
AnchorPoint: "Anchor-3" 1129 -407 basechar 0
AnchorPoint: "Anchor-2" 1129 1600 basechar 0
AnchorPoint: "Anchor-1" 563 0 basechar 0
AnchorPoint: "Anchor-0" 567 1290 basechar 0
LayerCount: 2
Fore
SplineSet
812 0 m 1,0,-1
 808 107 l 1,1,2
 758 47 758 47 680 13.5 c 128,-1,3
 602 -20 602 -20 492 -20 c 0,4,5
 333 -20 333 -20 235 74 c 128,-1,6
 137 168 137 168 137 384 c 2,7,-1
 137 1082 l 1,8,-1
 322 1082 l 1,9,-1
 322 382 l 2,10,11
 322 236 322 236 383.5 186.5 c 128,-1,12
 445 137 445 137 521 137 c 0,13,14
 634 137 634 137 702 180 c 128,-1,15
 770 223 770 223 803 294 c 1,16,-1
 803 1082 l 1,17,-1
 989 1082 l 1,18,-1
 989 0 l 1,19,-1
 812 0 l 1,0,-1
EndSplineSet
Substitution2: "'unic' Unicase lookup 2 subtable" U.unic
Substitution2: "'smcp' Lowercase to Small Capitals lookup 1 subtable" U.smcp
EndChar

StartChar: v
Encoding: 118 118 91
Width: 992
GlyphClass: 2
Flags: W
AnchorPoint: "Anchor-5" 992 1280 basechar 0
AnchorPoint: "Anchor-3" 992 -407 basechar 0
AnchorPoint: "Anchor-2" 992 1600 basechar 0
AnchorPoint: "Anchor-1" 504 10 basechar 0
AnchorPoint: "Anchor-0" 505 1280 basechar 0
LayerCount: 2
Fore
SplineSet
955 1082 m 1,0,-1
 566 0 l 1,1,-1
 425 0 l 1,2,-1
 33 1082 l 1,3,-1
 223 1082 l 1,4,-1
 498 253 l 1,5,-1
 766 1082 l 1,6,-1
 955 1082 l 1,0,-1
EndSplineSet
Substitution2: "'unic' Unicase lookup 2 subtable" V
Substitution2: "'smcp' Lowercase to Small Capitals lookup 1 subtable" V.smcp
EndChar

StartChar: w
Encoding: 119 119 92
Width: 1539
GlyphClass: 2
Flags: W
AnchorPoint: "Anchor-5" 1539 1290 basechar 0
AnchorPoint: "Anchor-3" 1539 -407 basechar 0
AnchorPoint: "Anchor-2" 1539 1600 basechar 0
AnchorPoint: "Anchor-1" 766 10 basechar 0
AnchorPoint: "Anchor-0" 763 1290 basechar 0
LayerCount: 2
Fore
SplineSet
1491 1082 m 1,0,-1
 1177 0 l 1,1,-1
 1027 0 l 1,2,-1
 764 819 l 1,3,-1
 508 0 l 1,4,-1
 357 0 l 1,5,-1
 43 1082 l 1,6,-1
 228 1082 l 1,7,-1
 441 274 l 1,8,-1
 693 1082 l 1,9,-1
 842 1082 l 1,10,-1
 1098 257 l 1,11,-1
 1307 1082 l 1,12,-1
 1491 1082 l 1,0,-1
EndSplineSet
Substitution2: "'unic' Unicase lookup 2 subtable" W
Substitution2: "'smcp' Lowercase to Small Capitals lookup 1 subtable" W.smcp
EndChar

StartChar: x
Encoding: 120 120 93
Width: 1016
GlyphClass: 2
Flags: W
AnchorPoint: "Anchor-5" 1016 1280 basechar 0
AnchorPoint: "Anchor-3" 1016 -407 basechar 0
AnchorPoint: "Anchor-2" 1016 1600 basechar 0
AnchorPoint: "Anchor-1" 511 10 basechar 0
AnchorPoint: "Anchor-0" 508 1280 basechar 0
LayerCount: 2
Fore
SplineSet
266 1082 m 1,0,-1
 503 688 l 1,1,-1
 743 1082 l 1,2,-1
 960 1082 l 1,3,-1
 606 548 l 1,4,-1
 971 0 l 1,5,-1
 757 0 l 1,6,-1
 507 406 l 1,7,-1
 257 0 l 1,8,-1
 42 0 l 1,9,-1
 406 548 l 1,10,-1
 53 1082 l 1,11,-1
 266 1082 l 1,0,-1
EndSplineSet
Substitution2: "'unic' Unicase lookup 2 subtable" X
Substitution2: "'smcp' Lowercase to Small Capitals lookup 1 subtable" X.smcp
EndChar

StartChar: y
Encoding: 121 121 94
Width: 969
GlyphClass: 2
Flags: W
AnchorPoint: "Anchor-5" 969 1290 basechar 0
AnchorPoint: "Anchor-4" 738 654 basechar 0
AnchorPoint: "Anchor-3" 969 -407 basechar 0
AnchorPoint: "Anchor-2" 969 1600 basechar 0
AnchorPoint: "Anchor-1" 712 -158 basechar 0
AnchorPoint: "Anchor-0" 508 1290 basechar 0
LayerCount: 2
Fore
SplineSet
510 -167 m 2,0,1
 490 -220 490 -220 452 -283.5 c 128,-1,2
 414 -347 414 -347 350.5 -392 c 128,-1,3
 287 -437 287 -437 189 -437 c 0,4,5
 166 -437 166 -437 132.5 -431.5 c 128,-1,6
 99 -426 99 -426 85 -421 c 1,7,-1
 84 -271 l 1,8,9
 106 -275 106 -275 134 -275 c 0,10,11
 228 -275 228 -275 281 -236.5 c 128,-1,12
 334 -198 334 -198 368 -98 c 2,13,-1
 408 12 l 1,14,-1
 22 1082 l 1,15,-1
 224 1082 l 1,16,-1
 495 272 l 1,17,-1
 746 1082 l 1,18,-1
 944 1082 l 1,19,-1
 510 -167 l 2,0,1
EndSplineSet
Substitution2: "'unic' Unicase lookup 2 subtable" Y
Substitution2: "'smcp' Lowercase to Small Capitals lookup 1 subtable" Y.smcp
EndChar

StartChar: z
Encoding: 122 122 95
Width: 1016
GlyphClass: 2
Flags: W
AnchorPoint: "Anchor-5" 1016 1290 basechar 0
AnchorPoint: "Anchor-3" 1016 -407 basechar 0
AnchorPoint: "Anchor-2" 1016 1600 basechar 0
AnchorPoint: "Anchor-1" 526 10 basechar 0
AnchorPoint: "Anchor-0" 515 1290 basechar 0
LayerCount: 2
Fore
SplineSet
97 929 m 1,0,-1
 97 1082 l 1,1,-1
 918 1082 l 1,2,-1
 918 951 l 1,3,-1
 316 152 l 1,4,-1
 947 152 l 1,5,-1
 947 0 l 1,6,-1
 89 0 l 1,7,-1
 89 136 l 1,8,-1
 685 929 l 1,9,-1
 97 929 l 1,0,-1
EndSplineSet
Substitution2: "'unic' Unicase lookup 2 subtable" Z
Substitution2: "'smcp' Lowercase to Small Capitals lookup 1 subtable" Z.smcp
EndChar

StartChar: braceleft
Encoding: 123 123 96
Width: 693
Flags: W
LayerCount: 2
Fore
SplineSet
276 305 m 2,0,1
 276 414 276 414 226 478.5 c 128,-1,2
 176 543 176 543 64 543 c 1,3,-1
 64 688 l 1,4,5
 176 688 176 688 226 752 c 128,-1,6
 276 816 276 816 276 925 c 2,7,-1
 276 1132 l 2,8,9
 276 1290 276 1290 352 1414.5 c 128,-1,10
 428 1539 428 1539 632 1597 c 1,11,-1
 671 1483 l 1,12,13
 552 1446 552 1446 507 1350.5 c 128,-1,14
 462 1255 462 1255 462 1132 c 2,15,-1
 462 925 l 2,16,17
 462 825 462 825 422 743.5 c 128,-1,18
 382 662 382 662 295 615 c 1,19,20
 382 569 382 569 422 487 c 128,-1,21
 462 405 462 405 462 305 c 2,22,-1
 462 99 l 2,23,24
 462 -24 462 -24 507 -119 c 128,-1,25
 552 -214 552 -214 671 -251 c 1,26,-1
 632 -366 l 1,27,28
 428 -308 428 -308 352 -183 c 128,-1,29
 276 -58 276 -58 276 99 c 2,30,-1
 276 305 l 2,0,1
EndSplineSet
EndChar

StartChar: bar
Encoding: 124 124 97
Width: 500
Flags: W
LayerCount: 2
Fore
SplineSet
325 1456 m 1,0,-1
 325 -270 l 1,1,-1
 176 -270 l 1,2,-1
 176 1456 l 1,3,-1
 325 1456 l 1,0,-1
EndSplineSet
EndChar

StartChar: braceright
Encoding: 125 125 98
Width: 693
Flags: W
LayerCount: 2
Fore
SplineSet
415 925 m 2,0,1
 415 816 415 816 464.5 752 c 128,-1,2
 514 688 514 688 627 688 c 1,3,-1
 627 543 l 1,4,5
 514 543 514 543 464.5 478.5 c 128,-1,6
 415 414 415 414 415 305 c 2,7,-1
 415 99 l 2,8,9
 415 -58 415 -58 339.5 -183 c 128,-1,10
 264 -308 264 -308 59 -366 c 1,11,-1
 20 -251 l 1,12,13
 138 -214 138 -214 183.5 -119 c 128,-1,14
 229 -24 229 -24 229 99 c 2,15,-1
 229 305 l 2,16,17
 229 410 229 410 272.5 491 c 128,-1,18
 316 572 316 572 411 615 c 1,19,20
 316 658 316 658 272.5 739.5 c 128,-1,21
 229 821 229 821 229 925 c 2,22,-1
 229 1132 l 2,23,24
 229 1255 229 1255 184 1350.5 c 128,-1,25
 139 1446 139 1446 20 1483 c 1,26,-1
 59 1597 l 1,27,28
 264 1539 264 1539 339.5 1414.5 c 128,-1,29
 415 1290 415 1290 415 1132 c 2,30,-1
 415 925 l 2,0,1
EndSplineSet
EndChar

StartChar: asciitilde
Encoding: 126 126 99
Width: 1393
Flags: W
LayerCount: 2
Fore
SplineSet
1111 777 m 1,0,-1
 1263 778 l 1,1,2
 1263 624 1263 624 1172.5 513.5 c 128,-1,3
 1082 403 1082 403 939 403 c 0,4,5
 852 403 852 403 785.5 438 c 128,-1,6
 719 473 719 473 641 541 c 0,7,8
 590 588 590 588 547 614 c 128,-1,9
 504 640 504 640 454 640 c 0,10,11
 378 640 378 640 335 586 c 128,-1,12
 292 532 292 532 292 438 c 1,13,-1
 131 436 l 1,14,15
 131 593 131 593 221.5 698 c 128,-1,16
 312 803 312 803 454 803 c 0,17,18
 542 803 542 803 610 766 c 128,-1,19
 678 729 678 729 752 664 c 0,20,21
 807 614 807 614 848.5 589.5 c 128,-1,22
 890 565 890 565 939 565 c 0,23,24
 1016 565 1016 565 1063.5 624 c 128,-1,25
 1111 683 1111 683 1111 777 c 1,0,-1
EndSplineSet
EndChar

StartChar: exclamdown
Encoding: 161 161 100
Width: 500
Flags: W
LayerCount: 2
Fore
SplineSet
358 996 m 256,0,1
 358 952 358 952 330.5 921 c 128,-1,2
 303 890 303 890 249 890 c 0,3,4
 196 890 196 890 167.5 921 c 128,-1,5
 139 952 139 952 139 996 c 256,6,7
 139 1040 139 1040 167.5 1070.5 c 128,-1,8
 196 1101 196 1101 249 1101 c 0,9,10
 303 1101 303 1101 330.5 1070.5 c 128,-1,11
 358 1040 358 1040 358 996 c 256,0,1
157 -361 m 1,12,-1
 171 684 l 1,13,-1
 338 684 l 1,14,-1
 352 -361 l 1,15,-1
 157 -361 l 1,12,-1
EndSplineSet
EndChar

StartChar: cent
Encoding: 162 162 101
Width: 1121
Flags: W
LayerCount: 2
Fore
SplineSet
1018 342 m 1,0,1
 1011 215 1011 215 912 114.5 c 128,-1,2
 813 14 813 14 670 -13 c 1,3,-1
 670 -245 l 1,4,-1
 484 -245 l 1,5,-1
 484 -11 l 1,6,7
 292 25 292 25 198.5 176 c 128,-1,8
 105 327 105 327 105 520 c 2,9,-1
 105 562 l 2,10,11
 105 755 105 755 199 906 c 128,-1,12
 293 1057 293 1057 484 1093 c 1,13,-1
 484 1318 l 1,14,-1
 670 1318 l 1,15,-1
 670 1096 l 1,16,17
 825 1071 825 1071 918 964.5 c 128,-1,18
 1011 858 1011 858 1018 710 c 1,19,-1
 842 710 l 1,20,21
 834 810 834 810 766 880 c 128,-1,22
 698 950 698 950 587 950 c 0,23,24
 473 950 473 950 408.5 892 c 128,-1,25
 344 834 344 834 317.5 745 c 128,-1,26
 291 656 291 656 291 562 c 2,27,-1
 291 520 l 2,28,29
 291 425 291 425 317 336 c 128,-1,30
 343 247 343 247 407.5 189.5 c 128,-1,31
 472 132 472 132 587 132 c 0,32,33
 686 132 686 132 760 191 c 128,-1,34
 834 250 834 250 842 342 c 1,35,-1
 1018 342 l 1,0,1
EndSplineSet
EndChar

StartChar: sterling
Encoding: 163 163 102
Width: 1191
Flags: W
LayerCount: 2
Fore
SplineSet
95 0 m 1,0,-1
 95 157 l 1,1,-1
 172 157 l 1,2,3
 224 170 224 170 244.5 252.5 c 128,-1,4
 265 335 265 335 265 401 c 2,5,-1
 257 623 l 1,6,-1
 91 623 l 1,7,-1
 91 780 l 1,8,-1
 252 780 l 1,9,-1
 243 1039 l 1,10,11
 243 1246 243 1246 369.5 1361 c 128,-1,12
 496 1476 496 1476 687 1476 c 0,13,14
 883 1476 883 1476 991.5 1368.5 c 128,-1,15
 1100 1261 1100 1261 1100 1087 c 1,16,-1
 908 1087 l 1,17,18
 908 1212 908 1212 836 1265.5 c 128,-1,19
 764 1319 764 1319 671 1319 c 0,20,21
 572 1319 572 1319 503.5 1246.5 c 128,-1,22
 435 1174 435 1174 435 1039 c 1,23,-1
 444 780 l 1,24,-1
 763 780 l 1,25,-1
 763 623 l 1,26,-1
 449 623 l 1,27,-1
 457 402 l 1,28,29
 458 250 458 250 396 157 c 1,30,-1
 1128 157 l 1,31,-1
 1128 0 l 1,32,-1
 95 0 l 1,0,-1
EndSplineSet
Substitution2: "'c2sc' Capitals to Small Capitals lookup 0 subtable" sterling.smcp
Position2: "'cpsp' Capital Spacing lookup 0 subtable" dx=36 dy=0 dh=72 dv=0
EndChar

StartChar: currency
Encoding: 164 164 103
Width: 1461
Flags: W
LayerCount: 2
Fore
SplineSet
1371 110 m 1,0,-1
 1239 -27 l 1,1,-1
 1103 112 l 1,2,3
 942 -20 942 -20 735 -20 c 0,4,5
 530 -20 530 -20 370 110 c 1,6,-1
 236 -26 l 1,7,-1
 105 110 l 1,8,-1
 244 251 l 1,9,10
 140 410 140 410 140 608 c 0,11,12
 140 815 140 815 252 978 c 1,13,-1
 105 1128 l 1,14,-1
 236 1264 l 1,15,-1
 382 1115 l 1,16,17
 538 1234 538 1234 735 1234 c 0,18,19
 933 1234 933 1234 1090 1113 c 1,20,-1
 1239 1265 l 1,21,-1
 1371 1128 l 1,22,-1
 1220 974 l 1,23,24
 1330 813 1330 813 1330 608 c 0,25,26
 1330 412 1330 412 1229 254 c 1,27,-1
 1371 110 l 1,0,-1
312 608 m 256,28,29
 312 419 312 419 436 285.5 c 128,-1,30
 560 152 560 152 735 152 c 256,31,32
 910 152 910 152 1033.5 285.5 c 128,-1,33
 1157 419 1157 419 1157 608 c 256,34,35
 1157 797 1157 797 1033.5 929.5 c 128,-1,36
 910 1062 910 1062 735 1062 c 256,37,38
 560 1062 560 1062 436 929.5 c 128,-1,39
 312 797 312 797 312 608 c 256,28,29
EndSplineSet
EndChar

StartChar: yen
Encoding: 165 165 104
Width: 1076
Flags: W
LayerCount: 2
Fore
SplineSet
955 322 m 1,0,-1
 630 322 l 1,1,-1
 630 0 l 1,2,-1
 438 0 l 1,3,-1
 438 322 l 1,4,-1
 120 322 l 1,5,-1
 120 446 l 1,6,-1
 438 446 l 1,7,-1
 438 612 l 1,8,-1
 120 612 l 1,9,-1
 120 737 l 1,10,-1
 382 737 l 1,11,-1
 15 1456 l 1,12,-1
 232 1456 l 1,13,-1
 539 793 l 1,14,-1
 847 1456 l 1,15,-1
 1060 1456 l 1,16,-1
 695 737 l 1,17,-1
 955 737 l 1,18,-1
 955 612 l 1,19,-1
 631 612 l 1,20,-1
 630 610 l 1,21,-1
 630 446 l 1,22,-1
 955 446 l 1,23,-1
 955 322 l 1,0,-1
EndSplineSet
Substitution2: "'c2sc' Capitals to Small Capitals lookup 0 subtable" yen.smcp
Position2: "'cpsp' Capital Spacing lookup 0 subtable" dx=36 dy=0 dh=72 dv=0
EndChar

StartChar: brokenbar
Encoding: 166 166 105
Width: 492
Flags: W
LayerCount: 2
Fore
SplineSet
333 1456 m 1,0,-1
 333 698 l 1,1,-1
 148 698 l 1,2,-1
 148 1456 l 1,3,-1
 333 1456 l 1,0,-1
333 -270 m 1,4,-1
 148 -270 l 1,5,-1
 148 522 l 1,6,-1
 333 522 l 1,7,-1
 333 -270 l 1,4,-1
EndSplineSet
EndChar

StartChar: section
Encoding: 167 167 106
Width: 1256
Flags: W
LayerCount: 2
Fore
SplineSet
1100 -129 m 0,0,1
 1100 -303 1100 -303 967 -399 c 128,-1,2
 834 -495 834 -495 613 -495 c 0,3,4
 485 -495 485 -495 365 -454.5 c 128,-1,5
 245 -414 245 -414 168 -320 c 128,-1,6
 91 -226 91 -226 91 -64 c 1,7,-1
 276 -62 l 1,8,9
 276 -221 276 -221 385 -282 c 128,-1,10
 494 -343 494 -343 613 -343 c 0,11,12
 757 -343 757 -343 836 -282 c 128,-1,13
 915 -221 915 -221 915 -131 c 0,14,15
 915 -38 915 -38 840.5 13.5 c 128,-1,16
 766 65 766 65 564 126 c 1,17,18
 345 185 345 185 221 274.5 c 128,-1,19
 97 364 97 364 97 551 c 0,20,21
 97 740 97 740 279 825 c 1,22,23
 212 874 212 874 177 943 c 128,-1,24
 142 1012 142 1012 142 1111 c 0,25,26
 142 1277 142 1277 275 1377 c 128,-1,27
 408 1477 408 1477 631 1477 c 0,28,29
 860 1477 860 1477 991 1365.5 c 128,-1,30
 1122 1254 1122 1254 1122 1046 c 1,31,-1
 937 1046 l 1,32,33
 937 1162 937 1162 858.5 1243.5 c 128,-1,34
 780 1325 780 1325 631 1325 c 0,35,36
 474 1325 474 1325 400.5 1262.5 c 128,-1,37
 327 1200 327 1200 327 1113 c 0,38,39
 327 1012 327 1012 396 963 c 128,-1,40
 465 914 465 914 676 855 c 0,41,42
 900 793 900 793 1022.5 705.5 c 128,-1,43
 1145 618 1145 618 1145 431 c 0,44,45
 1145 241 1145 241 960 157 c 1,46,47
 1028 109 1028 109 1064 40.5 c 128,-1,48
 1100 -28 1100 -28 1100 -129 c 0,0,1
637 290 m 0,49,50
 733 263 733 263 799 238 c 1,51,52
 960 281 960 281 960 428 c 0,53,54
 960 522 960 522 884 576 c 128,-1,55
 808 630 808 630 603 691 c 0,56,57
 505 718 505 718 437 744 c 1,58,59
 358 725 358 725 320 673.5 c 128,-1,60
 282 622 282 622 282 553 c 0,61,62
 282 452 282 452 352 400.5 c 128,-1,63
 422 349 422 349 637 290 c 0,49,50
EndSplineSet
EndChar

StartChar: dieresis
Encoding: 168 168 107
Width: 857
Flags: W
LayerCount: 2
Fore
SplineSet
101 1371 m 0,0,1
 101 1416 101 1416 129 1447 c 128,-1,2
 157 1478 157 1478 210 1478 c 0,3,4
 264 1478 264 1478 292 1447 c 128,-1,5
 320 1416 320 1416 320 1371 c 0,6,7
 320 1328 320 1328 292 1297.5 c 128,-1,8
 264 1267 264 1267 210 1267 c 0,9,10
 157 1267 157 1267 129 1297.5 c 128,-1,11
 101 1328 101 1328 101 1371 c 0,0,1
532 1369 m 0,12,13
 532 1414 532 1414 559.5 1445 c 128,-1,14
 587 1476 587 1476 641 1476 c 0,15,16
 694 1476 694 1476 722.5 1445 c 128,-1,17
 751 1414 751 1414 751 1369 c 0,18,19
 751 1326 751 1326 722.5 1295.5 c 128,-1,20
 694 1265 694 1265 641 1265 c 0,21,22
 587 1265 587 1265 559.5 1295.5 c 128,-1,23
 532 1326 532 1326 532 1369 c 0,12,13
EndSplineSet
EndChar

StartChar: copyright
Encoding: 169 169 108
Width: 1609
Flags: W
LayerCount: 2
Fore
SplineSet
92 729 m 256,0,1
 92 940 92 940 188 1109.5 c 128,-1,2
 284 1279 284 1279 445 1377.5 c 128,-1,3
 606 1476 606 1476 802 1476 c 256,4,5
 998 1476 998 1476 1158.5 1377.5 c 128,-1,6
 1319 1279 1319 1279 1415 1109.5 c 128,-1,7
 1511 940 1511 940 1511 729 c 256,8,9
 1511 518 1511 518 1415 348 c 128,-1,10
 1319 178 1319 178 1158.5 78.5 c 128,-1,11
 998 -21 998 -21 802 -21 c 256,12,13
 606 -21 606 -21 445 78.5 c 128,-1,14
 284 178 284 178 188 348 c 128,-1,15
 92 518 92 518 92 729 c 256,0,1
207 729 m 256,16,17
 207 551 207 551 287 408 c 128,-1,18
 367 265 367 265 502.5 181.5 c 128,-1,19
 638 98 638 98 802 98 c 256,20,21
 966 98 966 98 1100.5 181.5 c 128,-1,22
 1235 265 1235 265 1315 408 c 128,-1,23
 1395 551 1395 551 1395 729 c 256,24,25
 1395 907 1395 907 1315 1049 c 128,-1,26
 1235 1191 1235 1191 1100.5 1274 c 128,-1,27
 966 1357 966 1357 802 1357 c 256,28,29
 638 1357 638 1357 502.5 1274 c 128,-1,30
 367 1191 367 1191 287 1049 c 128,-1,31
 207 907 207 907 207 729 c 256,16,17
974 598 m 1,32,-1
 1120 598 l 1,33,34
 1120 440 1120 440 1030.5 362 c 128,-1,35
 941 284 941 284 788 284 c 0,36,37
 629 284 629 284 535.5 391 c 128,-1,38
 442 498 442 498 442 671 c 2,39,-1
 442 786 l 2,40,41
 442 958 442 958 535.5 1065.5 c 128,-1,42
 629 1173 629 1173 788 1173 c 0,43,44
 941 1173 941 1173 1031 1095 c 128,-1,45
 1121 1017 1121 1017 1121 860 c 1,46,-1
 975 860 l 1,47,48
 975 1045 975 1045 788 1045 c 0,49,50
 689 1045 689 1045 637.5 972.5 c 128,-1,51
 586 900 586 900 586 787 c 2,52,-1
 586 671 l 2,53,54
 586 557 586 557 637.5 484.5 c 128,-1,55
 689 412 689 412 788 412 c 0,56,57
 880 412 880 412 927 455 c 128,-1,58
 974 498 974 498 974 598 c 1,32,-1
EndSplineSet
EndChar

StartChar: ordfeminine
Encoding: 170 170 109
Width: 916
Flags: W
LayerCount: 2
Fore
SplineSet
619 706 m 1,0,1
 608 741 608 741 602 778 c 1,2,3
 570 744 570 744 519 718 c 128,-1,4
 468 692 468 692 396 692 c 0,5,6
 276 692 276 692 211.5 753.5 c 128,-1,7
 147 815 147 815 147 918 c 0,8,9
 147 1149 147 1149 486 1149 c 2,10,-1
 595 1149 l 1,11,-1
 595 1202 l 2,12,13
 595 1336 595 1336 471 1336 c 0,14,15
 323 1336 323 1336 323 1231 c 1,16,-1
 162 1244 l 1,17,18
 162 1345 162 1345 246.5 1411 c 128,-1,19
 331 1477 331 1477 471 1477 c 0,20,21
 600 1477 600 1477 679 1407.5 c 128,-1,22
 758 1338 758 1338 758 1201 c 2,23,-1
 758 887 l 2,24,25
 758 785 758 785 784 706 c 1,26,-1
 619 706 l 1,0,1
435 829 m 0,27,28
 479 829 479 829 523.5 849.5 c 128,-1,29
 568 870 568 870 595 897 c 1,30,-1
 595 1038 l 1,31,-1
 487 1038 l 2,32,33
 396 1038 396 1038 353 1003.5 c 128,-1,34
 310 969 310 969 310 922 c 0,35,36
 310 829 310 829 435 829 c 0,27,28
EndSplineSet
EndChar

StartChar: logicalnot
Encoding: 172 172 111
Width: 1134
Flags: W
LayerCount: 2
Fore
SplineSet
127 801 m 1,0,-1
 958 801 l 1,1,-1
 958 376 l 1,2,-1
 773 376 l 1,3,-1
 773 639 l 1,4,-1
 127 639 l 1,5,-1
 127 801 l 1,0,-1
EndSplineSet
EndChar

StartChar: registered
Encoding: 174 174 112
Width: 1610
Flags: W
LayerCount: 2
Fore
SplineSet
91 729 m 256,0,1
 91 940 91 940 187 1109.5 c 128,-1,2
 283 1279 283 1279 444 1377.5 c 128,-1,3
 605 1476 605 1476 801 1476 c 0,4,5
 996 1476 996 1476 1157 1377.5 c 128,-1,6
 1318 1279 1318 1279 1414 1109.5 c 128,-1,7
 1510 940 1510 940 1510 729 c 256,8,9
 1510 518 1510 518 1414 348 c 128,-1,10
 1318 178 1318 178 1157 78.5 c 128,-1,11
 996 -21 996 -21 801 -21 c 0,12,13
 605 -21 605 -21 444 78.5 c 128,-1,14
 283 178 283 178 187 348 c 128,-1,15
 91 518 91 518 91 729 c 256,0,1
206 729 m 256,16,17
 206 551 206 551 286 408 c 128,-1,18
 366 265 366 265 501 181.5 c 128,-1,19
 636 98 636 98 801 98 c 0,20,21
 964 98 964 98 1099 181.5 c 128,-1,22
 1234 265 1234 265 1314 408 c 128,-1,23
 1394 551 1394 551 1394 729 c 256,24,25
 1394 907 1394 907 1314 1049 c 128,-1,26
 1234 1191 1234 1191 1099 1274 c 128,-1,27
 964 1357 964 1357 801 1357 c 0,28,29
 636 1357 636 1357 501 1274 c 128,-1,30
 366 1191 366 1191 286 1049 c 128,-1,31
 206 907 206 907 206 729 c 256,16,17
817 655 m 2,32,-1
 653 655 l 1,33,-1
 653 317 l 1,34,-1
 512 317 l 1,35,-1
 512 1165 l 1,36,-1
 789 1165 l 2,37,38
 937 1165 937 1165 1023.5 1101.5 c 128,-1,39
 1110 1038 1110 1038 1110 910 c 0,40,41
 1110 787 1110 787 982 722 c 1,42,43
 1051 694 1051 694 1078 639.5 c 128,-1,44
 1105 585 1105 585 1105 514 c 2,45,-1
 1105 460 l 2,46,47
 1105 376 1105 376 1122 333 c 1,48,-1
 1122 317 l 1,49,-1
 977 317 l 1,50,51
 967 342 967 342 965.5 390.5 c 128,-1,52
 964 439 964 439 964 461 c 2,53,-1
 964 513 l 2,54,55
 964 655 964 655 817 655 c 2,32,-1
653 1038 m 1,56,-1
 653 783 l 1,57,-1
 810 783 l 2,58,59
 873 784 873 784 921.5 815 c 128,-1,60
 970 846 970 846 970 904 c 0,61,62
 970 978 970 978 930 1008 c 128,-1,63
 890 1038 890 1038 789 1038 c 2,64,-1
 653 1038 l 1,56,-1
EndSplineSet
EndChar

StartChar: macron
Encoding: 175 175 113
Width: 939
Flags: W
LayerCount: 2
Fore
SplineSet
814 1445 m 1,0,-1
 814 1303 l 1,1,-1
 143 1303 l 1,2,-1
 143 1445 l 1,3,-1
 814 1445 l 1,0,-1
EndSplineSet
EndChar

StartChar: degree
Encoding: 176 176 114
Width: 765
Flags: W
LayerCount: 2
Fore
SplineSet
131 1217 m 256,0,1
 131 1324 131 1324 206.5 1400.5 c 128,-1,2
 282 1477 282 1477 386 1477 c 256,3,4
 490 1477 490 1477 563.5 1400.5 c 128,-1,5
 637 1324 637 1324 637 1217 c 256,6,7
 637 1110 637 1110 563.5 1035 c 128,-1,8
 490 960 490 960 386 960 c 256,9,10
 282 960 282 960 206.5 1035 c 128,-1,11
 131 1110 131 1110 131 1217 c 256,0,1
255 1217 m 0,12,13
 255 1162 255 1162 293.5 1125 c 128,-1,14
 332 1088 332 1088 386 1088 c 256,15,16
 440 1088 440 1088 476.5 1125 c 128,-1,17
 513 1162 513 1162 513 1217 c 0,18,19
 513 1273 513 1273 476.5 1311 c 128,-1,20
 440 1349 440 1349 386 1349 c 256,21,22
 332 1349 332 1349 293.5 1311 c 128,-1,23
 255 1273 255 1273 255 1217 c 0,12,13
EndSplineSet
EndChar

StartChar: plusminus
Encoding: 177 177 115
Width: 1095
Flags: W
LayerCount: 2
Fore
SplineSet
1013 703 m 1,0,-1
 650 703 l 1,1,-1
 650 289 l 1,2,-1
 483 289 l 1,3,-1
 483 703 l 1,4,-1
 97 703 l 1,5,-1
 97 855 l 1,6,-1
 483 855 l 1,7,-1
 483 1267 l 1,8,-1
 650 1267 l 1,9,-1
 650 855 l 1,10,-1
 1013 855 l 1,11,-1
 1013 703 l 1,0,-1
971 152 m 1,12,-1
 971 1 l 1,13,-1
 136 1 l 1,14,-1
 136 152 l 1,15,-1
 971 152 l 1,12,-1
EndSplineSet
EndChar

StartChar: twosuperior
Encoding: 178 178 116
Width: 751
Flags: W
LayerCount: 2
Fore
SplineSet
683 795 m 1,0,-1
 683 667 l 1,1,-1
 85 667 l 1,2,-1
 85 775 l 1,3,-1
 373 1046 l 2,4,5
 440 1108 440 1108 466.5 1152 c 128,-1,6
 493 1196 493 1196 493 1229 c 0,7,8
 493 1277 493 1277 461 1308 c 128,-1,9
 429 1339 429 1339 370 1339 c 0,10,11
 295 1339 295 1339 259.5 1301 c 128,-1,12
 224 1263 224 1263 224 1206 c 1,13,-1
 66 1206 l 1,14,15
 66 1313 66 1313 145.5 1390 c 128,-1,16
 225 1467 225 1467 366 1467 c 0,17,18
 500 1467 500 1467 576 1403.5 c 128,-1,19
 652 1340 652 1340 652 1231 c 0,20,21
 652 1151 652 1151 600 1085.5 c 128,-1,22
 548 1020 548 1020 460 941 c 1,23,-1
 285 795 l 1,24,-1
 683 795 l 1,0,-1
EndSplineSet
EndChar

StartChar: threesuperior
Encoding: 179 179 117
Width: 751
Flags: W
LayerCount: 2
Fore
SplineSet
350 1011 m 2,0,-1
 266 1011 l 1,1,-1
 266 1126 l 1,2,-1
 350 1126 l 2,3,4
 496 1126 496 1126 496 1235 c 0,5,6
 496 1279 496 1279 464 1309 c 128,-1,7
 432 1339 432 1339 363 1339 c 0,8,9
 306 1339 306 1339 268.5 1314 c 128,-1,10
 231 1289 231 1289 231 1246 c 1,11,-1
 74 1246 l 1,12,13
 74 1348 74 1348 157 1407.5 c 128,-1,14
 240 1467 240 1467 360 1467 c 0,15,16
 490 1467 490 1467 571.5 1409.5 c 128,-1,17
 653 1352 653 1352 653 1243 c 0,18,19
 653 1124 653 1124 519 1072 c 1,20,21
 667 1030 667 1030 667 887 c 0,22,23
 667 777 667 777 579.5 716.5 c 128,-1,24
 492 656 492 656 361 656 c 0,25,26
 248 656 248 656 155.5 712 c 128,-1,27
 63 768 63 768 63 890 c 1,28,-1
 220 890 l 1,29,30
 220 845 220 845 260 814.5 c 128,-1,31
 300 784 300 784 366 784 c 0,32,33
 509 784 509 784 509 895 c 0,34,35
 509 1011 509 1011 350 1011 c 2,0,-1
EndSplineSet
EndChar

StartChar: acute
Encoding: 180 180 118
Width: 642
Flags: W
LayerCount: 2
Fore
SplineSet
123 1242 m 1,0,-1
 317 1536 l 1,1,-1
 540 1536 l 1,2,-1
 272 1242 l 1,3,-1
 123 1242 l 1,0,-1
EndSplineSet
EndChar

StartChar: mu
Encoding: 181 181 119
Width: 1161
Flags: W
LayerCount: 2
Fore
SplineSet
568 -21 m 0,0,1
 420 -21 420 -21 339 53 c 1,2,-1
 339 -416 l 1,3,-1
 155 -416 l 1,4,-1
 155 1082 l 1,5,-1
 339 1082 l 1,6,-1
 339 460 l 2,7,8
 339 254 339 254 403.5 192.5 c 128,-1,9
 468 131 468 131 560 131 c 0,10,11
 669 131 669 131 730.5 172 c 128,-1,12
 792 213 792 213 821 284 c 1,13,-1
 821 1082 l 1,14,-1
 1006 1082 l 1,15,-1
 1006 0 l 1,16,-1
 839 0 l 1,17,-1
 831 115 l 1,18,19
 739 -21 739 -21 568 -21 c 0,0,1
EndSplineSet
EndChar

StartChar: paragraph
Encoding: 182 182 120
Width: 1002
Flags: W
LayerCount: 2
Fore
SplineSet
833 0 m 1,0,-1
 647 0 l 1,1,-1
 647 520 l 1,2,-1
 560 520 l 2,3,4
 321 520 321 520 194.5 653 c 128,-1,5
 68 786 68 786 68 988 c 0,6,7
 68 1189 68 1189 194.5 1322.5 c 128,-1,8
 321 1456 321 1456 560 1456 c 2,9,-1
 833 1456 l 1,10,-1
 833 0 l 1,0,-1
EndSplineSet
EndChar

StartChar: periodcentered
Encoding: 183 183 121
Width: 535
Flags: W
LayerCount: 2
Fore
SplineSet
148 729 m 0,0,1
 148 776 148 776 177 808.5 c 128,-1,2
 206 841 206 841 262 841 c 256,3,4
 318 841 318 841 347.5 808.5 c 128,-1,5
 377 776 377 776 377 729 c 0,6,7
 377 683 377 683 347.5 651.5 c 128,-1,8
 318 620 318 620 262 620 c 256,9,10
 206 620 206 620 177 651.5 c 128,-1,11
 148 683 148 683 148 729 c 0,0,1
EndSplineSet
EndChar

StartChar: cedilla
Encoding: 184 184 122
Width: 508
GlyphClass: 2
Flags: W
AnchorPoint: "Anchor-11" 213 -440 basemark 0
LayerCount: 2
Fore
SplineSet
152 0 m 1,0,-1
 285 0 l 1,1,-1
 273 -53 l 1,2,3
 331 -63 331 -63 378.5 -101 c 128,-1,4
 426 -139 426 -139 426 -226 c 0,5,6
 426 -320 426 -320 349 -377.5 c 128,-1,7
 272 -435 272 -435 123 -435 c 1,8,-1
 116 -328 l 1,9,10
 185 -328 185 -328 233.5 -305 c 128,-1,11
 282 -282 282 -282 282 -229 c 0,12,13
 282 -180 282 -180 243.5 -161 c 128,-1,14
 205 -142 205 -142 121 -135 c 1,15,-1
 152 0 l 1,0,-1
EndSplineSet
EndChar

StartChar: onesuperior
Encoding: 185 185 123
Width: 751
Flags: W
LayerCount: 2
Fore
SplineSet
495 1456 m 1,0,-1
 495 667 l 1,1,-1
 339 667 l 1,2,-1
 339 1268 l 1,3,-1
 123 1211 l 1,4,-1
 123 1340 l 1,5,-1
 477 1456 l 1,6,-1
 495 1456 l 1,0,-1
EndSplineSet
EndChar

StartChar: ordmasculine
Encoding: 186 186 124
Width: 932
Flags: W
LayerCount: 2
Fore
SplineSet
123 1043 m 2,0,-1
 123 1124 l 2,1,2
 123 1278 123 1278 215.5 1377.5 c 128,-1,3
 308 1477 308 1477 465 1477 c 0,4,5
 624 1477 624 1477 715.5 1377.5 c 128,-1,6
 807 1278 807 1278 807 1124 c 2,7,-1
 807 1043 l 2,8,9
 807 888 807 888 715.5 789.5 c 128,-1,10
 624 691 624 691 467 691 c 0,11,12
 308 691 308 691 215.5 789.5 c 128,-1,13
 123 888 123 888 123 1043 c 2,0,-1
286 1124 m 2,14,-1
 286 1043 l 2,15,16
 286 952 286 952 330.5 891 c 128,-1,17
 375 830 375 830 467 830 c 0,18,19
 556 830 556 830 600.5 891 c 128,-1,20
 645 952 645 952 645 1043 c 2,21,-1
 645 1124 l 2,22,23
 645 1213 645 1213 600.5 1274.5 c 128,-1,24
 556 1336 556 1336 465 1336 c 256,25,26
 374 1336 374 1336 330 1274.5 c 128,-1,27
 286 1213 286 1213 286 1124 c 2,14,-1
EndSplineSet
EndChar

StartChar: questiondown
Encoding: 191 191 129
Width: 970
Flags: W
LayerCount: 2
Fore
SplineSet
597 997 m 256,0,1
 597 953 597 953 569 922 c 128,-1,2
 541 891 541 891 488 891 c 0,3,4
 434 891 434 891 406 922 c 128,-1,5
 378 953 378 953 378 997 c 256,6,7
 378 1041 378 1041 406 1071.5 c 128,-1,8
 434 1102 434 1102 488 1102 c 0,9,10
 541 1102 541 1102 569 1071.5 c 128,-1,11
 597 1041 597 1041 597 997 c 256,0,1
403 680 m 1,12,-1
 589 680 l 1,13,14
 588 536 588 536 550 467 c 128,-1,15
 512 398 512 398 420 298 c 0,16,17
 356 230 356 230 305 167 c 128,-1,18
 254 104 254 104 254 0 c 0,19,20
 254 -224 254 -224 478 -224 c 0,21,22
 566 -224 566 -224 634.5 -174 c 128,-1,23
 703 -124 703 -124 704 -20 c 1,24,-1
 889 -20 l 1,25,26
 887 -190 887 -190 769 -288 c 128,-1,27
 651 -386 651 -386 478 -386 c 0,28,29
 283 -386 283 -386 175.5 -286 c 128,-1,30
 68 -186 68 -186 68 -6 c 0,31,32
 68 130 68 130 145.5 236.5 c 128,-1,33
 223 343 223 343 313 431 c 0,34,35
 367 483 367 483 385 544.5 c 128,-1,36
 403 606 403 606 403 680 c 1,12,-1
EndSplineSet
EndChar

StartChar: AE
Encoding: 198 198 130
Width: 1914
GlyphClass: 2
Flags: W
AnchorPoint: "Anchor-5" 1914 1612 basechar 0
AnchorPoint: "Anchor-2" 1914 1600 basechar 0
AnchorPoint: "Anchor-0" 939 1612 basechar 0
LayerCount: 2
Fore
SplineSet
1880 152 m 1,0,-1
 1880 0 l 1,1,-1
 996 0 l 1,2,-1
 981 353 l 1,3,-1
 417 353 l 1,4,-1
 212 0 l 1,5,-1
 -15 0 l 1,6,-1
 866 1456 l 1,7,-1
 1818 1456 l 1,8,-1
 1818 1304 l 1,9,-1
 1127 1304 l 1,10,-1
 1147 834 l 1,11,-1
 1737 834 l 1,12,-1
 1737 682 l 1,13,-1
 1153 682 l 1,14,-1
 1176 152 l 1,15,-1
 1880 152 l 1,0,-1
518 528 m 1,16,-1
 974 528 l 1,17,-1
 943 1261 l 1,18,-1
 518 528 l 1,16,-1
EndSplineSet
Substitution2: "'c2sc' Capitals to Small Capitals lookup 0 subtable" AE.smcp
Position2: "'cpsp' Capital Spacing lookup 0 subtable" dx=36 dy=0 dh=72 dv=0
EndChar

StartChar: multiply
Encoding: 215 215 131
Width: 1093
Flags: W
LayerCount: 2
Fore
SplineSet
990 329 m 1,0,-1
 871 206 l 1,1,-1
 540 544 l 1,2,-1
 208 206 l 1,3,-1
 89 329 l 1,4,-1
 419 666 l 1,5,-1
 92 1000 l 1,6,-1
 211 1124 l 1,7,-1
 540 789 l 1,8,-1
 868 1124 l 1,9,-1
 987 1000 l 1,10,-1
 660 666 l 1,11,-1
 990 329 l 1,0,-1
EndSplineSet
EndChar

StartChar: Oslash
Encoding: 216 216 132
Width: 1409
GlyphClass: 2
Flags: W
AnchorPoint: "Anchor-5" 1409 1674 basechar 0
AnchorPoint: "Anchor-2" 1409 1600 basechar 0
AnchorPoint: "Anchor-0" 715 1674 basechar 0
LayerCount: 2
Fore
SplineSet
706 -20 m 0,0,1
 536 -20 536 -20 404 63 c 1,2,-1
 307 -93 l 1,3,-1
 164 -93 l 1,4,-1
 309 139 l 1,5,6
 219 230 219 230 169 367.5 c 128,-1,7
 119 505 119 505 119 682 c 2,8,-1
 119 774 l 2,9,10
 119 1101 119 1101 282 1288.5 c 128,-1,11
 445 1476 445 1476 704 1476 c 0,12,13
 919 1476 919 1476 1066 1352 c 1,14,-1
 1169 1516 l 1,15,-1
 1309 1516 l 1,16,-1
 1151 1262 l 1,17,18
 1290 1075 1290 1075 1290 774 c 2,19,-1
 1290 682 l 2,20,21
 1290 354 1290 354 1131 167 c 128,-1,22
 972 -20 972 -20 706 -20 c 0,0,1
310 682 m 2,23,24
 310 439 310 439 407 297 c 1,25,-1
 972 1201 l 1,26,27
 872 1312 872 1312 704 1312 c 0,28,29
 525 1312 525 1312 417.5 1174 c 128,-1,30
 310 1036 310 1036 310 776 c 2,31,-1
 310 682 l 2,23,24
1099 776 m 2,32,33
 1099 963 1099 963 1043 1089 c 1,34,-1
 494 207 l 1,35,36
 584 143 584 143 706 143 c 0,37,38
 894 143 894 143 996.5 281.5 c 128,-1,39
 1099 420 1099 420 1099 682 c 2,40,-1
 1099 776 l 2,32,33
EndSplineSet
Substitution2: "'c2sc' Capitals to Small Capitals lookup 0 subtable" Oslash.smcp
Position2: "'cpsp' Capital Spacing lookup 0 subtable" dx=36 dy=0 dh=72 dv=0
EndChar

StartChar: Thorn
Encoding: 222 222 133
Width: 1210
Flags: W
LayerCount: 2
Fore
SplineSet
630 314 m 2,0,-1
 352 314 l 1,1,-1
 352 0 l 1,2,-1
 167 0 l 1,3,-1
 167 1456 l 1,4,-1
 352 1456 l 1,5,-1
 352 1163 l 1,6,-1
 630 1163 l 2,7,8
 866 1163 866 1163 991.5 1042.5 c 128,-1,9
 1117 922 1117 922 1117 738 c 0,10,11
 1117 555 1117 555 991.5 434.5 c 128,-1,12
 866 314 866 314 630 314 c 2,0,-1
630 1012 m 2,13,-1
 352 1012 l 1,14,-1
 352 465 l 1,15,-1
 630 465 l 2,16,17
 791 465 791 465 861.5 549.5 c 128,-1,18
 932 634 932 634 932 736 c 0,19,20
 932 841 932 841 861.5 926.5 c 128,-1,21
 791 1012 791 1012 630 1012 c 2,13,-1
EndSplineSet
Substitution2: "'c2sc' Capitals to Small Capitals lookup 0 subtable" Thorn.smcp
Position2: "'cpsp' Capital Spacing lookup 0 subtable" dx=36 dy=0 dh=72 dv=0
EndChar

StartChar: germandbls
Encoding: 223 223 134
Width: 1218
Flags: W
LayerCount: 2
Fore
SplineSet
324 1112 m 2,0,-1
 324 0 l 1,1,-1
 140 0 l 1,2,-1
 140 1112 l 2,3,4
 140 1331 140 1331 249 1442.5 c 128,-1,5
 358 1554 358 1554 533 1554 c 0,6,7
 696 1554 696 1554 802.5 1472 c 128,-1,8
 909 1390 909 1390 909 1217 c 0,9,10
 909 1110 909 1110 877 1048 c 128,-1,11
 845 986 845 986 813 937 c 128,-1,12
 781 888 781 888 781 820 c 0,13,14
 781 751 781 751 833.5 699.5 c 128,-1,15
 886 648 886 648 955.5 596.5 c 128,-1,16
 1025 545 1025 545 1077.5 479.5 c 128,-1,17
 1130 414 1130 414 1130 317 c 0,18,19
 1130 146 1130 146 1021.5 63 c 128,-1,20
 913 -20 913 -20 745 -20 c 0,21,22
 663 -20 663 -20 573.5 2 c 128,-1,23
 484 24 484 24 446 52 c 1,24,-1
 488 207 l 1,25,26
 522 185 522 185 589 158 c 128,-1,27
 656 131 656 131 726 131 c 0,28,29
 843 131 843 131 894 182.5 c 128,-1,30
 945 234 945 234 945 308 c 0,31,32
 945 379 945 379 892.5 431 c 128,-1,33
 840 483 840 483 770.5 534.5 c 128,-1,34
 701 586 701 586 648.5 653 c 128,-1,35
 596 720 596 720 596 822 c 0,36,37
 596 902 596 902 630.5 958.5 c 128,-1,38
 665 1015 665 1015 699.5 1069.5 c 128,-1,39
 734 1124 734 1124 734 1201 c 0,40,41
 734 1301 734 1301 679.5 1352 c 128,-1,42
 625 1403 625 1403 543 1403 c 0,43,44
 324 1403 324 1403 324 1112 c 2,0,-1
EndSplineSet
Substitution2: "'smcp' Lowercase to Small Capitals lookup 1 subtable" Germandbls.smcp
EndChar

StartChar: ae
Encoding: 230 230 135
Width: 1730
GlyphClass: 2
Flags: W
AnchorPoint: "Anchor-5" 1730 1291 basechar 0
AnchorPoint: "Anchor-2" 1730 1600 basechar 0
AnchorPoint: "Anchor-0" 859 1291 basechar 0
LayerCount: 2
Fore
SplineSet
1643 102 m 1,0,1
 1610 76 1610 76 1517 27.5 c 128,-1,2
 1424 -21 1424 -21 1263 -21 c 0,3,4
 1129 -21 1129 -21 1029 27 c 128,-1,5
 929 75 929 75 865 160 c 1,6,7
 814 93 814 93 707.5 36 c 128,-1,8
 601 -21 601 -21 434 -21 c 0,9,10
 262 -21 262 -21 170.5 67.5 c 128,-1,11
 79 156 79 156 79 304 c 0,12,13
 79 462 79 462 192.5 549 c 128,-1,14
 306 636 306 636 527 636 c 2,15,-1
 749 636 l 1,16,-1
 749 720 l 2,17,18
 749 827 749 827 693.5 888.5 c 128,-1,19
 638 950 638 950 535 950 c 0,20,21
 423 950 423 950 357 893.5 c 128,-1,22
 291 837 291 837 291 760 c 1,23,-1
 107 778 l 1,24,25
 107 918 107 918 225.5 1010 c 128,-1,26
 344 1102 344 1102 535 1102 c 0,27,28
 778 1102 778 1102 876 936 c 1,29,30
 1008 1104 1008 1104 1219 1102 c 0,31,32
 1434 1102 1434 1102 1547.5 971 c 128,-1,33
 1661 840 1661 840 1661 616 c 2,34,-1
 1661 498 l 1,35,-1
 933 498 l 1,36,37
 938 344 938 344 1017 237.5 c 128,-1,38
 1096 131 1096 131 1263 131 c 0,39,40
 1382 131 1382 131 1455 167.5 c 128,-1,41
 1528 204 1528 204 1578 238 c 1,42,-1
 1643 102 l 1,0,1
1219 950 m 0,43,44
 1098 950 1098 950 1026 861.5 c 128,-1,45
 954 773 954 773 938 640 c 1,46,-1
 1475 640 l 1,47,-1
 1475 671 l 2,48,49
 1475 784 1475 784 1417 867 c 128,-1,50
 1359 950 1359 950 1219 950 c 0,43,44
470 130 m 0,51,52
 546 130 546 130 624.5 169.5 c 128,-1,53
 703 209 703 209 749 258 c 1,54,-1
 749 496 l 1,55,-1
 529 496 l 2,56,57
 398 496 398 496 331 437 c 128,-1,58
 264 378 264 378 264 300 c 0,59,60
 264 229 264 229 314.5 179.5 c 128,-1,61
 365 130 365 130 470 130 c 0,51,52
EndSplineSet
Substitution2: "'unic' Unicase lookup 2 subtable" AE
Substitution2: "'smcp' Lowercase to Small Capitals lookup 1 subtable" AE.smcp
EndChar

StartChar: eth
Encoding: 240 240 136
Width: 1201
Flags: W
LayerCount: 2
Fore
SplineSet
1070 535 m 2,0,1
 1070 288 1070 288 937.5 134 c 128,-1,2
 805 -20 805 -20 602 -20 c 0,3,4
 391 -20 391 -20 258.5 122 c 128,-1,5
 126 264 126 264 126 468 c 0,6,7
 126 699 126 699 253 838.5 c 128,-1,8
 380 978 380 978 574 978 c 0,9,10
 658 978 658 978 731 947 c 128,-1,11
 804 916 804 916 857 865 c 1,12,13
 832 969 832 969 783.5 1052 c 128,-1,14
 735 1135 735 1135 669 1200 c 1,15,-1
 451 1051 l 1,16,-1
 378 1151 l 1,17,-1
 570 1281 l 1,18,19
 500 1330 500 1330 420 1364.5 c 128,-1,20
 340 1399 340 1399 255 1421 c 1,21,-1
 312 1581 l 1,22,23
 551 1527 551 1527 727 1388 c 1,24,-1
 915 1516 l 1,25,-1
 988 1417 l 1,26,-1
 820 1303 l 1,27,28
 938 1178 938 1178 1004 1009 c 128,-1,29
 1070 840 1070 840 1070 633 c 2,30,-1
 1070 535 l 2,0,1
312 468 m 0,31,32
 312 344 312 344 388 238 c 128,-1,33
 464 132 464 132 606 132 c 0,34,35
 735 132 735 132 809.5 247 c 128,-1,36
 884 362 884 362 884 535 c 2,37,-1
 884 635 l 2,38,39
 884 665 884 665 882 694 c 1,40,41
 854 745 854 745 788 785.5 c 128,-1,42
 722 826 722 826 618 826 c 0,43,44
 472 826 472 826 392 729.5 c 128,-1,45
 312 633 312 633 312 468 c 0,31,32
EndSplineSet
Substitution2: "'unic' Unicase lookup 2 subtable" Eth
Substitution2: "'smcp' Lowercase to Small Capitals lookup 1 subtable" Eth.smcp
EndChar

StartChar: divide
Encoding: 247 247 137
Width: 1170
Flags: W
LayerCount: 2
Fore
SplineSet
462 1098 m 0,0,1
 462 1146 462 1146 491 1178 c 128,-1,2
 520 1210 520 1210 576 1210 c 256,3,4
 632 1210 632 1210 661.5 1178 c 128,-1,5
 691 1146 691 1146 691 1098 c 0,6,7
 691 1052 691 1052 661.5 1020.5 c 128,-1,8
 632 989 632 989 576 989 c 256,9,10
 520 989 520 989 491 1020.5 c 128,-1,11
 462 1052 462 1052 462 1098 c 0,0,1
1069 784 m 1,12,-1
 1069 600 l 1,13,-1
 71 600 l 1,14,-1
 71 784 l 1,15,-1
 1069 784 l 1,12,-1
462 282 m 0,16,17
 462 329 462 329 491 361.5 c 128,-1,18
 520 394 520 394 576 394 c 256,19,20
 632 394 632 394 661.5 361.5 c 128,-1,21
 691 329 691 329 691 282 c 0,22,23
 691 236 691 236 661.5 204 c 128,-1,24
 632 172 632 172 576 172 c 256,25,26
 520 172 520 172 491 204 c 128,-1,27
 462 236 462 236 462 282 c 0,16,17
EndSplineSet
EndChar

StartChar: oslash
Encoding: 248 248 138
Width: 1161
GlyphClass: 2
Flags: W
AnchorPoint: "Anchor-5" 1161 1289 basechar 0
AnchorPoint: "Anchor-2" 1161 1600 basechar 0
AnchorPoint: "Anchor-0" 537 1289 basechar 0
LayerCount: 2
Fore
SplineSet
585 -20 m 0,0,1
 482 -20 482 -20 394 16 c 1,2,-1
 320 -135 l 1,3,-1
 197 -135 l 1,4,-1
 298 69 l 1,5,6
 92 221 92 221 92 529 c 2,7,-1
 92 552 l 2,8,9
 92 787 92 787 224 944.5 c 128,-1,10
 356 1102 356 1102 583 1102 c 0,11,12
 694 1102 694 1102 787 1061 c 1,13,-1
 860 1209 l 1,14,-1
 983 1209 l 1,15,-1
 882 1004 l 1,16,17
 1076 851 1076 851 1076 552 c 2,18,-1
 1076 529 l 2,19,20
 1076 294 1076 294 944 137 c 128,-1,21
 812 -20 812 -20 585 -20 c 0,0,1
277 529 m 2,22,23
 277 334 277 334 374 224 c 1,24,-1
 717 918 l 1,25,26
 657 950 657 950 583 950 c 0,27,28
 430 950 430 950 353.5 830.5 c 128,-1,29
 277 711 277 711 277 552 c 2,30,-1
 277 529 l 2,22,23
891 552 m 2,31,32
 891 734 891 734 803 845 c 1,33,-1
 464 157 l 1,34,35
 519 132 519 132 585 132 c 0,36,37
 737 132 737 132 814 250 c 128,-1,38
 891 368 891 368 891 529 c 2,39,-1
 891 552 l 2,31,32
EndSplineSet
Substitution2: "'unic' Unicase lookup 2 subtable" Oslash
Substitution2: "'smcp' Lowercase to Small Capitals lookup 1 subtable" Oslash.smcp
EndChar

StartChar: thorn
Encoding: 254 254 139
Width: 1180
Flags: W
LayerCount: 2
Fore
SplineSet
644 -20 m 0,0,1
 449 -20 449 -20 335 105 c 1,2,-1
 335 -416 l 1,3,-1
 149 -416 l 1,4,-1
 149 1536 l 1,5,-1
 335 1536 l 1,6,-1
 335 971 l 1,7,8
 448 1102 448 1102 641 1102 c 0,9,10
 846 1102 846 1102 955 950 c 128,-1,11
 1064 798 1064 798 1064 550 c 2,12,-1
 1064 529 l 2,13,14
 1064 292 1064 292 954.5 136 c 128,-1,15
 845 -20 845 -20 644 -20 c 0,0,1
587 946 m 0,16,17
 493 946 493 946 432 903.5 c 128,-1,18
 371 861 371 861 335 797 c 1,19,-1
 335 279 l 1,20,21
 372 215 372 215 432.5 173.5 c 128,-1,22
 493 132 493 132 589 132 c 0,23,24
 739 132 739 132 808.5 250 c 128,-1,25
 878 368 878 368 878 529 c 2,26,-1
 878 550 l 2,27,28
 878 711 878 711 808 828.5 c 128,-1,29
 738 946 738 946 587 946 c 0,16,17
EndSplineSet
Substitution2: "'unic' Unicase lookup 2 subtable" Thorn
Substitution2: "'smcp' Lowercase to Small Capitals lookup 1 subtable" Thorn.smcp
EndChar

StartChar: dcroat
Encoding: 273 273 140
Width: 1224
GlyphClass: 2
Flags: W
AnchorPoint: "Anchor-8" 878 1310 basechar 0
AnchorPoint: "Anchor-5" 1224 1611 basechar 0
AnchorPoint: "Anchor-3" 1155 -407 basechar 0
AnchorPoint: "Anchor-2" 1155 1600 basechar 0
AnchorPoint: "Anchor-1" 617 0 basechar 0
AnchorPoint: "Anchor-0" 549 1611 basechar 0
LayerCount: 2
Fore
SplineSet
839 0 m 1,0,-1
 830 116 l 1,1,2
 719 -20 719 -20 521 -20 c 0,3,4
 330 -20 330 -20 212.5 136 c 128,-1,5
 95 292 95 292 95 529 c 2,6,-1
 95 550 l 2,7,8
 95 798 95 798 212.5 950 c 128,-1,9
 330 1102 330 1102 523 1102 c 0,10,11
 714 1102 714 1102 823 974 c 1,12,-1
 823 1233 l 1,13,-1
 560 1233 l 1,14,-1
 560 1385 l 1,15,-1
 823 1385 l 1,16,-1
 823 1536 l 1,17,-1
 1009 1536 l 1,18,-1
 1009 1385 l 1,19,-1
 1197 1385 l 1,20,-1
 1197 1233 l 1,21,-1
 1009 1233 l 1,22,-1
 1009 0 l 1,23,-1
 839 0 l 1,0,-1
281 529 m 2,24,25
 281 368 281 368 349 252.5 c 128,-1,26
 417 137 417 137 567 137 c 0,27,28
 664 137 664 137 725 181 c 128,-1,29
 786 225 786 225 823 294 c 1,30,-1
 823 792 l 1,31,32
 787 859 787 859 725.5 902.5 c 128,-1,33
 664 946 664 946 569 946 c 0,34,35
 418 946 418 946 349.5 828.5 c 128,-1,36
 281 711 281 711 281 550 c 2,37,-1
 281 529 l 2,24,25
EndSplineSet
Substitution2: "'unic' Unicase lookup 2 subtable" Dcroat
Substitution2: "'smcp' Lowercase to Small Capitals lookup 1 subtable" Dcroat.smcp
EndChar

StartChar: Hbar
Encoding: 294 294 141
Width: 1435
GlyphClass: 2
Flags: W
AnchorPoint: "Anchor-5" 1435 1612 basechar 0
AnchorPoint: "Anchor-1" 724 10 basechar 0
AnchorPoint: "Anchor-0" 724 1612 basechar 0
LayerCount: 2
Fore
SplineSet
1090 0 m 1,0,-1
 1090 673 l 1,1,-1
 356 673 l 1,2,-1
 356 0 l 1,3,-1
 164 0 l 1,4,-1
 164 1024 l 1,5,-1
 30 1024 l 1,6,-1
 30 1167 l 1,7,-1
 164 1167 l 1,8,-1
 164 1456 l 1,9,-1
 356 1456 l 1,10,-1
 356 1167 l 1,11,-1
 1090 1167 l 1,12,-1
 1090 1456 l 1,13,-1
 1283 1456 l 1,14,-1
 1283 1167 l 1,15,-1
 1417 1167 l 1,16,-1
 1417 1024 l 1,17,-1
 1283 1024 l 1,18,-1
 1283 0 l 1,19,-1
 1090 0 l 1,0,-1
356 830 m 1,20,-1
 1090 830 l 1,21,-1
 1090 1024 l 1,22,-1
 356 1024 l 1,23,-1
 356 830 l 1,20,-1
EndSplineSet
Substitution2: "'c2sc' Capitals to Small Capitals lookup 0 subtable" Hbar.smcp
Position2: "'cpsp' Capital Spacing lookup 0 subtable" dx=36 dy=0 dh=72 dv=0
EndChar

StartChar: dotlessi
Encoding: 305 305 142
Width: 507
GlyphClass: 2
Flags: W
AnchorPoint: "Anchor-5" 507 1288 basechar 0
AnchorPoint: "Anchor-4" 277 654 basechar 0
AnchorPoint: "Anchor-1" 249 10 basechar 0
AnchorPoint: "Anchor-0" 252 1288 basechar 0
LayerCount: 2
Fore
SplineSet
341 1082 m 1,0,-1
 341 0 l 1,1,-1
 156 0 l 1,2,-1
 156 1082 l 1,3,-1
 341 1082 l 1,0,-1
EndSplineSet
Substitution2: "'smcp' Lowercase to Small Capitals lookup 1 subtable" I.smcp
EndChar

StartChar: kgreenlandic
Encoding: 312 312 143
Width: 1140
GlyphClass: 2
Flags: W
AnchorPoint: "Anchor-5" 1140 1290 basechar 0
AnchorPoint: "Anchor-1" 590 10 basechar 0
AnchorPoint: "Anchor-0" 590 1290 basechar 0
LayerCount: 2
Fore
SplineSet
854 0 m 1,0,-1
 448 462 l 1,1,-1
 340 462 l 1,2,-1
 340 0 l 1,3,-1
 155 0 l 1,4,-1
 155 1082 l 1,5,-1
 340 1082 l 1,6,-1
 340 624 l 1,7,-1
 432 624 l 1,8,-1
 828 1082 l 1,9,-1
 1052 1082 l 1,10,-1
 600 558 l 1,11,-1
 1088 0 l 1,12,-1
 854 0 l 1,0,-1
EndSplineSet
EndChar

StartChar: Lslash
Encoding: 321 321 144
Width: 1103
GlyphClass: 2
Flags: W
AnchorPoint: "Anchor-5" 1103 1596 basechar 0
AnchorPoint: "Anchor-1" 618 10 basechar 0
AnchorPoint: "Anchor-0" 262 1596 basechar 0
LayerCount: 2
Fore
SplineSet
1052 157 m 1,0,-1
 1052 0 l 1,1,-1
 169 0 l 1,2,-1
 169 659 l 1,3,-1
 35 616 l 1,4,-1
 35 741 l 1,5,-1
 169 784 l 1,6,-1
 169 1456 l 1,7,-1
 361 1456 l 1,8,-1
 361 845 l 1,9,-1
 624 928 l 1,10,-1
 624 803 l 1,11,-1
 361 720 l 1,12,-1
 361 157 l 1,13,-1
 1052 157 l 1,0,-1
EndSplineSet
Substitution2: "'c2sc' Capitals to Small Capitals lookup 0 subtable" Lslash.smcp
Position2: "'cpsp' Capital Spacing lookup 0 subtable" dx=36 dy=0 dh=72 dv=0
EndChar

StartChar: lslash
Encoding: 322 322 145
Width: 554
GlyphClass: 2
Flags: W
AnchorPoint: "Anchor-5" 554 1697 basechar 0
AnchorPoint: "Anchor-1" 280 10 basechar 0
AnchorPoint: "Anchor-0" 280 1697 basechar 0
LayerCount: 2
Fore
SplineSet
523 808 m 1,0,-1
 364 747 l 1,1,-1
 364 0 l 1,2,-1
 179 0 l 1,3,-1
 179 676 l 1,4,-1
 35 621 l 1,5,-1
 35 743 l 1,6,-1
 179 798 l 1,7,-1
 179 1536 l 1,8,-1
 364 1536 l 1,9,-1
 364 869 l 1,10,-1
 523 930 l 1,11,-1
 523 808 l 1,0,-1
EndSplineSet
Substitution2: "'smcp' Lowercase to Small Capitals lookup 1 subtable" Lslash.smcp
EndChar

StartChar: Eng
Encoding: 330 330 146
Width: 1419
GlyphClass: 2
Flags: W
AnchorPoint: "Anchor-5" 1419 1601 basechar 0
AnchorPoint: "Anchor-1" 720 10 basechar 0
AnchorPoint: "Anchor-0" 726 1601 basechar 0
LayerCount: 2
Fore
SplineSet
162 0 m 1,0,-1
 162 1456 l 1,1,-1
 355 1456 l 1,2,-1
 1072 327 l 1,3,-1
 1072 1456 l 1,4,-1
 1265 1456 l 1,5,-1
 1265 -84 l 2,6,7
 1265 -255 1265 -255 1178 -346 c 128,-1,8
 1091 -437 1091 -437 938 -437 c 0,9,10
 875 -437 875 -437 823 -420 c 1,11,-1
 837 -266 l 1,12,13
 854 -272 854 -272 887 -275.5 c 128,-1,14
 920 -279 920 -279 935 -279 c 0,15,16
 1072 -279 1072 -279 1072 -84 c 2,17,-1
 1072 0 l 1,18,-1
 355 1129 l 1,19,-1
 355 0 l 1,20,-1
 162 0 l 1,0,-1
EndSplineSet
Substitution2: "'c2sc' Capitals to Small Capitals lookup 0 subtable" Eng.smcp
Position2: "'cpsp' Capital Spacing lookup 0 subtable" dx=36 dy=0 dh=72 dv=0
EndChar

StartChar: eng
Encoding: 331 331 147
Width: 1161
GlyphClass: 2
Flags: W
AnchorPoint: "Anchor-7" 797 -304 basechar 0
AnchorPoint: "Anchor-5" 1161 1290 basechar 0
AnchorPoint: "Anchor-1" 563 10 basechar 0
AnchorPoint: "Anchor-0" 573 1290 basechar 0
LayerCount: 2
Fore
SplineSet
1009 -89 m 2,0,1
 1009 -258 1009 -258 923.5 -347.5 c 128,-1,2
 838 -437 838 -437 686 -437 c 0,3,4
 624 -437 624 -437 572 -420 c 1,5,-1
 586 -263 l 1,6,7
 602 -269 602 -269 637 -272 c 128,-1,8
 672 -275 672 -275 686 -275 c 0,9,10
 824 -275 824 -275 824 -89 c 2,11,-1
 824 679 l 2,12,13
 824 829 824 829 762.5 887.5 c 128,-1,14
 701 946 701 946 588 946 c 0,15,16
 495 946 495 946 431.5 910 c 128,-1,17
 368 874 368 874 331 812 c 1,18,-1
 331 0 l 1,19,-1
 146 0 l 1,20,-1
 146 1082 l 1,21,-1
 312 1082 l 1,22,-1
 325 929 l 1,23,24
 378 1010 378 1010 458.5 1056 c 128,-1,25
 539 1102 539 1102 643 1102 c 0,26,27
 812 1102 812 1102 910.5 1003.5 c 128,-1,28
 1009 905 1009 905 1009 682 c 2,29,-1
 1009 -89 l 2,0,1
EndSplineSet
Substitution2: "'unic' Unicase lookup 2 subtable" Eng
Substitution2: "'smcp' Lowercase to Small Capitals lookup 1 subtable" Eng.smcp
EndChar

StartChar: OE
Encoding: 338 338 148
Width: 1953
GlyphClass: 2
Flags: W
AnchorPoint: "Anchor-5" 1953 1603 basechar 0
AnchorPoint: "Anchor-3" 1953 -407 basechar 0
AnchorPoint: "Anchor-2" 1953 1600 basechar 0
AnchorPoint: "Anchor-1" 953 0 basechar 0
AnchorPoint: "Anchor-0" 953 1603 basechar 0
LayerCount: 2
Fore
SplineSet
1801 157 m 1,0,-1
 1801 0 l 1,1,-1
 954 0 l 1,2,3
 886 -8 886 -8 812 -14.5 c 128,-1,4
 738 -21 738 -21 662 -21 c 0,5,6
 414 -21 414 -21 259.5 145 c 128,-1,7
 105 311 105 311 105 576 c 2,8,-1
 105 880 l 2,9,10
 105 1145 105 1145 258.5 1311 c 128,-1,11
 412 1477 412 1477 660 1477 c 0,12,13
 736 1477 736 1477 811 1470.5 c 128,-1,14
 886 1464 886 1464 954 1456 c 1,15,-1
 1791 1456 l 1,16,-1
 1791 1298 l 1,17,-1
 1069 1298 l 1,18,-1
 1069 830 l 1,19,-1
 1699 830 l 1,20,-1
 1699 673 l 1,21,-1
 1069 673 l 1,22,-1
 1069 157 l 1,23,-1
 1801 157 l 1,0,-1
290 576 m 2,24,25
 290 358 290 358 391 244.5 c 128,-1,26
 492 131 492 131 662 131 c 0,27,28
 767 131 767 131 876 146 c 1,29,-1
 876 1310 l 1,30,31
 766 1325 766 1325 660 1325 c 0,32,33
 490 1325 490 1325 390 1212.5 c 128,-1,34
 290 1100 290 1100 290 882 c 2,35,-1
 290 576 l 2,24,25
EndSplineSet
Substitution2: "'c2sc' Capitals to Small Capitals lookup 0 subtable" OE.smcp
Position2: "'cpsp' Capital Spacing lookup 0 subtable" dx=36 dy=0 dh=72 dv=0
EndChar

StartChar: oe
Encoding: 339 339 149
Width: 1860
GlyphClass: 2
Flags: W
AnchorPoint: "Anchor-5" 1860 1290 basechar 0
AnchorPoint: "Anchor-3" 1860 -407 basechar 0
AnchorPoint: "Anchor-2" 1860 1600 basechar 0
AnchorPoint: "Anchor-1" 945 -1 basechar 0
AnchorPoint: "Anchor-0" 945 1290 basechar 0
LayerCount: 2
Fore
SplineSet
1761 113 m 1,0,1
 1712 65 1712 65 1619 22 c 128,-1,2
 1526 -21 1526 -21 1379 -21 c 0,3,4
 1245 -21 1245 -21 1142 36 c 128,-1,5
 1039 93 1039 93 976 192 c 1,6,7
 915 94 915 94 815 36.5 c 128,-1,8
 715 -21 715 -21 581 -21 c 0,9,10
 354 -21 354 -21 225.5 136.5 c 128,-1,11
 97 294 97 294 97 529 c 2,12,-1
 97 552 l 2,13,14
 97 787 97 787 225 944.5 c 128,-1,15
 353 1102 353 1102 579 1102 c 0,16,17
 715 1102 715 1102 816 1044 c 128,-1,18
 917 986 917 986 978 886 c 1,19,20
 1043 987 1043 987 1141.5 1045 c 128,-1,21
 1240 1103 1240 1103 1351 1102 c 0,22,23
 1574 1102 1574 1102 1683 967 c 128,-1,24
 1792 832 1792 832 1792 620 c 2,25,-1
 1792 498 l 1,26,-1
 1075 498 l 1,27,28
 1080 344 1080 344 1156.5 237.5 c 128,-1,29
 1233 131 1233 131 1379 131 c 0,30,31
 1488 131 1488 131 1563 162.5 c 128,-1,32
 1638 194 1638 194 1688 239 c 1,33,-1
 1761 113 l 1,0,1
1351 950 m 0,34,35
 1246 950 1246 950 1173.5 864.5 c 128,-1,36
 1101 779 1101 779 1081 649 c 1,37,-1
 1607 649 l 1,38,-1
 1607 675 l 2,39,40
 1607 784 1607 784 1545.5 867 c 128,-1,41
 1484 950 1484 950 1351 950 c 0,34,35
283 552 m 2,42,-1
 283 529 l 2,43,44
 283 368 283 368 355 249.5 c 128,-1,45
 427 131 427 131 581 131 c 0,46,47
 734 131 734 131 806.5 249.5 c 128,-1,48
 879 368 879 368 879 529 c 2,49,-1
 879 552 l 2,50,51
 879 711 879 711 806.5 830.5 c 128,-1,52
 734 950 734 950 579 950 c 0,53,54
 427 950 427 950 355 830.5 c 128,-1,55
 283 711 283 711 283 552 c 2,42,-1
EndSplineSet
Substitution2: "'unic' Unicase lookup 2 subtable" OE
Substitution2: "'smcp' Lowercase to Small Capitals lookup 1 subtable" OE.smcp
EndChar

StartChar: longs
Encoding: 383 383 150
Width: 508
GlyphClass: 2
Flags: W
AnchorPoint: "Anchor-5" 508 1754 basechar 0
AnchorPoint: "Anchor-1" 248 10 basechar 0
AnchorPoint: "Anchor-0" 428 1754 basechar 0
LayerCount: 2
Fore
SplineSet
346 0 m 1,0,-1
 161 0 l 1,1,-1
 161 1196 l 2,2,3
 161 1371 161 1371 251.5 1464 c 128,-1,4
 342 1557 342 1557 499 1557 c 0,5,6
 536 1557 536 1557 571 1551 c 128,-1,7
 606 1545 606 1545 643 1536 c 1,8,-1
 619 1394 l 1,9,10
 602 1398 602 1398 579.5 1401.5 c 128,-1,11
 557 1405 557 1405 528 1405 c 0,12,13
 346 1405 346 1405 346 1196 c 2,14,-1
 346 0 l 1,0,-1
EndSplineSet
EndChar

StartChar: Bhook
Encoding: 385 385 152
Width: 1480
Flags: W
LayerCount: 2
Fore
SplineSet
29 1173 m 0,0,1
 29 1456 29 1456 373 1456 c 1,2,-1
 373 1456 l 1,3,-1
 850 1456 l 2,4,5
 1074 1456 1074 1456 1199.5 1363.5 c 128,-1,6
 1325 1271 1325 1271 1325 1068 c 0,7,8
 1325 967 1325 967 1267.5 888.5 c 128,-1,9
 1210 810 1210 810 1110 767 c 1,10,11
 1233 733 1233 733 1298.5 638 c 128,-1,12
 1364 543 1364 543 1364 420 c 0,13,14
 1364 216 1364 216 1232.5 108 c 128,-1,15
 1101 0 1101 0 883 0 c 2,16,-1
 373 0 l 1,17,-1
 373 1298 l 1,18,19
 187 1296 187 1296 187 1125 c 0,20,21
 187 1111 187 1111 189 1092 c 128,-1,22
 191 1073 191 1073 196 1058 c 1,23,-1
 46 1057 l 1,24,25
 29 1111 29 1111 29 1173 c 0,0,1
566 1298 m 1,26,-1
 566 836 l 1,27,-1
 856 836 l 2,28,29
 980 836 980 836 1056 898 c 128,-1,30
 1132 960 1132 960 1132 1070 c 0,31,32
 1132 1298 1132 1298 850 1298 c 2,33,-1
 566 1298 l 1,26,-1
1172 418 m 0,34,35
 1172 540 1172 540 1105.5 610.5 c 128,-1,36
 1039 681 1039 681 892 681 c 2,37,-1
 566 681 l 1,38,-1
 566 157 l 1,39,-1
 883 157 l 2,40,41
 1020 157 1020 157 1096 227.5 c 128,-1,42
 1172 298 1172 298 1172 418 c 0,34,35
EndSplineSet
EndChar

StartChar: btopbar
Encoding: 387 387 154
Width: 1150
Flags: W
LayerCount: 2
Fore
SplineSet
140 0 m 1,0,-1
 140 1536 l 1,1,-1
 840 1536 l 1,2,-1
 840 1384 l 1,3,-1
 326 1384 l 1,4,-1
 326 965 l 1,5,6
 436 1102 436 1102 634 1102 c 0,7,8
 838 1102 838 1102 947.5 950 c 128,-1,9
 1057 798 1057 798 1057 550 c 2,10,-1
 1057 529 l 2,11,12
 1057 292 1057 292 947 136 c 128,-1,13
 837 -20 837 -20 636 -20 c 0,14,15
 431 -20 431 -20 320 125 c 1,16,-1
 310 0 l 1,17,-1
 140 0 l 1,0,-1
588 946 m 0,18,19
 487 946 487 946 424 897.5 c 128,-1,20
 361 849 361 849 326 778 c 1,21,-1
 326 307 l 1,22,23
 362 235 362 235 426 186 c 128,-1,24
 490 137 490 137 590 137 c 0,25,26
 740 137 740 137 805.5 252.5 c 128,-1,27
 871 368 871 368 871 529 c 2,28,-1
 871 550 l 2,29,30
 871 711 871 711 808.5 828.5 c 128,-1,31
 746 946 746 946 588 946 c 0,18,19
EndSplineSet
EndChar

StartChar: Tonesix
Encoding: 388 388 155
Width: 1375
Flags: W
LayerCount: 2
Fore
SplineSet
1294 435 m 0,0,1
 1294 243 1294 243 1166.5 121.5 c 128,-1,2
 1039 0 1039 0 800 0 c 2,3,-1
 256 0 l 1,4,-1
 256 967 l 1,5,-1
 98 1173 l 1,6,-1
 98 1249 l 1,7,-1
 256 1456 l 1,8,-1
 449 1456 l 1,9,-1
 449 863 l 1,10,-1
 800 863 l 2,11,12
 1039 863 1039 863 1166.5 745.5 c 128,-1,13
 1294 628 1294 628 1294 435 c 0,0,1
449 157 m 1,14,-1
 800 157 l 2,15,16
 960 157 960 157 1030.5 242 c 128,-1,17
 1101 327 1101 327 1101 437 c 0,18,19
 1101 546 1101 546 1030.5 625.5 c 128,-1,20
 960 705 960 705 800 705 c 2,21,-1
 449 705 l 1,22,-1
 449 157 l 1,14,-1
EndSplineSet
EndChar

StartChar: tonesix
Encoding: 389 389 156
Width: 1262
Flags: W
LayerCount: 2
Fore
SplineSet
1171 529 m 2,0,1
 1171 292 1171 292 1061.5 136 c 128,-1,2
 952 -20 952 -20 751 -20 c 0,3,4
 545 -20 545 -20 434 125 c 1,5,-1
 425 0 l 1,6,-1
 255 0 l 1,7,-1
 255 1047 l 1,8,-1
 97 1253 l 1,9,-1
 97 1329 l 1,10,-1
 255 1536 l 1,11,-1
 440 1536 l 1,12,-1
 440 963 l 1,13,14
 550 1102 550 1102 749 1102 c 0,15,16
 952 1102 952 1102 1061.5 950 c 128,-1,17
 1171 798 1171 798 1171 550 c 2,18,-1
 1171 529 l 2,0,1
703 946 m 0,19,20
 602 946 602 946 538.5 897 c 128,-1,21
 475 848 475 848 440 776 c 1,22,-1
 440 307 l 1,23,24
 475 236 475 236 539.5 186.5 c 128,-1,25
 604 137 604 137 705 137 c 0,26,27
 854 137 854 137 920 252.5 c 128,-1,28
 986 368 986 368 986 529 c 2,29,-1
 986 550 l 2,30,31
 986 711 986 711 923 828.5 c 128,-1,32
 860 946 860 946 703 946 c 0,19,20
EndSplineSet
EndChar

StartChar: Oopen
Encoding: 390 390 157
Width: 1333
Flags: W
LayerCount: 2
Fore
SplineSet
93 467 m 1,0,-1
 286 467 l 1,1,2
 308 315 308 315 383.5 226.5 c 128,-1,3
 459 138 459 138 628 138 c 0,4,5
 822 138 822 138 921.5 280 c 128,-1,6
 1021 422 1021 422 1021 654 c 2,7,-1
 1021 801 l 2,8,9
 1021 1016 1021 1016 930 1167.5 c 128,-1,10
 839 1319 839 1319 645 1319 c 0,11,12
 461 1319 461 1319 385.5 1233 c 128,-1,13
 310 1147 310 1147 286 993 c 1,14,-1
 93 993 l 1,15,16
 116 1200 116 1200 249.5 1338 c 128,-1,17
 383 1476 383 1476 645 1476 c 0,18,19
 902 1476 902 1476 1058 1291.5 c 128,-1,20
 1214 1107 1214 1107 1214 801 c 2,21,-1
 1214 656 l 2,22,23
 1214 350 1214 350 1056.5 165 c 128,-1,24
 899 -20 899 -20 628 -20 c 0,25,26
 380 -20 380 -20 248 116 c 128,-1,27
 116 252 116 252 93 467 c 1,0,-1
EndSplineSet
EndChar

StartChar: Chook
Encoding: 391 391 158
Width: 1448
Flags: W
LayerCount: 2
Fore
SplineSet
1417 1345 m 0,0,1
 1334 1345 1334 1345 1287 1305.5 c 128,-1,2
 1240 1266 1240 1266 1240 1161 c 2,3,-1
 1240 989 l 1,4,-1
 1048 989 l 1,5,6
 1026 1141 1026 1141 950 1229.5 c 128,-1,7
 874 1318 874 1318 705 1318 c 0,8,9
 512 1318 512 1318 412 1176 c 128,-1,10
 312 1034 312 1034 312 802 c 2,11,-1
 312 655 l 2,12,13
 312 440 312 440 403 288.5 c 128,-1,14
 494 137 494 137 688 137 c 0,15,16
 872 137 872 137 947.5 223 c 128,-1,17
 1023 309 1023 309 1048 463 c 1,18,-1
 1240 463 l 1,19,20
 1218 256 1218 256 1084 118 c 128,-1,21
 950 -20 950 -20 688 -20 c 0,22,23
 432 -20 432 -20 276 164.5 c 128,-1,24
 120 349 120 349 120 655 c 2,25,-1
 120 800 l 2,26,27
 120 1106 120 1106 277.5 1291 c 128,-1,28
 435 1476 435 1476 705 1476 c 0,29,30
 839 1476 839 1476 938.5 1434.5 c 128,-1,31
 1038 1393 1038 1393 1105 1319 c 1,32,33
 1162 1509 1162 1509 1370 1509 c 0,34,35
 1432 1509 1432 1509 1486 1492 c 1,36,-1
 1485 1337 l 1,37,38
 1457 1345 1457 1345 1417 1345 c 0,0,1
EndSplineSet
EndChar

StartChar: chook
Encoding: 392 392 159
Width: 1242
Flags: W
LayerCount: 2
Fore
SplineSet
1159 1017 m 0,0,1
 1086 1017 1086 1017 1045.5 979.5 c 128,-1,2
 1005 942 1005 942 1005 850 c 2,3,-1
 1005 710 l 1,4,-1
 829 710 l 1,5,6
 822 810 822 810 753.5 880 c 128,-1,7
 685 950 685 950 574 950 c 0,8,9
 460 950 460 950 395.5 892 c 128,-1,10
 331 834 331 834 304.5 745 c 128,-1,11
 278 656 278 656 278 562 c 2,12,-1
 278 520 l 2,13,14
 278 425 278 425 304 336 c 128,-1,15
 330 247 330 247 394.5 189.5 c 128,-1,16
 459 132 459 132 574 132 c 0,17,18
 673 132 673 132 747.5 191 c 128,-1,19
 822 250 822 250 829 342 c 1,20,-1
 1005 342 l 1,21,22
 998 197 998 197 872 88.5 c 128,-1,23
 746 -20 746 -20 574 -20 c 0,24,25
 330 -20 330 -20 211.5 141 c 128,-1,26
 93 302 93 302 93 520 c 2,27,-1
 93 562 l 2,28,29
 93 780 93 780 211.5 941 c 128,-1,30
 330 1102 330 1102 574 1102 c 0,31,32
 770 1102 770 1102 891 980 c 1,33,34
 936 1152 936 1152 1119 1152 c 0,35,36
 1172 1152 1172 1152 1220 1137 c 1,37,-1
 1218 1010 l 1,38,39
 1194 1017 1194 1017 1159 1017 c 0,0,1
EndSplineSet
EndChar

StartChar: Dhook
Encoding: 394 394 161
Width: 1548
Flags: W
LayerCount: 2
Fore
SplineSet
29 1173 m 0,0,1
 29 1456 29 1456 373 1456 c 1,2,-1
 373 1456 l 1,3,-1
 785 1456 l 2,4,5
 1072 1456 1072 1456 1249.5 1271.5 c 128,-1,6
 1427 1087 1427 1087 1427 771 c 2,7,-1
 1427 684 l 2,8,9
 1427 368 1427 368 1248.5 184 c 128,-1,10
 1070 0 1070 0 767 0 c 2,11,-1
 373 0 l 1,12,-1
 373 1298 l 1,13,14
 187 1296 187 1296 187 1125 c 0,15,16
 187 1111 187 1111 189 1092 c 128,-1,17
 191 1073 191 1073 196 1058 c 1,18,-1
 46 1057 l 1,19,20
 29 1111 29 1111 29 1173 c 0,0,1
785 1298 m 2,21,-1
 566 1298 l 1,22,-1
 566 157 l 1,23,-1
 767 157 l 2,24,25
 1000 157 1000 157 1118 301 c 128,-1,26
 1236 445 1236 445 1236 684 c 2,27,-1
 1236 773 l 2,28,29
 1236 1024 1236 1024 1118 1161 c 128,-1,30
 1000 1298 1000 1298 785 1298 c 2,21,-1
EndSplineSet
EndChar

StartChar: Dtopbar
Encoding: 395 395 162
Width: 1283
Flags: W
LayerCount: 2
Fore
SplineSet
1120 0 m 1,0,-1
 576 0 l 2,1,2
 337 0 337 0 209.5 121.5 c 128,-1,3
 82 243 82 243 82 435 c 0,4,5
 82 628 82 628 209.5 745.5 c 128,-1,6
 337 863 337 863 576 863 c 2,7,-1
 927 863 l 1,8,-1
 927 1298 l 1,9,-1
 225 1298 l 1,10,-1
 225 1456 l 1,11,-1
 1120 1456 l 1,12,-1
 1120 0 l 1,0,-1
927 157 m 1,13,-1
 927 705 l 1,14,-1
 576 705 l 2,15,16
 416 705 416 705 345 625.5 c 128,-1,17
 274 546 274 546 274 437 c 0,18,19
 274 327 274 327 345 242 c 128,-1,20
 416 157 416 157 576 157 c 2,21,-1
 927 157 l 1,13,-1
EndSplineSet
EndChar

StartChar: dtopbar
Encoding: 396 396 163
Width: 1155
Flags: W
LayerCount: 2
Fore
SplineSet
310 1384 m 1,0,-1
 310 1536 l 1,1,-1
 1009 1536 l 1,2,-1
 1009 0 l 1,3,-1
 839 0 l 1,4,-1
 830 116 l 1,5,6
 719 -20 719 -20 521 -20 c 0,7,8
 330 -20 330 -20 212.5 136 c 128,-1,9
 95 292 95 292 95 529 c 2,10,-1
 95 550 l 2,11,12
 95 798 95 798 212.5 950 c 128,-1,13
 330 1102 330 1102 523 1102 c 0,14,15
 714 1102 714 1102 823 974 c 1,16,-1
 823 1384 l 1,17,-1
 310 1384 l 1,0,-1
281 529 m 2,18,19
 281 368 281 368 349 252.5 c 128,-1,20
 417 137 417 137 567 137 c 0,21,22
 664 137 664 137 725 181 c 128,-1,23
 786 225 786 225 823 294 c 1,24,-1
 823 792 l 1,25,26
 787 859 787 859 725.5 902.5 c 128,-1,27
 664 946 664 946 569 946 c 0,28,29
 418 946 418 946 349.5 828.5 c 128,-1,30
 281 711 281 711 281 550 c 2,31,-1
 281 529 l 2,18,19
EndSplineSet
EndChar

StartChar: deltaturn
Encoding: 397 397 164
Width: 1161
Flags: W
LayerCount: 2
Fore
SplineSet
921 -376 m 1,0,-1
 212 -376 l 1,1,-1
 212 -228 l 1,2,-1
 671 -228 l 1,3,4
 640 -195 640 -195 575 -138.5 c 128,-1,5
 510 -82 510 -82 452 -34 c 0,6,7
 296 103 296 103 196 241 c 128,-1,8
 96 379 96 379 96 548 c 2,9,-1
 96 571 l 2,10,11
 96 798 96 798 223.5 949.5 c 128,-1,12
 351 1101 351 1101 579 1101 c 0,13,14
 806 1101 806 1101 934.5 949.5 c 128,-1,15
 1063 798 1063 798 1063 571 c 2,16,-1
 1063 548 l 2,17,18
 1063 364 1063 364 941.5 229.5 c 128,-1,19
 820 95 820 95 602 71 c 0,20,21
 583 70 583 70 558 71 c 1,22,23
 650 -13 650 -13 749.5 -97 c 128,-1,24
 849 -181 849 -181 921 -261 c 1,25,-1
 921 -376 l 1,0,-1
877 548 m 2,26,-1
 877 571 l 2,27,28
 877 724 877 724 805.5 837 c 128,-1,29
 734 950 734 950 579 950 c 0,30,31
 426 950 426 950 353.5 837 c 128,-1,32
 281 724 281 724 281 571 c 2,33,-1
 281 548 l 2,34,35
 281 426 281 426 337 336 c 128,-1,36
 393 246 393 246 459 200 c 1,37,38
 506 189 506 189 558 189 c 0,39,40
 722 189 722 189 799.5 297.5 c 128,-1,41
 877 406 877 406 877 548 c 2,26,-1
EndSplineSet
EndChar

StartChar: Eturn
Encoding: 398 398 165
Width: 1164
Flags: W
LayerCount: 2
Fore
SplineSet
70 1299 m 1,0,-1
 70 1456 l 1,1,-1
 995 1456 l 1,2,-1
 995 0 l 1,3,-1
 80 0 l 1,4,-1
 80 158 l 1,5,-1
 802 158 l 1,6,-1
 802 630 l 1,7,-1
 172 630 l 1,8,-1
 172 787 l 1,9,-1
 802 787 l 1,10,-1
 802 1299 l 1,11,-1
 70 1299 l 1,0,-1
EndSplineSet
EndChar

StartChar: Schwa
Encoding: 399 399 166
Width: 1415
GlyphClass: 2
Flags: W
AnchorPoint: "Anchor-5" 1415 1603 basechar 0
AnchorPoint: "Anchor-1" 696 0 basechar 0
AnchorPoint: "Anchor-0" 661 1603 basechar 0
LayerCount: 2
Fore
SplineSet
1298 680 m 2,0,1
 1298 473 1298 473 1217.5 315.5 c 128,-1,2
 1137 158 1137 158 1000.5 69 c 128,-1,3
 864 -20 864 -20 697 -20 c 0,4,5
 400 -20 400 -20 247 159 c 128,-1,6
 94 338 94 338 94 643 c 2,7,-1
 94 767 l 1,8,-1
 1106 767 l 1,9,-1
 1106 774 l 2,10,11
 1106 999 1106 999 997 1157.5 c 128,-1,12
 888 1316 888 1316 641 1316 c 0,13,14
 510 1316 510 1316 422 1288 c 128,-1,15
 334 1260 334 1260 276 1232 c 1,16,-1
 229 1375 l 1,17,18
 265 1399 265 1399 366.5 1437.5 c 128,-1,19
 468 1476 468 1476 641 1476 c 0,20,21
 959 1476 959 1476 1128.5 1279.5 c 128,-1,22
 1298 1083 1298 1083 1298 774 c 2,23,-1
 1298 680 l 2,0,1
697 139 m 0,24,25
 879 139 879 139 984 277.5 c 128,-1,26
 1089 416 1089 416 1104 618 c 1,27,-1
 287 618 l 1,28,-1
 287 584 l 2,29,30
 287 398 287 398 378.5 268.5 c 128,-1,31
 470 139 470 139 697 139 c 0,24,25
EndSplineSet
EndChar

StartChar: Epsilon1
Encoding: 400 400 167
Width: 1226
GlyphClass: 2
Flags: W
AnchorPoint: "Anchor-5" 1226 1603 basechar 0
AnchorPoint: "Anchor-1" 611 0 basechar 0
AnchorPoint: "Anchor-0" 611 1603 basechar 0
LayerCount: 2
Fore
SplineSet
609 822 m 2,0,-1
 774 822 l 1,1,-1
 774 663 l 1,2,-1
 609 663 l 2,3,4
 277 663 277 663 277 402 c 0,5,6
 277 268 277 268 370.5 202 c 128,-1,7
 464 136 464 136 623 136 c 0,8,9
 770 136 770 136 856.5 214 c 128,-1,10
 943 292 943 292 943 404 c 1,11,-1
 1135 404 l 1,12,13
 1135 255 1135 255 1059 161 c 128,-1,14
 983 67 983 67 865.5 23 c 128,-1,15
 748 -21 748 -21 623 -21 c 0,16,17
 394 -21 394 -21 239.5 78 c 128,-1,18
 85 177 85 177 85 406 c 0,19,20
 85 658 85 658 338 745 c 1,21,22
 231 788 231 788 169 869 c 128,-1,23
 107 950 107 950 107 1063 c 0,24,25
 107 1266 107 1266 248.5 1371.5 c 128,-1,26
 390 1477 390 1477 623 1477 c 0,27,28
 823 1477 823 1477 968.5 1369 c 128,-1,29
 1114 1261 1114 1261 1114 1075 c 1,30,-1
 922 1075 l 1,31,32
 922 1183 922 1183 836.5 1251 c 128,-1,33
 751 1319 751 1319 623 1319 c 0,34,35
 453 1319 453 1319 376 1246 c 128,-1,36
 299 1173 299 1173 299 1067 c 0,37,38
 299 958 299 958 370.5 890 c 128,-1,39
 442 822 442 822 609 822 c 2,0,-1
EndSplineSet
EndChar

StartChar: Fhook
Encoding: 401 401 168
Width: 1194
Flags: W
LayerCount: 2
Fore
SplineSet
1133 1298 m 1,0,-1
 423 1298 l 1,1,-1
 423 801 l 1,2,-1
 1033 801 l 1,3,-1
 1033 643 l 1,4,-1
 423 643 l 1,5,-1
 423 -89 l 2,6,7
 423 -258 423 -258 336 -347.5 c 128,-1,8
 249 -437 249 -437 98 -437 c 0,9,10
 36 -437 36 -437 -14 -420 c 1,11,-1
 0 -260 l 1,12,13
 46 -274 46 -274 98 -274 c 0,14,15
 231 -274 231 -274 231 -89 c 2,16,-1
 231 1456 l 1,17,-1
 1133 1456 l 1,18,-1
 1133 1298 l 1,0,-1
EndSplineSet
EndChar

StartChar: florin
Encoding: 402 402 169
Width: 698
Flags: W
LayerCount: 2
Fore
SplineSet
608 1082 m 1,0,-1
 608 940 l 1,1,-1
 405 940 l 1,2,-1
 405 -89 l 2,3,4
 405 -258 405 -258 319.5 -347.5 c 128,-1,5
 234 -437 234 -437 83 -437 c 0,6,7
 21 -437 21 -437 -29 -420 c 1,8,-1
 -15 -272 l 1,9,10
 0 -278 0 -278 34.5 -281.5 c 128,-1,11
 69 -285 69 -285 83 -285 c 0,12,13
 220 -285 220 -285 220 -89 c 2,14,-1
 220 940 l 1,15,-1
 49 940 l 1,16,-1
 49 1082 l 1,17,-1
 220 1082 l 1,18,-1
 220 1196 l 2,19,20
 220 1371 220 1371 310 1464 c 128,-1,21
 400 1557 400 1557 558 1557 c 0,22,23
 594 1557 594 1557 629.5 1551 c 128,-1,24
 665 1545 665 1545 701 1536 c 1,25,-1
 679 1390 l 1,26,27
 637 1400 637 1400 580 1400 c 0,28,29
 405 1400 405 1400 405 1196 c 2,30,-1
 405 1082 l 1,31,-1
 608 1082 l 1,0,-1
EndSplineSet
EndChar

StartChar: Ghook
Encoding: 403 403 170
Width: 1451
Flags: W
LayerCount: 2
Fore
SplineSet
1421 1352 m 0,0,1
 1338 1352 1338 1352 1291.5 1309 c 128,-1,2
 1245 1266 1245 1266 1245 1161 c 2,3,-1
 1245 1030 l 1,4,-1
 1052 1030 l 1,5,6
 1032 1148 1032 1148 953.5 1233 c 128,-1,7
 875 1318 875 1318 708 1318 c 0,8,9
 506 1318 506 1318 411 1175 c 128,-1,10
 316 1032 316 1032 316 787 c 2,11,-1
 316 672 l 2,12,13
 316 420 316 420 430 278.5 c 128,-1,14
 544 137 544 137 731 137 c 0,15,16
 886 137 886 137 955 173.5 c 128,-1,17
 1024 210 1024 210 1053 243 c 1,18,-1
 1053 569 l 1,19,-1
 716 569 l 1,20,-1
 716 725 l 1,21,-1
 1245 725 l 1,22,-1
 1245 192 l 1,23,24
 1204 132 1204 132 1089 56 c 128,-1,25
 974 -20 974 -20 730 -20 c 0,26,27
 464 -20 464 -20 293 162.5 c 128,-1,28
 122 345 122 345 122 672 c 2,29,-1
 122 785 l 2,30,31
 122 1110 122 1110 274 1293 c 128,-1,32
 426 1476 426 1476 708 1476 c 0,33,34
 846 1476 846 1476 947 1435.5 c 128,-1,35
 1048 1395 1048 1395 1114 1324 c 1,36,37
 1171 1509 1171 1509 1375 1509 c 0,38,39
 1436 1509 1436 1509 1490 1492 c 1,40,-1
 1489 1343 l 1,41,42
 1459 1352 1459 1352 1421 1352 c 0,0,1
EndSplineSet
EndChar

StartChar: Gamma1
Encoding: 404 404 171
Width: 1286
Flags: W
LayerCount: 2
Fore
SplineSet
899 -194 m 0,0,1
 899 -306 899 -306 831.5 -367.5 c 128,-1,2
 764 -429 764 -429 643 -429 c 256,3,4
 522 -429 522 -429 454.5 -367.5 c 128,-1,5
 387 -306 387 -306 387 -194 c 0,6,7
 387 -124 387 -124 430.5 -28 c 128,-1,8
 474 68 474 68 549 250 c 1,9,-1
 21 1456 l 1,10,-1
 235 1456 l 1,11,-1
 641 470 l 1,12,-1
 1052 1456 l 1,13,-1
 1265 1456 l 1,14,-1
 734 244 l 1,15,16
 806 65 806 65 852.5 -30 c 128,-1,17
 899 -125 899 -125 899 -194 c 0,0,1
572 -194 m 0,18,19
 572 -272 572 -272 643 -272 c 0,20,21
 683 -272 683 -272 698.5 -249 c 128,-1,22
 714 -226 714 -226 714 -194 c 0,23,24
 714 -131 714 -131 643 35 c 1,25,26
 572 -133 572 -133 572 -194 c 0,18,19
EndSplineSet
EndChar

StartChar: hv
Encoding: 405 405 172
Width: 1715
Flags: W
LayerCount: 2
Fore
SplineSet
645 1102 m 0,0,1
 845 1102 845 1102 918.5 988 c 128,-1,2
 992 874 992 874 992 705 c 2,3,-1
 992 443 l 2,4,5
 992 261 992 261 1053.5 199 c 128,-1,6
 1115 137 1115 137 1191 137 c 256,7,8
 1267 137 1267 137 1328.5 199 c 128,-1,9
 1390 261 1390 261 1390 443 c 2,10,-1
 1390 1082 l 1,11,-1
 1576 1082 l 1,12,-1
 1576 445 l 2,13,14
 1576 198 1576 198 1475 89 c 128,-1,15
 1374 -20 1374 -20 1191 -20 c 0,16,17
 1009 -20 1009 -20 907.5 89 c 128,-1,18
 806 198 806 198 806 445 c 2,19,-1
 806 705 l 2,20,21
 806 813 806 813 761.5 879.5 c 128,-1,22
 717 946 717 946 590 946 c 0,23,24
 501 946 501 946 433 898 c 128,-1,25
 365 850 365 850 326 773 c 1,26,-1
 326 0 l 1,27,-1
 141 0 l 1,28,-1
 141 1536 l 1,29,-1
 326 1536 l 1,30,-1
 326 953 l 1,31,32
 449 1102 449 1102 645 1102 c 0,0,1
EndSplineSet
EndChar

StartChar: Khook
Encoding: 408 408 174
Width: 1285
Flags: W
LayerCount: 2
Fore
SplineSet
1055 0 m 1,0,-1
 545 672 l 1,1,-1
 362 464 l 1,2,-1
 362 0 l 1,3,-1
 169 0 l 1,4,-1
 169 1456 l 1,5,-1
 362 1456 l 1,6,-1
 362 716 l 1,7,-1
 520 912 l 1,8,-1
 814 1280 l 2,9,10
 883 1367 883 1367 943 1421.5 c 128,-1,11
 1003 1476 1003 1476 1093 1476 c 0,12,13
 1152 1476 1152 1476 1202.5 1453.5 c 128,-1,14
 1253 1431 1253 1431 1293 1397 c 1,15,-1
 1225 1265 l 1,16,17
 1204 1280 1204 1280 1177 1290.5 c 128,-1,18
 1150 1301 1150 1301 1112 1301 c 0,19,20
 1068 1301 1068 1301 1038.5 1272.5 c 128,-1,21
 1009 1244 1009 1244 969 1194 c 2,22,-1
 667 816 l 1,23,-1
 1285 0 l 1,24,-1
 1055 0 l 1,0,-1
EndSplineSet
EndChar

StartChar: khook
Encoding: 409 409 175
Width: 1038
Flags: W
LayerCount: 2
Fore
SplineSet
481 1422 m 0,0,1
 408 1422 408 1422 367.5 1384 c 128,-1,2
 327 1346 327 1346 327 1255 c 2,3,-1
 327 608 l 1,4,-1
 426 726 l 1,5,-1
 762 1082 l 1,6,-1
 988 1082 l 1,7,-1
 566 631 l 1,8,-1
 1037 0 l 1,9,-1
 819 0 l 1,10,-1
 444 502 l 1,11,-1
 327 381 l 1,12,-1
 327 0 l 1,13,-1
 141 0 l 1,14,-1
 141 1255 l 2,15,16
 141 1401 141 1401 229 1479 c 128,-1,17
 317 1557 317 1557 441 1557 c 0,18,19
 494 1557 494 1557 542 1542 c 1,20,-1
 540 1414 l 1,21,22
 513 1422 513 1422 481 1422 c 0,0,1
EndSplineSet
EndChar

StartChar: lambdabar
Encoding: 411 411 177
Width: 1135
Flags: W
AnchorPoint: "Anchor-5" 973 1611 basechar 0
LayerCount: 2
Fore
SplineSet
1083 -5 m 1,0,1
 1072 -9 1072 -9 1050 -13 c 128,-1,2
 1028 -17 1028 -17 1006 -17 c 0,3,4
 914 -17 914 -17 861 19.5 c 128,-1,5
 808 56 808 56 759 186 c 2,6,-1
 529 781 l 1,7,-1
 243 0 l 1,8,-1
 38 0 l 1,9,-1
 432 1030 l 1,10,-1
 388 1136 l 1,11,-1
 204 1066 l 1,12,-1
 204 1228 l 1,13,-1
 330 1276 l 1,14,15
 292 1366 292 1366 214 1366 c 0,16,17
 191 1366 191 1366 167 1364 c 1,18,-1
 166 1506 l 1,19,20
 206 1518 206 1518 262 1518 c 0,21,22
 374 1518 374 1518 429 1471 c 128,-1,23
 484 1424 484 1424 512 1346 c 1,24,-1
 692 1415 l 1,25,-1
 692 1253 l 1,26,-1
 567 1205 l 1,27,-1
 940 234 l 2,28,29
 976 145 976 145 1040 145 c 0,30,31
 1067 145 1067 145 1077 147 c 1,32,-1
 1083 -5 l 1,0,1
EndSplineSet
EndChar

StartChar: mcapturn
Encoding: 412 412 178
Width: 1865
Flags: W
LayerCount: 2
Fore
SplineSet
1517 0 m 1,0,-1
 1511 123 l 1,1,2
 1461 56 1461 56 1383 18 c 128,-1,3
 1305 -20 1305 -20 1195 -20 c 0,4,5
 1086 -20 1086 -20 1004.5 25.5 c 128,-1,6
 923 71 923 71 880 181 c 1,7,8
 833 88 833 88 746.5 34 c 128,-1,9
 660 -20 660 -20 528 -20 c 0,10,11
 367 -20 367 -20 270 82 c 128,-1,12
 173 184 173 184 173 445 c 2,13,-1
 173 1456 l 1,14,-1
 358 1456 l 1,15,-1
 358 443 l 2,16,17
 358 261 358 261 420 199 c 128,-1,18
 482 137 482 137 558 137 c 0,19,20
 685 137 685 137 752.5 201 c 128,-1,21
 820 265 820 265 843 366 c 1,22,23
 840 404 840 404 840 445 c 2,24,-1
 840 1456 l 1,25,-1
 1025 1456 l 1,26,-1
 1025 443 l 2,27,28
 1025 261 1025 261 1087 199 c 128,-1,29
 1149 137 1149 137 1225 137 c 0,30,31
 1349 137 1349 137 1416 197.5 c 128,-1,32
 1483 258 1483 258 1507 355 c 1,33,-1
 1507 1456 l 1,34,-1
 1692 1456 l 1,35,-1
 1692 0 l 1,36,-1
 1517 0 l 1,0,-1
EndSplineSet
EndChar

StartChar: Nhook
Encoding: 413 413 179
Width: 1522
Flags: W
LayerCount: 2
Fore
SplineSet
1156 0 m 1,0,-1
 423 1123 l 1,1,-1
 423 -89 l 2,2,3
 423 -258 423 -258 336 -347.5 c 128,-1,4
 249 -437 249 -437 98 -437 c 0,5,6
 36 -437 36 -437 -14 -420 c 1,7,-1
 0 -260 l 1,8,9
 46 -274 46 -274 98 -274 c 0,10,11
 231 -274 231 -274 231 -89 c 2,12,-1
 231 1456 l 1,13,-1
 423 1456 l 1,14,-1
 1159 330 l 1,15,-1
 1159 1456 l 1,16,-1
 1350 1456 l 1,17,-1
 1350 0 l 1,18,-1
 1156 0 l 1,0,-1
EndSplineSet
EndChar

StartChar: Ohorn
Encoding: 416 416 180
Width: 1407
GlyphClass: 2
Flags: W
AnchorPoint: "Anchor-5" 1407 1595 basechar 0
AnchorPoint: "Anchor-1" 692 0 basechar 0
AnchorPoint: "Anchor-0" 703 1595 basechar 0
LayerCount: 2
Fore
SplineSet
1273 682 m 2,0,1
 1273 354 1273 354 1114 167 c 128,-1,2
 955 -20 955 -20 689 -20 c 0,3,4
 430 -20 430 -20 266 167 c 128,-1,5
 102 354 102 354 102 682 c 2,6,-1
 102 774 l 2,7,8
 102 1101 102 1101 265 1288.5 c 128,-1,9
 428 1476 428 1476 687 1476 c 0,10,11
 928 1476 928 1476 1082 1322 c 1,12,13
 1186 1330 1186 1330 1228 1400.5 c 128,-1,14
 1270 1471 1270 1471 1270 1592 c 1,15,-1
 1437 1592 l 1,16,17
 1437 1259 1437 1259 1175 1199 c 1,18,19
 1273 1025 1273 1025 1273 774 c 2,20,-1
 1273 682 l 2,0,1
1082 682 m 2,21,-1
 1082 776 l 2,22,23
 1082 1036 1082 1036 978 1174 c 128,-1,24
 874 1312 874 1312 687 1312 c 0,25,26
 508 1312 508 1312 400.5 1174 c 128,-1,27
 293 1036 293 1036 293 776 c 2,28,-1
 293 682 l 2,29,30
 293 420 293 420 401.5 281.5 c 128,-1,31
 510 143 510 143 689 143 c 0,32,33
 877 143 877 143 979.5 281.5 c 128,-1,34
 1082 420 1082 420 1082 682 c 2,21,-1
EndSplineSet
EndChar

StartChar: ohorn
Encoding: 417 417 181
Width: 1171
GlyphClass: 2
Flags: W
AnchorPoint: "Anchor-5" 1171 1290 basechar 0
AnchorPoint: "Anchor-1" 582 -10 basechar 0
AnchorPoint: "Anchor-0" 582 1290 basechar 0
LayerCount: 2
Fore
SplineSet
1076 529 m 2,0,1
 1076 294 1076 294 944 137 c 128,-1,2
 812 -20 812 -20 585 -20 c 0,3,4
 357 -20 357 -20 224.5 137 c 128,-1,5
 92 294 92 294 92 529 c 2,6,-1
 92 552 l 2,7,8
 92 787 92 787 224 944.5 c 128,-1,9
 356 1102 356 1102 583 1102 c 0,10,11
 792 1102 792 1102 926 964 c 1,12,13
 1013 975 1013 975 1037 1039 c 128,-1,14
 1061 1103 1061 1103 1061 1201 c 1,15,-1
 1210 1201 l 1,16,17
 1210 1065 1210 1065 1163.5 976 c 128,-1,18
 1117 887 1117 887 1003 859 c 1,19,20
 1076 726 1076 726 1076 552 c 2,21,-1
 1076 529 l 2,0,1
277 552 m 2,22,-1
 277 529 l 2,23,24
 277 368 277 368 353.5 250 c 128,-1,25
 430 132 430 132 585 132 c 0,26,27
 737 132 737 132 814 250 c 128,-1,28
 891 368 891 368 891 529 c 2,29,-1
 891 552 l 2,30,31
 891 711 891 711 814 830.5 c 128,-1,32
 737 950 737 950 583 950 c 0,33,34
 430 950 430 950 353.5 830.5 c 128,-1,35
 277 711 277 711 277 552 c 2,22,-1
EndSplineSet
EndChar

StartChar: OI
Encoding: 418 418 182
Width: 1738
Flags: W
LayerCount: 2
Fore
SplineSet
726 -20 m 0,0,1
 463 -20 463 -20 291.5 158 c 128,-1,2
 120 336 120 336 120 672 c 2,3,-1
 120 784 l 2,4,5
 120 1110 120 1110 290.5 1293 c 128,-1,6
 461 1476 461 1476 726 1476 c 0,7,8
 896 1476 896 1476 1000 1435.5 c 128,-1,9
 1104 1395 1104 1395 1162 1346 c 1,10,-1
 1421 1456 l 1,11,-1
 1566 1456 l 1,12,-1
 1566 -416 l 1,13,-1
 1380 -416 l 1,14,-1
 1380 1270 l 1,15,-1
 1237 1214 l 1,16,-1
 1237 193 l 1,17,18
 1210 154 1210 154 1152.5 104 c 128,-1,19
 1095 54 1095 54 992.5 17 c 128,-1,20
 890 -20 890 -20 726 -20 c 0,0,1
726 1319 m 0,21,22
 538 1319 538 1319 424 1178.5 c 128,-1,23
 310 1038 310 1038 310 784 c 2,24,-1
 310 672 l 2,25,26
 310 432 310 432 418 284.5 c 128,-1,27
 526 137 526 137 734 137 c 0,28,29
 886 137 886 137 955 174.5 c 128,-1,30
 1024 212 1024 212 1054 245 c 1,31,-1
 1054 1211 l 1,32,33
 1024 1244 1024 1244 954 1281.5 c 128,-1,34
 884 1319 884 1319 726 1319 c 0,21,22
EndSplineSet
EndChar

StartChar: oi
Encoding: 419 419 183
Width: 1368
Flags: W
LayerCount: 2
Fore
SplineSet
1036 837 m 1,0,-1
 916 766 l 1,1,-1
 916 133 l 1,2,3
 857 65 857 65 767.5 22.5 c 128,-1,4
 678 -20 678 -20 574 -20 c 0,5,6
 330 -20 330 -20 211.5 141 c 128,-1,7
 93 302 93 302 93 520 c 2,8,-1
 93 562 l 2,9,10
 93 780 93 780 211.5 941 c 128,-1,11
 330 1102 330 1102 574 1102 c 0,12,13
 767 1102 767 1102 889 982 c 1,14,-1
 1074 1082 l 1,15,-1
 1222 1082 l 1,16,-1
 1222 -416 l 1,17,-1
 1036 -416 l 1,18,-1
 1036 837 l 1,0,-1
574 131 m 0,19,20
 662 131 662 131 731 178 c 1,21,-1
 731 901 l 1,22,23
 665 950 665 950 574 950 c 0,24,25
 460 950 460 950 395.5 892 c 128,-1,26
 331 834 331 834 304.5 745 c 128,-1,27
 278 656 278 656 278 562 c 2,28,-1
 278 520 l 2,29,30
 278 338 278 338 355 234.5 c 128,-1,31
 432 131 432 131 574 131 c 0,19,20
EndSplineSet
EndChar

StartChar: Phook
Encoding: 420 420 184
Width: 1496
Flags: W
LayerCount: 2
Fore
SplineSet
29 1173 m 0,0,1
 29 1456 29 1456 373 1456 c 1,2,-1
 373 1456 l 1,3,-1
 910 1456 l 2,4,5
 1158 1456 1158 1456 1289.5 1331 c 128,-1,6
 1421 1206 1421 1206 1421 1012 c 0,7,8
 1421 801 1421 801 1289.5 686 c 128,-1,9
 1158 571 1158 571 910 571 c 2,10,-1
 566 571 l 1,11,-1
 566 0 l 1,12,-1
 373 0 l 1,13,-1
 373 1298 l 1,14,15
 187 1296 187 1296 187 1125 c 0,16,17
 187 1111 187 1111 189 1092 c 128,-1,18
 191 1073 191 1073 196 1058 c 1,19,-1
 46 1057 l 1,20,21
 29 1111 29 1111 29 1173 c 0,0,1
566 1298 m 1,22,-1
 566 728 l 1,23,-1
 910 728 l 2,24,25
 1080 728 1080 728 1154 807 c 128,-1,26
 1228 886 1228 886 1228 1010 c 0,27,28
 1228 1122 1228 1122 1154 1210 c 128,-1,29
 1080 1298 1080 1298 910 1298 c 2,30,-1
 566 1298 l 1,22,-1
EndSplineSet
EndChar

StartChar: phook
Encoding: 421 421 185
Width: 1150
Flags: W
LayerCount: 2
Fore
SplineSet
635 -20 m 0,0,1
 440 -20 440 -20 326 105 c 1,2,-1
 326 -416 l 1,3,-1
 140 -416 l 1,4,-1
 140 1082 l 1,5,-1
 140 1082 l 1,6,7
 143 1224 143 1224 230.5 1300 c 128,-1,8
 318 1376 318 1376 440 1376 c 0,9,10
 489 1376 489 1376 541 1360 c 1,11,-1
 539 1233 l 1,12,13
 512 1241 512 1241 480 1241 c 0,14,15
 406 1241 406 1241 366 1203 c 128,-1,16
 326 1165 326 1165 326 1074 c 2,17,-1
 326 971 l 1,18,19
 439 1102 439 1102 632 1102 c 0,20,21
 837 1102 837 1102 946 950 c 128,-1,22
 1055 798 1055 798 1055 550 c 2,23,-1
 1055 529 l 2,24,25
 1055 292 1055 292 945.5 136 c 128,-1,26
 836 -20 836 -20 635 -20 c 0,0,1
578 946 m 0,27,28
 484 946 484 946 423 903.5 c 128,-1,29
 362 861 362 861 326 797 c 1,30,-1
 326 279 l 1,31,32
 363 215 363 215 423.5 173.5 c 128,-1,33
 484 132 484 132 580 132 c 0,34,35
 730 132 730 132 799.5 250 c 128,-1,36
 869 368 869 368 869 529 c 2,37,-1
 869 550 l 2,38,39
 869 711 869 711 799.5 828.5 c 128,-1,40
 730 946 730 946 578 946 c 0,27,28
EndSplineSet
EndChar

StartChar: YR
Encoding: 422 422 186
Width: 1404
Flags: W
LayerCount: 2
Fore
SplineSet
362 0 m 1,0,-1
 169 0 l 1,1,-1
 169 1558 l 1,2,-1
 362 1558 l 1,3,-1
 362 1456 l 1,4,-1
 651 1456 l 2,5,6
 896 1456 896 1456 1028.5 1344 c 128,-1,7
 1161 1232 1161 1232 1161 1019 c 0,8,9
 1161 883 1161 883 1087.5 781.5 c 128,-1,10
 1014 680 1014 680 884 630 c 1,11,-1
 1423 -347 l 1,12,-1
 1423 -359 l 1,13,-1
 1217 -359 l 1,14,-1
 704 590 l 1,15,-1
 362 590 l 1,16,-1
 362 0 l 1,0,-1
362 1298 m 1,17,-1
 362 747 l 1,18,-1
 657 747 l 2,19,20
 812 747 812 747 890.5 826.5 c 128,-1,21
 969 906 969 906 969 1019 c 0,22,23
 969 1145 969 1145 893.5 1221.5 c 128,-1,24
 818 1298 818 1298 651 1298 c 2,25,-1
 362 1298 l 1,17,-1
EndSplineSet
EndChar

StartChar: Tonetwo
Encoding: 423 423 187
Width: 1216
Flags: W
LayerCount: 2
Fore
SplineSet
270 368 m 0,0,1
 270 262 270 262 351.5 199.5 c 128,-1,2
 433 137 433 137 584 137 c 0,3,4
 725 137 725 137 833.5 205 c 128,-1,5
 942 273 942 273 942 422 c 1,6,-1
 1135 422 l 1,7,8
 1135 277 1135 277 1053.5 178.5 c 128,-1,9
 972 80 972 80 845 30 c 128,-1,10
 718 -20 718 -20 584 -20 c 0,11,12
 354 -20 354 -20 215.5 86 c 128,-1,13
 77 192 77 192 77 370 c 0,14,15
 77 540 77 540 192.5 644 c 128,-1,16
 308 748 308 748 555 818 c 0,17,18
 735 868 735 868 815 929 c 128,-1,19
 895 990 895 990 895 1082 c 0,20,21
 895 1183 895 1183 821.5 1250.5 c 128,-1,22
 748 1318 748 1318 594 1318 c 0,23,24
 430 1318 430 1318 351.5 1238 c 128,-1,25
 273 1158 273 1158 273 1036 c 1,26,-1
 80 1036 l 1,27,28
 80 1206 80 1206 213.5 1341 c 128,-1,29
 347 1476 347 1476 594 1476 c 0,30,31
 818 1476 818 1476 953.5 1363 c 128,-1,32
 1089 1250 1089 1250 1089 1080 c 256,33,34
 1089 910 1089 910 961 811.5 c 128,-1,35
 833 713 833 713 617 650 c 0,36,37
 411 590 411 590 340.5 530 c 128,-1,38
 270 470 270 470 270 368 c 0,0,1
EndSplineSet
EndChar

StartChar: tonetwo
Encoding: 424 424 188
Width: 1057
Flags: W
LayerCount: 2
Fore
SplineSet
286 287 m 0,0,1
 286 220 286 220 346 176 c 128,-1,2
 406 132 406 132 519 132 c 0,3,4
 605 132 605 132 687.5 175.5 c 128,-1,5
 770 219 770 219 776 334 c 1,6,-1
 962 334 l 1,7,8
 962 200 962 200 848 90 c 128,-1,9
 734 -20 734 -20 519 -20 c 0,10,11
 330 -20 330 -20 215.5 69 c 128,-1,12
 101 158 101 158 101 301 c 0,13,14
 101 432 101 432 196 505 c 128,-1,15
 291 578 291 578 490 624 c 0,16,17
 643 658 643 658 691 694.5 c 128,-1,18
 739 731 739 731 739 791 c 0,19,20
 739 850 739 850 689.5 900 c 128,-1,21
 640 950 640 950 524 950 c 0,22,23
 415 950 415 950 356 890.5 c 128,-1,24
 297 831 297 831 297 764 c 1,25,-1
 112 764 l 1,26,27
 112 904 112 904 221 1003 c 128,-1,28
 330 1102 330 1102 524 1102 c 0,29,30
 706 1102 706 1102 815.5 1008 c 128,-1,31
 925 914 925 914 925 786 c 0,32,33
 925 652 925 652 820.5 582 c 128,-1,34
 716 512 716 512 535 474 c 0,35,36
 375 442 375 442 330.5 394.5 c 128,-1,37
 286 347 286 347 286 287 c 0,0,1
EndSplineSet
EndChar

StartChar: eshlooprev
Encoding: 426 426 190
Width: 955
Flags: W
LayerCount: 2
Fore
SplineSet
914 -392 m 1,0,1
 861 -409 861 -409 799 -409 c 0,2,3
 516 -409 516 -409 516 -61 c 2,4,-1
 516 919 l 1,5,6
 443 882 443 882 361 882 c 0,7,8
 221 882 221 882 121.5 980.5 c 128,-1,9
 22 1079 22 1079 22 1221 c 0,10,11
 22 1364 22 1364 122 1463 c 128,-1,12
 222 1562 222 1562 361 1562 c 0,13,14
 502 1562 502 1562 601.5 1462.5 c 128,-1,15
 701 1363 701 1363 701 1221 c 2,16,-1
 701 -61 l 2,17,18
 701 -166 701 -166 738.5 -209 c 128,-1,19
 776 -252 776 -252 846 -252 c 0,20,21
 886 -252 886 -252 913 -244 c 1,22,-1
 914 -392 l 1,0,1
362 1053 m 0,23,24
 430 1053 430 1053 478 1096.5 c 128,-1,25
 526 1140 526 1140 526 1223 c 256,26,27
 526 1306 526 1306 478 1350 c 128,-1,28
 430 1394 430 1394 362 1394 c 0,29,30
 293 1394 293 1394 244.5 1350 c 128,-1,31
 196 1306 196 1306 196 1222 c 0,32,33
 196 1140 196 1140 244.5 1096.5 c 128,-1,34
 293 1053 293 1053 362 1053 c 0,23,24
EndSplineSet
EndChar

StartChar: tpalatalhook
Encoding: 427 427 191
Width: 670
Flags: W
LayerCount: 2
Fore
SplineSet
599 -64 m 2,0,1
 599 -366 599 -366 356 -366 c 0,2,3
 303 -366 303 -366 256 -351 c 1,4,-1
 257 -223 l 1,5,6
 284 -231 284 -231 316 -231 c 0,7,8
 390 -231 390 -231 430 -193.5 c 128,-1,9
 470 -156 470 -156 470 -64 c 2,10,-1
 470 -20 l 1,11,12
 463 -20 463 -20 456 -20 c 0,13,14
 353 -20 353 -20 280 43 c 128,-1,15
 207 106 207 106 207 269 c 2,16,-1
 207 940 l 1,17,-1
 9 940 l 1,18,-1
 9 1082 l 1,19,-1
 207 1082 l 1,20,-1
 207 1345 l 1,21,-1
 392 1345 l 1,22,-1
 392 1082 l 1,23,-1
 594 1082 l 1,24,-1
 594 940 l 1,25,-1
 392 940 l 1,26,-1
 392 268 l 2,27,28
 392 185 392 185 428 162 c 128,-1,29
 464 139 464 139 511 139 c 0,30,31
 534 139 534 139 559.5 143.5 c 128,-1,32
 585 148 585 148 598 151 c 1,33,-1
 599 1 l 1,34,-1
 599 1 l 1,35,-1
 599 -64 l 2,0,1
EndSplineSet
EndChar

StartChar: Thook
Encoding: 428 428 192
Width: 1282
Flags: W
LayerCount: 2
Fore
SplineSet
29 1173 m 0,0,1
 29 1456 29 1456 377 1456 c 2,2,-1
 1235 1456 l 1,3,-1
 1235 1298 l 1,4,-1
 767 1298 l 1,5,-1
 767 0 l 1,6,-1
 576 0 l 1,7,-1
 576 1298 l 1,8,-1
 377 1298 l 2,9,10
 275 1298 275 1298 231 1254 c 128,-1,11
 187 1210 187 1210 187 1125 c 0,12,13
 187 1111 187 1111 189 1092 c 128,-1,14
 191 1073 191 1073 196 1058 c 1,15,-1
 46 1057 l 1,16,17
 29 1111 29 1111 29 1173 c 0,0,1
EndSplineSet
EndChar

StartChar: thook
Encoding: 429 429 193
Width: 680
Flags: W
LayerCount: 2
Fore
SplineSet
561 1427 m 0,0,1
 488 1427 488 1427 447 1389 c 128,-1,2
 406 1351 406 1351 406 1260 c 2,3,-1
 406 1082 l 1,4,-1
 608 1082 l 1,5,-1
 608 940 l 1,6,-1
 406 940 l 1,7,-1
 406 296 l 2,8,9
 406 202 406 202 442.5 170.5 c 128,-1,10
 479 139 479 139 525 139 c 0,11,12
 548 139 548 139 574 143.5 c 128,-1,13
 600 148 600 148 613 151 c 1,14,-1
 613 0 l 1,15,16
 591 -7 591 -7 555.5 -13.5 c 128,-1,17
 520 -20 520 -20 471 -20 c 0,18,19
 368 -20 368 -20 294.5 52 c 128,-1,20
 221 124 221 124 221 297 c 2,21,-1
 221 940 l 1,22,-1
 24 940 l 1,23,-1
 24 1082 l 1,24,-1
 221 1082 l 1,25,-1
 221 1260 l 2,26,27
 221 1406 221 1406 308.5 1484 c 128,-1,28
 396 1562 396 1562 521 1562 c 0,29,30
 576 1562 576 1562 621 1546 c 1,31,-1
 620 1419 l 1,32,33
 593 1427 593 1427 561 1427 c 0,0,1
EndSplineSet
EndChar

StartChar: Trthook
Encoding: 430 430 194
Width: 1222
Flags: W
LayerCount: 2
Fore
SplineSet
50 1298 m 1,0,-1
 50 1456 l 1,1,-1
 1175 1456 l 1,2,-1
 1175 1298 l 1,3,-1
 707 1298 l 1,4,-1
 707 -89 l 2,5,6
 707 -278 707 -278 839 -278 c 0,7,8
 859 -278 859 -278 890.5 -273.5 c 128,-1,9
 922 -269 922 -269 938 -265 c 1,10,-1
 951 -420 l 1,11,12
 901 -437 901 -437 839 -437 c 0,13,14
 688 -437 688 -437 602.5 -347.5 c 128,-1,15
 517 -258 517 -258 517 -89 c 2,16,-1
 517 1298 l 1,17,-1
 50 1298 l 1,0,-1
EndSplineSet
EndChar

StartChar: Uhorn
Encoding: 431 431 195
Width: 1424
GlyphClass: 2
Flags: W
AnchorPoint: "Anchor-5" 1424 1612 basechar 0
AnchorPoint: "Anchor-1" 692 -9 basechar 0
AnchorPoint: "Anchor-0" 694 1612 basechar 0
LayerCount: 2
Fore
SplineSet
1194 471 m 2,0,1
 1194 225 1194 225 1036 102.5 c 128,-1,2
 878 -20 878 -20 666 -20 c 0,3,4
 443 -20 443 -20 291.5 102.5 c 128,-1,5
 140 225 140 225 140 471 c 2,6,-1
 140 1456 l 1,7,-1
 331 1456 l 1,8,-1
 331 471 l 2,9,10
 331 300 331 300 423.5 218.5 c 128,-1,11
 516 137 516 137 666 137 c 0,12,13
 818 137 818 137 910 218.5 c 128,-1,14
 1002 300 1002 300 1002 471 c 2,15,-1
 1002 1456 l 1,16,-1
 1194 1456 l 1,17,-1
 1194 1244 l 1,18,19
 1319 1255 1319 1255 1363 1329.5 c 128,-1,20
 1407 1404 1407 1404 1407 1538 c 1,21,-1
 1565 1538 l 1,22,23
 1565 1338 1565 1338 1480 1228.5 c 128,-1,24
 1395 1119 1395 1119 1194 1108 c 1,25,-1
 1194 471 l 2,0,1
EndSplineSet
EndChar

StartChar: uhorn
Encoding: 432 432 196
Width: 1267
GlyphClass: 2
Flags: W
AnchorPoint: "Anchor-5" 1267 1269 basechar 0
AnchorPoint: "Anchor-1" 563 0 basechar 0
AnchorPoint: "Anchor-0" 580 1269 basechar 0
LayerCount: 2
Fore
SplineSet
812 0 m 1,0,-1
 808 107 l 1,1,2
 758 47 758 47 680 13.5 c 128,-1,3
 602 -20 602 -20 492 -20 c 0,4,5
 333 -20 333 -20 235 74 c 128,-1,6
 137 168 137 168 137 384 c 2,7,-1
 137 1082 l 1,8,-1
 322 1082 l 1,9,-1
 322 382 l 2,10,11
 322 236 322 236 383.5 186.5 c 128,-1,12
 445 137 445 137 521 137 c 0,13,14
 634 137 634 137 702 180 c 128,-1,15
 770 223 770 223 803 294 c 1,16,-1
 803 1082 l 1,17,-1
 989 1082 l 1,18,-1
 989 952 l 1,19,20
 1109 956 1109 956 1131.5 1008 c 128,-1,21
 1154 1060 1154 1060 1154 1169 c 1,22,-1
 1296 1169 l 1,23,24
 1296 1009 1296 1009 1232.5 926 c 128,-1,25
 1169 843 1169 843 989 838 c 1,26,-1
 989 0 l 1,27,-1
 812 0 l 1,0,-1
EndSplineSet
EndChar

StartChar: Upsilon2
Encoding: 433 433 197
Width: 1361
Flags: W
LayerCount: 2
Fore
SplineSet
1041 729 m 2,0,1
 1041 986 1041 986 958 1126 c 128,-1,2
 875 1266 875 1266 741 1292 c 1,3,-1
 741 1456 l 1,4,-1
 1232 1456 l 1,5,-1
 1232 1298 l 1,6,-1
 1010 1298 l 1,7,8
 1114 1197 1114 1197 1175 1045 c 128,-1,9
 1236 893 1236 893 1236 729 c 2,10,-1
 1236 615 l 2,11,12
 1236 332 1236 332 1082.5 155.5 c 128,-1,13
 929 -21 929 -21 681 -21 c 0,14,15
 432 -21 432 -21 277 155.5 c 128,-1,16
 122 332 122 332 122 615 c 2,17,-1
 122 729 l 2,18,19
 122 893 122 893 183 1045 c 128,-1,20
 244 1197 244 1197 348 1298 c 1,21,-1
 130 1298 l 1,22,-1
 130 1456 l 1,23,-1
 613 1456 l 1,24,-1
 613 1292 l 1,25,26
 480 1265 480 1265 398.5 1124.5 c 128,-1,27
 317 984 317 984 317 729 c 2,28,-1
 317 613 l 2,29,30
 317 380 317 380 415 258 c 128,-1,31
 513 136 513 136 681 136 c 0,32,33
 847 136 847 136 944 258 c 128,-1,34
 1041 380 1041 380 1041 613 c 2,35,-1
 1041 729 l 2,0,1
EndSplineSet
EndChar

StartChar: Vcursive
Encoding: 434 434 198
Width: 1337
Flags: W
LayerCount: 2
Fore
SplineSet
667 -20 m 0,0,1
 445 -20 445 -20 293.5 102.5 c 128,-1,2
 142 225 142 225 142 471 c 2,3,-1
 142 1456 l 1,4,-1
 332 1456 l 1,5,-1
 332 471 l 2,6,7
 332 300 332 300 425 218.5 c 128,-1,8
 518 137 518 137 667 137 c 0,9,10
 818 137 818 137 910.5 218.5 c 128,-1,11
 1003 300 1003 300 1003 471 c 2,12,-1
 1003 1128 l 2,13,14
 1003 1229 1003 1229 961.5 1272.5 c 128,-1,15
 920 1316 920 1316 834 1316 c 0,16,17
 820 1316 820 1316 801 1314 c 128,-1,18
 782 1312 782 1312 766 1307 c 1,19,-1
 765 1459 l 1,20,21
 819 1476 819 1476 881 1476 c 0,22,23
 1024 1476 1024 1476 1110 1386.5 c 128,-1,24
 1196 1297 1196 1297 1196 1128 c 2,25,-1
 1196 471 l 2,26,27
 1196 225 1196 225 1037.5 102.5 c 128,-1,28
 879 -20 879 -20 667 -20 c 0,0,1
EndSplineSet
EndChar

StartChar: Yhook
Encoding: 435 435 199
Width: 1328
Flags: W
LayerCount: 2
Fore
SplineSet
986 1041 m 2,0,-1
 710 540 l 1,1,-1
 710 0 l 1,2,-1
 517 0 l 1,3,-1
 517 543 l 1,4,-1
 15 1456 l 1,5,-1
 236 1456 l 1,6,-1
 614 718 l 1,7,-1
 823 1123 l 2,8,9
 906 1291 906 1291 976 1383.5 c 128,-1,10
 1046 1476 1046 1476 1169 1476 c 0,11,12
 1231 1476 1231 1476 1285.5 1454 c 128,-1,13
 1340 1432 1340 1432 1381 1397 c 1,14,-1
 1313 1265 l 1,15,16
 1292 1280 1292 1280 1265 1290.5 c 128,-1,17
 1238 1301 1238 1301 1200 1301 c 0,18,19
 1131 1301 1131 1301 1094 1238 c 128,-1,20
 1057 1175 1057 1175 986 1041 c 2,0,-1
EndSplineSet
EndChar

StartChar: yhook
Encoding: 436 436 200
Width: 1216
Flags: W
LayerCount: 2
Fore
SplineSet
510 -167 m 2,0,1
 492 -221 492 -221 454 -284 c 128,-1,2
 416 -347 416 -347 351 -392 c 128,-1,3
 286 -437 286 -437 188 -437 c 0,4,5
 167 -437 167 -437 133 -431 c 128,-1,6
 99 -425 99 -425 85 -421 c 1,7,-1
 84 -271 l 1,8,9
 106 -275 106 -275 134 -275 c 0,10,11
 226 -275 226 -275 279 -236.5 c 128,-1,12
 332 -198 332 -198 369 -94 c 2,13,-1
 408 12 l 1,14,-1
 22 1082 l 1,15,-1
 224 1082 l 1,16,-1
 464 363 l 1,17,-1
 492 260 l 1,18,-1
 741 1047 l 2,19,20
 763 1116 763 1116 795.5 1191.5 c 128,-1,21
 828 1267 828 1267 889 1320 c 128,-1,22
 950 1373 950 1373 1057 1373 c 0,23,24
 1112 1373 1112 1373 1164 1353 c 128,-1,25
 1216 1333 1216 1333 1253 1303 c 1,26,-1
 1209 1187 l 1,27,28
 1179 1204 1179 1204 1146.5 1216 c 128,-1,29
 1114 1228 1114 1228 1082 1228 c 0,30,31
 1014 1228 1014 1228 976 1165.5 c 128,-1,32
 938 1103 938 1103 898 983 c 2,33,-1
 510 -167 l 2,0,1
EndSplineSet
EndChar

StartChar: Zbar
Encoding: 437 437 201
Width: 1227
GlyphClass: 2
Flags: W
AnchorPoint: "Anchor-5" 1227 1601 basechar 0
AnchorPoint: "Anchor-1" 613 10 basechar 0
AnchorPoint: "Anchor-0" 616 1601 basechar 0
LayerCount: 2
Fore
SplineSet
100 1298 m 1,0,-1
 100 1456 l 1,1,-1
 1114 1456 l 1,2,-1
 1114 1316 l 1,3,-1
 766 812 l 1,4,-1
 1073 812 l 1,5,-1
 1073 661 l 1,6,-1
 662 661 l 1,7,-1
 314 157 l 1,8,-1
 1146 157 l 1,9,-1
 1146 0 l 1,10,-1
 87 0 l 1,11,-1
 87 144 l 1,12,-1
 444 661 l 1,13,-1
 124 661 l 1,14,-1
 124 812 l 1,15,-1
 549 812 l 1,16,-1
 885 1298 l 1,17,-1
 100 1298 l 1,0,-1
EndSplineSet
EndChar

StartChar: zbar
Encoding: 438 438 202
Width: 1034
GlyphClass: 2
Flags: W
AnchorPoint: "Anchor-5" 1034 1290 basechar 0
AnchorPoint: "Anchor-1" 524 10 basechar 0
AnchorPoint: "Anchor-0" 513 1290 basechar 0
LayerCount: 2
Fore
SplineSet
107 929 m 1,0,-1
 107 1082 l 1,1,-1
 928 1082 l 1,2,-1
 928 951 l 1,3,-1
 680 622 l 1,4,-1
 873 622 l 1,5,-1
 873 470 l 1,6,-1
 566 470 l 1,7,-1
 326 152 l 1,8,-1
 957 152 l 1,9,-1
 957 0 l 1,10,-1
 99 0 l 1,11,-1
 99 136 l 1,12,-1
 350 470 l 1,13,-1
 151 470 l 1,14,-1
 151 622 l 1,15,-1
 464 622 l 1,16,-1
 695 929 l 1,17,-1
 107 929 l 1,0,-1
EndSplineSet
EndChar

StartChar: uni01B7
Encoding: 439 439 203
Width: 1319
Flags: W
LayerCount: 2
Fore
SplineSet
114 1298 m 1,0,-1
 114 1456 l 1,1,-1
 1123 1456 l 1,2,-1
 1123 1319 l 1,3,-1
 609 740 l 1,4,-1
 613 740 l 2,5,6
 883 740 883 740 1042 603 c 128,-1,7
 1201 466 1201 466 1201 161 c 256,8,9
 1201 -144 1201 -144 1043.5 -281 c 128,-1,10
 886 -418 886 -418 631 -418 c 0,11,12
 369 -418 369 -418 237 -279.5 c 128,-1,13
 105 -141 105 -141 81 64 c 1,14,-1
 274 64 l 1,15,16
 299 -92 299 -92 371.5 -176.5 c 128,-1,17
 444 -261 444 -261 631 -261 c 0,18,19
 828 -261 828 -261 918 -157 c 128,-1,20
 1008 -53 1008 -53 1008 161 c 0,21,22
 1008 394 1008 394 909 491.5 c 128,-1,23
 810 589 810 589 613 589 c 2,24,-1
 390 589 l 1,25,-1
 390 732 l 1,26,-1
 895 1298 l 1,27,-1
 114 1298 l 1,0,-1
EndSplineSet
EndChar

StartChar: uni01B8
Encoding: 440 440 204
Width: 1319
Flags: W
LayerCount: 2
Fore
SplineSet
929 732 m 1,0,-1
 929 589 l 1,1,-1
 706 589 l 2,2,3
 510 589 510 589 410.5 491.5 c 128,-1,4
 311 394 311 394 311 161 c 0,5,6
 311 -53 311 -53 401.5 -157 c 128,-1,7
 492 -261 492 -261 688 -261 c 0,8,9
 876 -261 876 -261 948 -176.5 c 128,-1,10
 1020 -92 1020 -92 1045 64 c 1,11,-1
 1238 64 l 1,12,13
 1214 -141 1214 -141 1082 -279.5 c 128,-1,14
 950 -418 950 -418 688 -418 c 0,15,16
 433 -418 433 -418 275.5 -281 c 128,-1,17
 118 -144 118 -144 118 161 c 256,18,19
 118 466 118 466 277 603 c 128,-1,20
 436 740 436 740 706 740 c 2,21,-1
 710 740 l 1,22,-1
 196 1319 l 1,23,-1
 196 1456 l 1,24,-1
 1205 1456 l 1,25,-1
 1205 1298 l 1,26,-1
 424 1298 l 1,27,-1
 929 732 l 1,0,-1
EndSplineSet
EndChar

StartChar: uni01B9
Encoding: 441 441 205
Width: 1156
Flags: W
LayerCount: 2
Fore
SplineSet
393 929 m 1,0,-1
 765 477 l 1,1,-1
 765 326 l 1,2,-1
 623 326 l 2,3,4
 464 326 464 326 379 256 c 128,-1,5
 294 186 294 186 294 27 c 0,6,7
 294 -91 294 -91 373.5 -167 c 128,-1,8
 453 -243 453 -243 598 -243 c 0,9,10
 726 -243 726 -243 804 -163 c 128,-1,11
 882 -83 882 -83 882 29 c 1,12,-1
 1067 29 l 1,13,14
 1067 -120 1067 -120 997.5 -213.5 c 128,-1,15
 928 -307 928 -307 820.5 -351 c 128,-1,16
 713 -395 713 -395 598 -395 c 0,17,18
 385 -395 385 -395 247 -283.5 c 128,-1,19
 109 -172 109 -172 109 31 c 0,20,21
 109 229 109 229 225.5 341.5 c 128,-1,22
 342 454 342 454 553 470 c 1,23,-1
 155 964 l 1,24,-1
 156 1082 l 1,25,-1
 1025 1082 l 1,26,-1
 1025 929 l 1,27,-1
 393 929 l 1,0,-1
EndSplineSet
EndChar

StartChar: uni01BA
Encoding: 442 442 206
Width: 1092
Flags: W
LayerCount: 2
Fore
SplineSet
715 375 m 0,0,1
 715 434 715 434 665.5 470 c 128,-1,2
 616 506 616 506 500 506 c 2,3,-1
 329 506 l 1,4,-1
 329 624 l 1,5,-1
 718 930 l 1,6,-1
 125 930 l 1,7,-1
 125 1082 l 1,8,-1
 982 1082 l 1,9,-1
 983 966 l 1,10,-1
 628 645 l 1,11,12
 755 619 755 619 827.5 546 c 128,-1,13
 900 473 900 473 900 369 c 0,14,15
 900 227 900 227 793.5 159.5 c 128,-1,16
 687 92 687 92 507 52 c 0,17,18
 356 19 356 19 309 -24.5 c 128,-1,19
 262 -68 262 -68 262 -130 c 0,20,21
 262 -197 262 -197 322 -241 c 128,-1,22
 382 -285 382 -285 494 -285 c 0,23,24
 581 -285 581 -285 663 -241.5 c 128,-1,25
 745 -198 745 -198 752 -83 c 1,26,-1
 937 -83 l 1,27,28
 937 -217 937 -217 823.5 -327 c 128,-1,29
 710 -437 710 -437 494 -437 c 0,30,31
 306 -437 306 -437 191.5 -347.5 c 128,-1,32
 77 -258 77 -258 77 -116 c 0,33,34
 77 14 77 14 179 88.5 c 128,-1,35
 281 163 281 163 479 205 c 0,36,37
 617 234 617 234 666 269.5 c 128,-1,38
 715 305 715 305 715 375 c 0,0,1
EndSplineSet
EndChar

StartChar: uni01BB
Encoding: 443 443 207
Width: 1157
Flags: W
LayerCount: 2
Fore
SplineSet
1075 152 m 1,0,-1
 1075 0 l 1,1,-1
 122 0 l 1,2,-1
 122 133 l 1,3,-1
 585 648 l 1,4,-1
 298 648 l 1,5,-1
 298 799 l 1,6,-1
 713 799 l 1,7,8
 776 882 776 882 799.5 942 c 128,-1,9
 823 1002 823 1002 823 1065 c 0,10,11
 823 1172 823 1172 756.5 1248 c 128,-1,12
 690 1324 690 1324 569 1324 c 0,13,14
 423 1324 423 1324 351 1241 c 128,-1,15
 279 1158 279 1158 279 1028 c 1,16,-1
 94 1028 l 1,17,18
 94 1212 94 1212 215 1344 c 128,-1,19
 336 1476 336 1476 569 1476 c 0,20,21
 775 1476 775 1476 891.5 1369 c 128,-1,22
 1008 1262 1008 1262 1008 1087 c 0,23,24
 1008 1015 1008 1015 981.5 943 c 128,-1,25
 955 871 955 871 910 799 c 1,26,-1
 1074 799 l 1,27,-1
 1074 648 l 1,28,-1
 799 648 l 1,29,30
 770 613 770 613 735 575 c 2,31,-1
 345 152 l 1,32,-1
 1075 152 l 1,0,-1
EndSplineSet
EndChar

StartChar: Tonefive
Encoding: 444 444 208
Width: 1151
Flags: W
LayerCount: 2
Fore
SplineSet
64 1285 m 1,0,-1
 64 1456 l 1,1,-1
 1027 1456 l 1,2,-1
 1027 1285 l 1,3,-1
 437 1285 l 1,4,-1
 393 889 l 1,5,6
 433 912 433 912 494.5 932 c 128,-1,7
 556 952 556 952 636 952 c 0,8,9
 837 952 837 952 953.5 819.5 c 128,-1,10
 1070 687 1070 687 1070 464 c 0,11,12
 1070 255 1070 255 956 117.5 c 128,-1,13
 842 -20 842 -20 609 -20 c 0,14,15
 432 -20 432 -20 303 79.5 c 128,-1,16
 174 179 174 179 154 383 c 1,17,-1
 330 383 l 1,18,19
 365 132 365 132 609 132 c 0,20,21
 740 132 740 132 812 221 c 128,-1,22
 884 310 884 310 884 462 c 0,23,24
 884 599 884 599 808.5 692.5 c 128,-1,25
 733 786 733 786 593 786 c 0,26,27
 500 786 500 786 452 761 c 128,-1,28
 404 736 404 736 355 693 c 1,29,-1
 207 731 l 1,30,-1
 263 1285 l 1,31,-1
 64 1285 l 1,0,-1
EndSplineSet
EndChar

StartChar: tonefive
Encoding: 445 445 209
Width: 1027
Flags: W
LayerCount: 2
Fore
SplineSet
41 920 m 1,0,-1
 41 1082 l 1,1,-1
 900 1082 l 1,2,-1
 900 920 l 1,3,-1
 384 920 l 1,4,-1
 351 671 l 1,5,6
 387 695 387 695 447 714.5 c 128,-1,7
 507 734 507 734 572 736 c 0,8,9
 751 739 751 739 853 640 c 128,-1,10
 955 541 955 541 955 362 c 0,11,12
 955 202 955 202 856 93 c 128,-1,13
 757 -16 757 -16 530 -16 c 0,14,15
 438 -16 438 -16 343 18.5 c 128,-1,16
 248 53 248 53 184 124.5 c 128,-1,17
 120 196 120 196 120 306 c 1,18,-1
 298 321 l 1,19,20
 298 237 298 237 363 186 c 128,-1,21
 428 135 428 135 530 135 c 0,22,23
 657 135 657 135 713.5 198 c 128,-1,24
 770 261 770 261 770 360 c 0,25,26
 770 460 770 460 711.5 522.5 c 128,-1,27
 653 585 653 585 539 585 c 0,28,29
 448 585 448 585 396 551.5 c 128,-1,30
 344 518 344 518 316 474 c 1,31,-1
 159 487 l 1,32,-1
 208 920 l 1,33,-1
 41 920 l 1,0,-1
EndSplineSet
EndChar

StartChar: glottalstopbarinv
Encoding: 446 446 210
Width: 1047
Flags: W
LayerCount: 2
Fore
SplineSet
952 301 m 0,0,1
 952 158 952 158 837.5 69 c 128,-1,2
 723 -20 723 -20 534 -20 c 0,3,4
 319 -20 319 -20 205.5 90 c 128,-1,5
 92 200 92 200 92 334 c 1,6,-1
 277 334 l 1,7,8
 284 219 284 219 366 175.5 c 128,-1,9
 448 132 448 132 534 132 c 0,10,11
 647 132 647 132 707 176 c 128,-1,12
 767 220 767 220 767 287 c 0,13,14
 767 362 767 362 711.5 404 c 128,-1,15
 656 446 656 446 583.5 486 c 128,-1,16
 511 526 511 526 455.5 593 c 128,-1,17
 400 660 400 660 400 786 c 2,18,-1
 400 940 l 1,19,-1
 203 940 l 1,20,-1
 203 1082 l 1,21,-1
 400 1082 l 1,22,-1
 400 1345 l 1,23,-1
 586 1345 l 1,24,-1
 586 1082 l 1,25,-1
 788 1082 l 1,26,-1
 788 940 l 1,27,-1
 586 940 l 1,28,-1
 586 791 l 2,29,30
 586 694 586 694 641.5 646 c 128,-1,31
 697 598 697 598 769 562.5 c 128,-1,32
 841 527 841 527 896.5 470.5 c 128,-1,33
 952 414 952 414 952 301 c 0,0,1
EndSplineSet
EndChar

StartChar: wynn
Encoding: 447 447 211
Width: 1150
Flags: W
LayerCount: 2
Fore
SplineSet
1055 534 m 2,0,1
 1055 336 1055 336 966.5 207.5 c 128,-1,2
 878 79 878 79 714.5 -5 c 128,-1,3
 551 -89 551 -89 326 -153 c 1,4,-1
 326 -416 l 1,5,-1
 140 -416 l 1,6,-1
 140 1082 l 1,7,-1
 309 1082 l 1,8,-1
 319 963 l 1,9,10
 433 1102 433 1102 632 1102 c 0,11,12
 837 1102 837 1102 946 951.5 c 128,-1,13
 1055 801 1055 801 1055 555 c 2,14,-1
 1055 534 l 2,0,1
578 946 m 0,15,16
 484 946 484 946 423 903.5 c 128,-1,17
 362 861 362 861 326 797 c 1,18,-1
 326 -3 l 1,19,20
 563 59 563 59 716 182 c 128,-1,21
 869 305 869 305 869 534 c 2,22,-1
 869 555 l 2,23,24
 869 715 869 715 799.5 830.5 c 128,-1,25
 730 946 730 946 578 946 c 0,15,16
EndSplineSet
EndChar

StartChar: pipe
Encoding: 448 448 212
Width: 521
Flags: W
LayerCount: 2
Fore
SplineSet
335 1456 m 1,0,-1
 335 0 l 1,1,-1
 186 0 l 1,2,-1
 186 1456 l 1,3,-1
 335 1456 l 1,0,-1
EndSplineSet
EndChar

StartChar: uni01C5
Encoding: 453 453 217
Width: 2227
Flags: W
LayerCount: 2
Fore
SplineSet
1575 1515 m 1,0,-1
 1725 1365 l 1,1,-1
 1875 1515 l 1,2,-1
 2036 1515 l 1,3,-1
 2036 1497 l 1,4,-1
 1783 1252 l 1,5,-1
 1667 1252 l 1,6,-1
 1417 1494 l 1,7,-1
 1417 1515 l 1,8,-1
 1575 1515 l 1,0,-1
169 0 m 1,9,-1
 169 1456 l 1,10,-1
 581 1456 l 2,11,12
 868 1456 868 1456 1045.5 1271.5 c 128,-1,13
 1223 1087 1223 1087 1223 771 c 2,14,-1
 1223 684 l 2,15,16
 1223 368 1223 368 1044.5 184 c 128,-1,17
 866 0 866 0 563 0 c 2,18,-1
 169 0 l 1,9,-1
581 1298 m 2,19,-1
 362 1298 l 1,20,-1
 362 157 l 1,21,-1
 563 157 l 2,22,23
 796 157 796 157 914 301 c 128,-1,24
 1032 445 1032 445 1032 684 c 2,25,-1
 1032 773 l 2,26,27
 1032 1024 1032 1024 914 1161 c 128,-1,28
 796 1298 796 1298 581 1298 c 2,19,-1
1309 929 m 1,29,-1
 1309 1082 l 1,30,-1
 2129 1082 l 1,31,-1
 2129 951 l 1,32,-1
 1527 152 l 1,33,-1
 2158 152 l 1,34,-1
 2158 0 l 1,35,-1
 1300 0 l 1,36,-1
 1300 136 l 1,37,-1
 1896 929 l 1,38,-1
 1309 929 l 1,29,-1
EndSplineSet
EndChar

StartChar: uni01C6
Encoding: 454 454 218
Width: 2034
Flags: W
LayerCount: 2
Fore
SplineSet
848 0 m 1,0,-1
 834 121 l 1,1,2
 722 -20 722 -20 521 -20 c 0,3,4
 330 -20 330 -20 212.5 136 c 128,-1,5
 95 292 95 292 95 529 c 2,6,-1
 95 550 l 2,7,8
 95 798 95 798 212.5 950 c 128,-1,9
 330 1102 330 1102 523 1102 c 0,10,11
 714 1102 714 1102 823 974 c 1,12,-1
 823 1560 l 1,13,-1
 1009 1560 l 1,14,-1
 1009 0 l 1,15,-1
 848 0 l 1,0,-1
1382 1515 m 1,16,-1
 1532 1365 l 1,17,-1
 1682 1515 l 1,18,-1
 1843 1515 l 1,19,-1
 1843 1497 l 1,20,-1
 1590 1252 l 1,21,-1
 1474 1252 l 1,22,-1
 1224 1494 l 1,23,-1
 1224 1515 l 1,24,-1
 1382 1515 l 1,16,-1
1116 929 m 1,25,-1
 1116 1082 l 1,26,-1
 1936 1082 l 1,27,-1
 1936 951 l 1,28,-1
 1334 152 l 1,29,-1
 1965 152 l 1,30,-1
 1965 0 l 1,31,-1
 1107 0 l 1,32,-1
 1107 136 l 1,33,-1
 1703 929 l 1,34,-1
 1116 929 l 1,25,-1
281 529 m 2,35,36
 281 368 281 368 349 252.5 c 128,-1,37
 417 137 417 137 567 137 c 0,38,39
 664 137 664 137 725 181 c 128,-1,40
 786 225 786 225 823 294 c 1,41,-1
 823 792 l 1,42,43
 787 859 787 859 725.5 902.5 c 128,-1,44
 664 946 664 946 569 946 c 0,45,46
 418 946 418 946 349.5 828.5 c 128,-1,47
 281 711 281 711 281 550 c 2,48,-1
 281 529 l 2,35,36
EndSplineSet
EndChar

StartChar: Gbar
Encoding: 484 484 219
Width: 1395
GlyphClass: 2
Flags: W
AnchorPoint: "Anchor-5" 1395 1633 basechar 0
AnchorPoint: "Anchor-1" 674 -9 basechar 0
AnchorPoint: "Anchor-0" 672 1633 basechar 0
LayerCount: 2
Fore
SplineSet
1245 192 m 1,0,1
 1204 132 1204 132 1089 56 c 128,-1,2
 974 -20 974 -20 730 -20 c 0,3,4
 464 -20 464 -20 293 162.5 c 128,-1,5
 122 345 122 345 122 672 c 2,6,-1
 122 785 l 2,7,8
 122 1110 122 1110 274 1293 c 128,-1,9
 426 1476 426 1476 708 1476 c 0,10,11
 958 1476 958 1476 1087.5 1350 c 128,-1,12
 1217 1224 1217 1224 1245 1030 c 1,13,-1
 1052 1030 l 1,14,15
 1032 1148 1032 1148 953.5 1233 c 128,-1,16
 875 1318 875 1318 708 1318 c 0,17,18
 506 1318 506 1318 411 1175 c 128,-1,19
 316 1032 316 1032 316 787 c 2,20,-1
 316 672 l 2,21,22
 316 420 316 420 430 278.5 c 128,-1,23
 544 137 544 137 731 137 c 0,24,25
 886 137 886 137 955 173.5 c 128,-1,26
 1024 210 1024 210 1053 243 c 1,27,-1
 1053 329 l 1,28,-1
 756 329 l 1,29,-1
 756 481 l 1,30,-1
 1053 481 l 1,31,-1
 1053 569 l 1,32,-1
 716 569 l 1,33,-1
 716 725 l 1,34,-1
 1245 725 l 1,35,-1
 1245 481 l 1,36,-1
 1393 481 l 1,37,-1
 1393 329 l 1,38,-1
 1245 329 l 1,39,-1
 1245 192 l 1,0,1
EndSplineSet
EndChar

StartChar: gbar
Encoding: 485 485 220
Width: 1150
GlyphClass: 2
Flags: W
AnchorPoint: "Anchor-9" 573 -116 basechar 0
AnchorPoint: "Anchor-5" 1150 1290 basechar 0
AnchorPoint: "Anchor-1" 567 -484 basechar 0
AnchorPoint: "Anchor-0" 569 1290 basechar 0
LayerCount: 2
Fore
SplineSet
1138 -169 m 1,0,-1
 1009 -169 l 1,1,2
 973 -324 973 -324 854 -407.5 c 128,-1,3
 735 -491 735 -491 564 -491 c 0,4,5
 480 -491 480 -491 358.5 -450.5 c 128,-1,6
 237 -410 237 -410 164 -304 c 1,7,-1
 260 -193 l 1,8,9
 328 -276 328 -276 403 -308 c 128,-1,10
 478 -340 478 -340 551 -340 c 0,11,12
 761 -340 761 -340 819 -169 c 1,13,-1
 31 -169 l 1,14,-1
 31 -54 l 1,15,-1
 837 -54 l 1,16,-1
 837 -50 l 1,17,-1
 837 108 l 1,18,19
 727 -20 727 -20 534 -20 c 0,20,21
 340 -20 340 -20 224.5 136 c 128,-1,22
 109 292 109 292 109 529 c 2,23,-1
 109 550 l 2,24,25
 109 798 109 798 224 950 c 128,-1,26
 339 1102 339 1102 536 1102 c 0,27,28
 735 1102 735 1102 846 962 c 1,29,-1
 855 1082 l 1,30,-1
 1023 1082 l 1,31,-1
 1023 -41 l 2,32,33
 1023 -48 1023 -48 1023 -54 c 1,34,-1
 1138 -54 l 1,35,-1
 1138 -169 l 1,0,-1
295 529 m 2,36,37
 295 368 295 368 362.5 252.5 c 128,-1,38
 430 137 430 137 580 137 c 0,39,40
 678 137 678 137 739.5 181.5 c 128,-1,41
 801 226 801 226 837 296 c 1,42,-1
 837 791 l 1,43,44
 802 858 802 858 740 902 c 128,-1,45
 678 946 678 946 582 946 c 0,46,47
 430 946 430 946 362.5 828.5 c 128,-1,48
 295 711 295 711 295 550 c 2,49,-1
 295 529 l 2,36,37
EndSplineSet
EndChar

StartChar: uni01EF
Encoding: 495 495 222
Width: 1192
Flags: W
LayerCount: 2
Fore
SplineSet
411 1515 m 1,0,-1
 560 1365 l 1,1,-1
 710 1515 l 1,2,-1
 872 1515 l 1,3,-1
 872 1497 l 1,4,-1
 618 1252 l 1,5,-1
 502 1252 l 1,6,-1
 252 1494 l 1,7,-1
 252 1515 l 1,8,-1
 411 1515 l 1,0,-1
550 326 m 2,9,-1
 409 326 l 1,10,-1
 409 477 l 1,11,-1
 780 929 l 1,12,-1
 148 929 l 1,13,-1
 148 1082 l 1,14,-1
 1017 1082 l 1,15,-1
 1019 964 l 1,16,-1
 621 470 l 1,17,18
 832 454 832 454 948.5 341.5 c 128,-1,19
 1065 229 1065 229 1065 31 c 0,20,21
 1065 -172 1065 -172 926.5 -283.5 c 128,-1,22
 788 -395 788 -395 575 -395 c 0,23,24
 460 -395 460 -395 352.5 -351 c 128,-1,25
 245 -307 245 -307 175.5 -213.5 c 128,-1,26
 106 -120 106 -120 106 29 c 1,27,-1
 291 29 l 1,28,29
 291 -83 291 -83 369 -163 c 128,-1,30
 447 -243 447 -243 575 -243 c 0,31,32
 720 -243 720 -243 799.5 -167 c 128,-1,33
 879 -91 879 -91 879 27 c 0,34,35
 879 186 879 186 794 256 c 128,-1,36
 709 326 709 326 550 326 c 2,9,-1
EndSplineSet
EndChar

StartChar: uni01F6
Encoding: 502 502 223
Width: 2234
Flags: W
LayerCount: 2
Fore
SplineSet
1096 1456 m 1,0,-1
 1288 1456 l 1,1,-1
 1288 465 l 2,2,3
 1288 137 1288 137 1596 137 c 0,4,5
 1906 137 1906 137 1906 465 c 2,6,-1
 1906 1081 l 1,7,-1
 2098 1081 l 1,8,-1
 2098 465 l 2,9,10
 2098 223 2098 223 1952 101.5 c 128,-1,11
 1806 -20 1806 -20 1596 -20 c 0,12,13
 1375 -20 1375 -20 1235.5 101.5 c 128,-1,14
 1096 223 1096 223 1096 465 c 2,15,-1
 1096 673 l 1,16,-1
 362 673 l 1,17,-1
 362 0 l 1,18,-1
 169 0 l 1,19,-1
 169 1456 l 1,20,-1
 362 1456 l 1,21,-1
 362 830 l 1,22,-1
 1096 830 l 1,23,-1
 1096 1456 l 1,0,-1
EndSplineSet
EndChar

StartChar: uni01F7
Encoding: 503 503 224
Width: 1353
Flags: W
LayerCount: 2
Fore
SplineSet
1232 818 m 2,0,1
 1232 580 1232 580 1118.5 378.5 c 128,-1,2
 1005 177 1005 177 808.5 38 c 128,-1,3
 612 -101 612 -101 362 -153 c 1,4,-1
 362 -418 l 1,5,-1
 169 -418 l 1,6,-1
 169 1456 l 1,7,-1
 362 1456 l 1,8,-1
 362 1403 l 1,9,10
 475 1476 475 1476 646 1476 c 0,11,12
 917 1476 917 1476 1074.5 1326 c 128,-1,13
 1232 1176 1232 1176 1232 871 c 2,14,-1
 1232 818 l 2,0,1
646 1318 m 0,15,16
 539 1318 539 1318 470.5 1281.5 c 128,-1,17
 402 1245 402 1245 362 1179 c 1,18,-1
 362 9 l 1,19,20
 590 66 590 66 741 195.5 c 128,-1,21
 892 325 892 325 966.5 490 c 128,-1,22
 1041 655 1041 655 1041 818 c 2,23,-1
 1041 873 l 2,24,25
 1041 1105 1041 1105 942 1211.5 c 128,-1,26
 843 1318 843 1318 646 1318 c 0,15,16
EndSplineSet
EndChar

StartChar: uni021C
Encoding: 540 540 225
Width: 1229
Flags: W
LayerCount: 2
Fore
SplineSet
1123 327 m 0,0,1
 1123 92 1123 92 1002 -55.5 c 128,-1,2
 881 -203 881 -203 669.5 -291 c 128,-1,3
 458 -379 458 -379 187 -437 c 1,4,-1
 187 -280 l 1,5,6
 536 -204 536 -204 733 -71 c 128,-1,7
 930 62 930 62 930 329 c 0,8,9
 930 531 930 531 828 604 c 1,10,11
 707 516 707 516 543.5 447 c 128,-1,12
 380 378 380 378 187 329 c 1,13,-1
 186 474 l 1,14,15
 533 580 533 580 720.5 705.5 c 128,-1,16
 908 831 908 831 908 1065 c 0,17,18
 908 1168 908 1168 831.5 1243.5 c 128,-1,19
 755 1319 755 1319 584 1319 c 0,20,21
 462 1319 462 1319 374 1251 c 128,-1,22
 286 1183 286 1183 286 1073 c 1,23,-1
 93 1073 l 1,24,25
 93 1259 93 1259 238.5 1367.5 c 128,-1,26
 384 1476 384 1476 584 1476 c 0,27,28
 821 1476 821 1476 961 1371 c 128,-1,29
 1101 1266 1101 1266 1101 1061 c 0,30,31
 1101 866 1101 866 944 704 c 1,32,33
 1030 652 1030 652 1076.5 559 c 128,-1,34
 1123 466 1123 466 1123 327 c 0,0,1
EndSplineSet
EndChar

StartChar: uni021D
Encoding: 541 541 226
Width: 1030
Flags: W
LayerCount: 2
Fore
SplineSet
920 192 m 0,0,1
 920 -87 920 -87 726 -235.5 c 128,-1,2
 532 -384 532 -384 167 -437 c 1,3,-1
 167 -288 l 1,4,5
 425 -230 425 -230 579.5 -126.5 c 128,-1,6
 734 -23 734 -23 734 191 c 0,7,8
 734 336 734 336 663 410 c 1,9,10
 563 342 563 342 435 292.5 c 128,-1,11
 307 243 307 243 167 214 c 1,12,-1
 166 354 l 1,13,14
 294 388 294 388 420.5 440 c 128,-1,15
 547 492 547 492 631 575 c 128,-1,16
 715 658 715 658 715 786 c 0,17,18
 715 850 715 850 665.5 900.5 c 128,-1,19
 616 951 616 951 498 951 c 0,20,21
 403 951 403 951 336 901.5 c 128,-1,22
 269 852 269 852 269 781 c 1,23,-1
 85 781 l 1,24,25
 85 929 85 929 207 1015 c 128,-1,26
 329 1101 329 1101 498 1101 c 0,27,28
 686 1101 686 1101 793 1020.5 c 128,-1,29
 900 940 900 940 900 787 c 0,30,31
 900 707 900 707 867.5 636.5 c 128,-1,32
 835 566 835 566 778 506 c 1,33,34
 920 401 920 401 920 192 c 0,0,1
EndSplineSet
EndChar

StartChar: uni0220
Encoding: 544 544 227
Width: 1353
Flags: W
LayerCount: 2
Fore
SplineSet
1213 993 m 2,0,-1
 1213 -418 l 1,1,-1
 1027 -418 l 1,2,-1
 1027 993 l 2,3,4
 1027 1162 1027 1162 934.5 1241 c 128,-1,5
 842 1320 842 1320 690 1320 c 0,6,7
 585 1320 585 1320 502.5 1298.5 c 128,-1,8
 420 1277 420 1277 355 1240 c 1,9,-1
 355 0 l 1,10,-1
 169 0 l 1,11,-1
 169 1456 l 1,12,-1
 355 1456 l 1,13,-1
 355 1393 l 1,14,15
 420 1428 420 1428 505.5 1452 c 128,-1,16
 591 1476 591 1476 690 1476 c 0,17,18
 898 1476 898 1476 1055.5 1355 c 128,-1,19
 1213 1234 1213 1234 1213 993 c 2,0,-1
EndSplineSet
EndChar

StartChar: uni0221
Encoding: 545 545 228
Width: 1460
Flags: W
LayerCount: 2
Fore
SplineSet
823 1536 m 1,0,-1
 1009 1536 l 1,1,-1
 1009 62 l 1,2,3
 1079 89 1079 89 1150 89 c 0,4,5
 1268 89 1268 89 1349 21.5 c 128,-1,6
 1430 -46 1430 -46 1430 -174 c 0,7,8
 1430 -288 1430 -288 1349 -362.5 c 128,-1,9
 1268 -437 1268 -437 1135 -437 c 0,10,11
 1010 -437 1010 -437 940 -384.5 c 128,-1,12
 870 -332 870 -332 843 -253 c 1,13,-1
 714 -395 l 1,14,-1
 604 -284 l 1,15,-1
 823 -55 l 1,16,-1
 823 108 l 1,17,18
 713 -20 713 -20 521 -20 c 0,19,20
 330 -20 330 -20 212.5 136 c 128,-1,21
 95 292 95 292 95 529 c 2,22,-1
 95 550 l 2,23,24
 95 798 95 798 212.5 950 c 128,-1,25
 330 1102 330 1102 523 1102 c 0,26,27
 714 1102 714 1102 823 974 c 1,28,-1
 823 1536 l 1,0,-1
281 529 m 2,29,30
 281 368 281 368 349 252.5 c 128,-1,31
 417 137 417 137 567 137 c 0,32,33
 664 137 664 137 725 181 c 128,-1,34
 786 225 786 225 823 294 c 1,35,-1
 823 792 l 1,36,37
 787 859 787 859 725.5 902.5 c 128,-1,38
 664 946 664 946 569 946 c 0,39,40
 418 946 418 946 349.5 828.5 c 128,-1,41
 281 711 281 711 281 550 c 2,42,-1
 281 529 l 2,29,30
1009 -164 m 2,43,44
 1009 -216 1009 -216 1039.5 -250.5 c 128,-1,45
 1070 -285 1070 -285 1136 -285 c 0,46,47
 1186 -285 1186 -285 1215.5 -253 c 128,-1,48
 1245 -221 1245 -221 1245 -174 c 256,49,50
 1245 -127 1245 -127 1214 -95 c 128,-1,51
 1183 -63 1183 -63 1128 -63 c 0,52,53
 1072 -63 1072 -63 1009 -103 c 1,54,-1
 1009 -164 l 2,43,44
EndSplineSet
EndChar

StartChar: uni0222
Encoding: 546 546 229
Width: 1367
Flags: W
LayerCount: 2
Fore
SplineSet
1247 433 m 0,0,1
 1247 204 1247 204 1088.5 91.5 c 128,-1,2
 930 -21 930 -21 695 -21 c 2,3,-1
 672 -21 l 2,4,5
 436 -21 436 -21 278 91.5 c 128,-1,6
 120 204 120 204 120 431 c 0,7,8
 120 561 120 561 177.5 653.5 c 128,-1,9
 235 746 235 746 333 801 c 1,10,11
 237 842 237 842 178.5 919 c 128,-1,12
 120 996 120 996 120 1117 c 0,13,14
 120 1296 120 1296 234 1382 c 128,-1,15
 348 1468 348 1468 511 1476 c 1,16,-1
 511 1327 l 1,17,18
 412 1306 412 1306 361.5 1259.5 c 128,-1,19
 311 1213 311 1213 311 1117 c 0,20,21
 311 983 311 983 415.5 937.5 c 128,-1,22
 520 892 520 892 663 892 c 2,23,-1
 705 892 l 2,24,25
 848 892 848 892 952.5 937.5 c 128,-1,26
 1057 983 1057 983 1057 1117 c 0,27,28
 1057 1213 1057 1213 1006 1259.5 c 128,-1,29
 955 1306 955 1306 856 1327 c 1,30,-1
 856 1476 l 1,31,32
 1020 1468 1020 1468 1133.5 1382 c 128,-1,33
 1247 1296 1247 1296 1247 1117 c 0,34,35
 1247 996 1247 996 1188.5 919 c 128,-1,36
 1130 842 1130 842 1034 801 c 1,37,38
 1132 746 1132 746 1189.5 654 c 128,-1,39
 1247 562 1247 562 1247 433 c 0,0,1
695 729 m 2,40,-1
 672 729 l 2,41,42
 510 729 510 729 410.5 657 c 128,-1,43
 311 585 311 585 311 431 c 0,44,45
 311 280 311 280 410.5 211.5 c 128,-1,46
 510 143 510 143 672 143 c 2,47,-1
 695 143 l 2,48,49
 856 143 856 143 956.5 211.5 c 128,-1,50
 1057 280 1057 280 1057 433 c 0,51,52
 1057 585 1057 585 956.5 657 c 128,-1,53
 856 729 856 729 695 729 c 2,40,-1
EndSplineSet
EndChar

StartChar: uni0223
Encoding: 547 547 230
Width: 1331
Flags: W
LayerCount: 2
Fore
SplineSet
1226 433 m 0,0,1
 1226 204 1226 204 1068.5 91.5 c 128,-1,2
 911 -21 911 -21 676 -21 c 2,3,-1
 652 -21 l 2,4,5
 417 -21 417 -21 260 91.5 c 128,-1,6
 103 204 103 204 103 431 c 0,7,8
 103 563 103 563 162 656 c 128,-1,9
 221 749 221 749 322 802 c 1,10,11
 224 847 224 847 163.5 931.5 c 128,-1,12
 103 1016 103 1016 103 1148 c 0,13,14
 103 1338 103 1338 215.5 1444 c 128,-1,15
 328 1550 328 1550 495 1557 c 1,16,-1
 495 1416 l 1,17,18
 394 1381 394 1381 341.5 1319.5 c 128,-1,19
 289 1258 289 1258 289 1148 c 0,20,21
 289 991 289 991 395 937.5 c 128,-1,22
 501 884 501 884 643 884 c 2,23,-1
 685 884 l 2,24,25
 827 884 827 884 933.5 937.5 c 128,-1,26
 1040 991 1040 991 1040 1148 c 0,27,28
 1040 1258 1040 1258 988.5 1319.5 c 128,-1,29
 937 1381 937 1381 837 1416 c 1,30,-1
 837 1557 l 1,31,32
 1002 1550 1002 1550 1114 1444 c 128,-1,33
 1226 1338 1226 1338 1226 1148 c 0,34,35
 1226 1016 1226 1016 1165.5 931.5 c 128,-1,36
 1105 847 1105 847 1006 802 c 1,37,38
 1108 749 1108 749 1167 656.5 c 128,-1,39
 1226 564 1226 564 1226 433 c 0,0,1
676 733 m 2,40,-1
 652 733 l 2,41,42
 491 733 491 733 390 658.5 c 128,-1,43
 289 584 289 584 289 431 c 0,44,45
 289 280 289 280 390 205.5 c 128,-1,46
 491 131 491 131 652 131 c 2,47,-1
 676 131 l 2,48,49
 837 131 837 131 938.5 205.5 c 128,-1,50
 1040 280 1040 280 1040 433 c 0,51,52
 1040 584 1040 584 938.5 658.5 c 128,-1,53
 837 733 837 733 676 733 c 2,40,-1
EndSplineSet
EndChar

StartChar: uni0224
Encoding: 548 548 231
Width: 1251
Flags: W
LayerCount: 2
Fore
SplineSet
100 1298 m 1,0,-1
 100 1456 l 1,1,-1
 1114 1456 l 1,2,-1
 1114 1316 l 1,3,-1
 314 157 l 1,4,-1
 866 157 l 2,5,6
 1214 157 1214 157 1214 -132 c 0,7,8
 1214 -194 1214 -194 1197 -247 c 1,9,-1
 1044 -246 l 1,10,11
 1053 -216 1053 -216 1053 -179 c 0,12,13
 1053 -96 1053 -96 1012.5 -48 c 128,-1,14
 972 0 972 0 866 0 c 2,15,-1
 87 0 l 1,16,-1
 87 144 l 1,17,-1
 885 1298 l 1,18,-1
 100 1298 l 1,0,-1
EndSplineSet
EndChar

StartChar: uni0225
Encoding: 549 549 232
Width: 1051
Flags: W
LayerCount: 2
Fore
SplineSet
918 951 m 1,0,-1
 316 152 l 1,1,-1
 658 152 l 2,2,3
 827 152 827 152 916.5 92 c 128,-1,4
 1006 32 1006 32 1006 -104 c 0,5,6
 1006 -168 1006 -168 988 -220 c 1,7,-1
 842 -219 l 1,8,9
 851 -189 851 -189 851 -152 c 0,10,11
 851 -76 851 -76 807.5 -38 c 128,-1,12
 764 0 764 0 658 0 c 2,13,-1
 89 0 l 1,14,-1
 89 136 l 1,15,-1
 685 929 l 1,16,-1
 97 929 l 1,17,-1
 97 1082 l 1,18,-1
 918 1082 l 1,19,-1
 918 951 l 1,0,-1
EndSplineSet
EndChar

StartChar: uni0234
Encoding: 564 564 233
Width: 876
Flags: W
LayerCount: 2
Fore
SplineSet
239 1536 m 1,0,-1
 425 1536 l 1,1,-1
 425 62 l 1,2,3
 495 89 495 89 566 89 c 0,4,5
 684 89 684 89 765 21.5 c 128,-1,6
 846 -46 846 -46 846 -174 c 0,7,8
 846 -288 846 -288 765 -362.5 c 128,-1,9
 684 -437 684 -437 551 -437 c 0,10,11
 426 -437 426 -437 356 -384.5 c 128,-1,12
 286 -332 286 -332 259 -253 c 1,13,-1
 130 -395 l 1,14,-1
 20 -284 l 1,15,-1
 239 -55 l 1,16,-1
 239 1536 l 1,0,-1
425 -164 m 2,17,18
 425 -216 425 -216 455 -250.5 c 128,-1,19
 485 -285 485 -285 552 -285 c 0,20,21
 602 -285 602 -285 631.5 -253 c 128,-1,22
 661 -221 661 -221 661 -174 c 256,23,24
 661 -127 661 -127 630 -95 c 128,-1,25
 599 -63 599 -63 544 -63 c 0,26,27
 487 -63 487 -63 425 -102 c 1,28,-1
 425 -164 l 2,17,18
EndSplineSet
EndChar

StartChar: uni0235
Encoding: 565 565 234
Width: 1443
Flags: W
LayerCount: 2
Fore
SplineSet
645 1102 m 0,0,1
 805 1102 805 1102 898.5 1012 c 128,-1,2
 992 922 992 922 992 709 c 2,3,-1
 992 62 l 1,4,5
 1062 89 1062 89 1134 89 c 0,6,7
 1252 89 1252 89 1332.5 21.5 c 128,-1,8
 1413 -46 1413 -46 1413 -174 c 0,9,10
 1413 -288 1413 -288 1332 -362.5 c 128,-1,11
 1251 -437 1251 -437 1118 -437 c 0,12,13
 993 -437 993 -437 923 -384.5 c 128,-1,14
 853 -332 853 -332 826 -253 c 1,15,-1
 697 -395 l 1,16,-1
 587 -284 l 1,17,-1
 806 -55 l 1,18,-1
 806 711 l 2,19,20
 806 838 806 838 750.5 892 c 128,-1,21
 695 946 695 946 590 946 c 0,22,23
 501 946 501 946 433 898 c 128,-1,24
 365 850 365 850 326 773 c 1,25,-1
 326 0 l 1,26,-1
 141 0 l 1,27,-1
 141 1082 l 1,28,-1
 316 1082 l 1,29,-1
 322 947 l 1,30,31
 445 1102 445 1102 645 1102 c 0,0,1
992 -164 m 2,32,33
 992 -216 992 -216 1022.5 -250.5 c 128,-1,34
 1053 -285 1053 -285 1120 -285 c 0,35,36
 1170 -285 1170 -285 1199 -253 c 128,-1,37
 1228 -221 1228 -221 1228 -174 c 256,38,39
 1228 -127 1228 -127 1197 -95 c 128,-1,40
 1166 -63 1166 -63 1111 -63 c 0,41,42
 1055 -63 1055 -63 992 -103 c 1,43,-1
 992 -164 l 2,32,33
EndSplineSet
EndChar

StartChar: uni0236
Encoding: 566 566 235
Width: 882
Flags: W
LayerCount: 2
Fore
SplineSet
852 243 m 0,0,1
 852 129 852 129 771 54.5 c 128,-1,2
 690 -20 690 -20 557 -20 c 0,3,4
 432 -20 432 -20 362.5 32.5 c 128,-1,5
 293 85 293 85 265 164 c 1,6,-1
 136 22 l 1,7,-1
 26 133 l 1,8,-1
 245 362 l 1,9,-1
 245 940 l 1,10,-1
 48 940 l 1,11,-1
 48 1082 l 1,12,-1
 245 1082 l 1,13,-1
 245 1345 l 1,14,-1
 431 1345 l 1,15,-1
 431 1082 l 1,16,-1
 633 1082 l 1,17,-1
 633 940 l 1,18,-1
 431 940 l 1,19,-1
 431 478 l 1,20,21
 504 506 504 506 572 506 c 0,22,23
 690 506 690 506 771 438 c 128,-1,24
 852 370 852 370 852 243 c 0,0,1
431 253 m 2,25,26
 431 201 431 201 461.5 166.5 c 128,-1,27
 492 132 492 132 558 132 c 0,28,29
 608 132 608 132 637.5 164 c 128,-1,30
 667 196 667 196 667 243 c 256,31,32
 667 290 667 290 636 322 c 128,-1,33
 605 354 605 354 550 354 c 0,34,35
 493 354 493 354 431 314 c 1,36,-1
 431 253 l 2,25,26
EndSplineSet
EndChar

StartChar: uni0237
Encoding: 567 567 236
Width: 516
GlyphClass: 2
Flags: W
AnchorPoint: "Anchor-5" 516 1249 basechar 0
AnchorPoint: "Anchor-0" 266 1249 basechar 0
LayerCount: 2
Fore
SplineSet
173 1082 m 1,0,-1
 358 1082 l 1,1,-1
 358 -89 l 2,2,3
 358 -258 358 -258 273 -347.5 c 128,-1,4
 188 -437 188 -437 36 -437 c 0,5,6
 -26 -437 -26 -437 -76 -420 c 1,7,-1
 -62 -272 l 1,8,9
 -47 -278 -47 -278 -12.5 -281.5 c 128,-1,10
 22 -285 22 -285 36 -285 c 0,11,12
 173 -285 173 -285 173 -89 c 2,13,-1
 173 1082 l 1,0,-1
EndSplineSet
EndChar

StartChar: uni0238
Encoding: 568 568 237
Width: 1835
Flags: W
LayerCount: 2
Fore
SplineSet
1740 529 m 2,0,1
 1740 292 1740 292 1630 136 c 128,-1,2
 1520 -20 1520 -20 1319 -20 c 0,3,4
 1120 -20 1120 -20 1009 117 c 1,5,-1
 1009 0 l 1,6,-1
 839 0 l 1,7,-1
 830 116 l 1,8,9
 719 -20 719 -20 521 -20 c 0,10,11
 330 -20 330 -20 212.5 136 c 128,-1,12
 95 292 95 292 95 529 c 2,13,-1
 95 550 l 2,14,15
 95 798 95 798 212.5 950 c 128,-1,16
 330 1102 330 1102 523 1102 c 0,17,18
 714 1102 714 1102 823 974 c 1,19,-1
 823 1536 l 1,20,-1
 1009 1536 l 1,21,-1
 1009 965 l 1,22,23
 1119 1102 1119 1102 1317 1102 c 0,24,25
 1521 1102 1521 1102 1630.5 950 c 128,-1,26
 1740 798 1740 798 1740 550 c 2,27,-1
 1740 529 l 2,0,1
1271 946 m 0,28,29
 1170 946 1170 946 1107 897.5 c 128,-1,30
 1044 849 1044 849 1009 778 c 1,31,-1
 1009 307 l 1,32,33
 1045 235 1045 235 1109 186 c 128,-1,34
 1173 137 1173 137 1273 137 c 0,35,36
 1422 137 1422 137 1488 252.5 c 128,-1,37
 1554 368 1554 368 1554 529 c 2,38,-1
 1554 550 l 2,39,40
 1554 711 1554 711 1491 828.5 c 128,-1,41
 1428 946 1428 946 1271 946 c 0,28,29
281 529 m 2,42,43
 281 368 281 368 349 252.5 c 128,-1,44
 417 137 417 137 567 137 c 0,45,46
 664 137 664 137 725 181 c 128,-1,47
 786 225 786 225 823 294 c 1,48,-1
 823 792 l 1,49,50
 787 859 787 859 725.5 902.5 c 128,-1,51
 664 946 664 946 569 946 c 0,52,53
 418 946 418 946 349.5 828.5 c 128,-1,54
 281 711 281 711 281 550 c 2,55,-1
 281 529 l 2,42,43
EndSplineSet
EndChar

StartChar: uni0239
Encoding: 569 569 238
Width: 1833
Flags: W
LayerCount: 2
Fore
SplineSet
1318 -20 m 0,0,1
 1122 -20 1122 -20 1008 106 c 1,2,-1
 1008 -416 l 1,3,-1
 822 -416 l 1,4,-1
 822 100 l 1,5,6
 711 -20 711 -20 524 -20 c 0,7,8
 324 -20 324 -20 209.5 136 c 128,-1,9
 95 292 95 292 95 529 c 2,10,-1
 95 550 l 2,11,12
 95 798 95 798 209 950 c 128,-1,13
 323 1102 323 1102 526 1102 c 0,14,15
 718 1102 718 1102 830 973 c 1,16,-1
 838 1082 l 1,17,-1
 992 1082 l 1,18,-1
 1001 962 l 1,19,20
 1115 1102 1115 1102 1315 1102 c 0,21,22
 1520 1102 1520 1102 1629 950 c 128,-1,23
 1738 798 1738 798 1738 550 c 2,24,-1
 1738 529 l 2,25,26
 1738 292 1738 292 1628.5 136 c 128,-1,27
 1519 -20 1519 -20 1318 -20 c 0,0,1
281 529 m 2,28,29
 281 368 281 368 350.5 250 c 128,-1,30
 420 132 420 132 570 132 c 0,31,32
 662 132 662 132 723 173 c 128,-1,33
 784 214 784 214 822 277 c 1,34,-1
 822 808 l 1,35,36
 784 870 784 870 723 910 c 128,-1,37
 662 950 662 950 572 950 c 0,38,39
 420 950 420 950 350.5 830.5 c 128,-1,40
 281 711 281 711 281 550 c 2,41,-1
 281 529 l 2,28,29
1261 946 m 0,42,43
 1167 946 1167 946 1105.5 903 c 128,-1,44
 1044 860 1044 860 1008 795 c 1,45,-1
 1008 281 l 1,46,47
 1045 216 1045 216 1106 174 c 128,-1,48
 1167 132 1167 132 1263 132 c 0,49,50
 1413 132 1413 132 1482.5 250 c 128,-1,51
 1552 368 1552 368 1552 529 c 2,52,-1
 1552 550 l 2,53,54
 1552 711 1552 711 1482 828.5 c 128,-1,55
 1412 946 1412 946 1261 946 c 0,42,43
EndSplineSet
EndChar

StartChar: uni023A
Encoding: 570 570 239
Width: 1336
Flags: W
LayerCount: 2
Fore
SplineSet
-167 -125 m 1,0,-1
 116 229 l 1,1,-1
 584 1456 l 1,2,-1
 753 1456 l 1,3,-1
 865 1164 l 1,4,-1
 1183 1562 l 1,5,-1
 1342 1562 l 1,6,-1
 916 1030 l 1,7,-1
 1310 0 l 1,8,-1
 1112 0 l 1,9,-1
 973 381 l 1,10,-1
 397 381 l 1,11,-1
 337 307 l 1,12,-1
 226 0 l 1,13,-1
 92 0 l 1,14,-1
 -8 -125 l 1,15,-1
 -167 -125 l 1,0,-1
669 1218 m 1,16,-1
 470 670 l 1,17,-1
 743 1013 l 1,18,-1
 669 1218 l 1,16,-1
523 539 m 1,19,-1
 916 539 l 1,20,-1
 793 876 l 1,21,-1
 523 539 l 1,19,-1
EndSplineSet
EndChar

StartChar: uni023B
Encoding: 571 571 240
Width: 1333
Flags: W
LayerCount: 2
Fore
SplineSet
688 -20 m 0,0,1
 587 -20 587 -20 498 11 c 1,2,-1
 446 -125 l 1,3,-1
 314 -125 l 1,4,-1
 387 65 l 1,5,6
 262 147 262 147 191 299.5 c 128,-1,7
 120 452 120 452 120 655 c 2,8,-1
 120 800 l 2,9,10
 120 1106 120 1106 277.5 1291 c 128,-1,11
 435 1476 435 1476 705 1476 c 0,12,13
 823 1476 823 1476 918 1442 c 1,14,-1
 964 1562 l 1,15,-1
 1095 1562 l 1,16,-1
 1028 1387 l 1,17,18
 1121 1323 1121 1323 1174 1220.5 c 128,-1,19
 1227 1118 1227 1118 1240 989 c 1,20,-1
 1048 989 l 1,21,22
 1027 1138 1027 1138 962 1216 c 1,23,-1
 556 161 l 1,24,25
 616 137 616 137 688 137 c 0,26,27
 872 137 872 137 947.5 223 c 128,-1,28
 1023 309 1023 309 1048 463 c 1,29,-1
 1240 463 l 1,30,31
 1218 256 1218 256 1084 118 c 128,-1,32
 950 -20 950 -20 688 -20 c 0,0,1
312 655 m 2,33,34
 312 523 312 523 346 411.5 c 128,-1,35
 380 300 380 300 451 230 c 1,36,-1
 860 1291 l 1,37,38
 795 1318 795 1318 705 1318 c 0,39,40
 512 1318 512 1318 412 1176 c 128,-1,41
 312 1034 312 1034 312 802 c 2,42,-1
 312 655 l 2,33,34
EndSplineSet
EndChar

StartChar: uni023C
Encoding: 572 572 241
Width: 1072
Flags: W
LayerCount: 2
Fore
SplineSet
574 -20 m 0,0,1
 472 -20 472 -20 388 12 c 1,2,-1
 215 -416 l 1,3,-1
 83 -416 l 1,4,-1
 281 72 l 1,5,6
 186 146 186 146 139.5 264.5 c 128,-1,7
 93 383 93 383 93 520 c 2,8,-1
 93 562 l 2,9,10
 93 780 93 780 211.5 941 c 128,-1,11
 330 1102 330 1102 574 1102 c 0,12,13
 636 1102 636 1102 693 1088 c 1,14,-1
 842 1456 l 1,15,-1
 973 1456 l 1,16,-1
 806 1044 l 1,17,18
 995 937 995 937 1005 710 c 1,19,-1
 829 710 l 1,20,21
 821 821 821 821 743 889 c 1,22,-1
 447 158 l 1,23,24
 502 132 502 132 574 132 c 0,25,26
 673 132 673 132 747.5 191 c 128,-1,27
 822 250 822 250 829 342 c 1,28,-1
 1005 342 l 1,29,30
 998 197 998 197 872 88.5 c 128,-1,31
 746 -20 746 -20 574 -20 c 0,0,1
278 520 m 2,32,33
 278 444 278 444 294 370 c 128,-1,34
 310 296 310 296 349 240 c 1,35,-1
 634 944 l 1,36,37
 605 950 605 950 574 950 c 0,38,39
 460 950 460 950 395.5 892 c 128,-1,40
 331 834 331 834 304.5 745 c 128,-1,41
 278 656 278 656 278 562 c 2,42,-1
 278 520 l 2,32,33
EndSplineSet
EndChar

StartChar: uni023E
Encoding: 574 574 243
Width: 1222
Flags: W
LayerCount: 2
Fore
SplineSet
50 1298 m 1,0,-1
 50 1456 l 1,1,-1
 941 1456 l 1,2,-1
 995 1562 l 1,3,-1
 1133 1562 l 1,4,-1
 1079 1456 l 1,5,-1
 1175 1456 l 1,6,-1
 1175 1298 l 1,7,-1
 999 1298 l 1,8,-1
 707 722 l 1,9,-1
 707 0 l 1,10,-1
 517 0 l 1,11,-1
 517 348 l 1,12,-1
 277 -125 l 1,13,-1
 138 -125 l 1,14,-1
 517 621 l 1,15,-1
 517 1298 l 1,16,-1
 50 1298 l 1,0,-1
707 1298 m 1,17,-1
 707 995 l 1,18,-1
 861 1298 l 1,19,-1
 707 1298 l 1,17,-1
EndSplineSet
EndChar

StartChar: uni023F
Encoding: 575 575 244
Width: 1057
Flags: W
LayerCount: 2
Fore
SplineSet
772 287 m 0,0,1
 772 355 772 355 721.5 398.5 c 128,-1,2
 671 442 671 442 528 473 c 0,3,4
 346 513 346 513 240 581 c 128,-1,5
 134 649 134 649 134 786 c 0,6,7
 134 914 134 914 243 1008 c 128,-1,8
 352 1102 352 1102 534 1102 c 0,9,10
 728 1102 728 1102 837.5 1003 c 128,-1,11
 947 904 947 904 947 764 c 1,12,-1
 761 764 l 1,13,14
 761 831 761 831 702.5 890.5 c 128,-1,15
 644 950 644 950 534 950 c 0,16,17
 418 950 418 950 368.5 900 c 128,-1,18
 319 850 319 850 319 791 c 0,19,20
 319 707 319 707 395 676.5 c 128,-1,21
 471 646 471 646 580 621 c 0,22,23
 756 580 756 580 856.5 507 c 128,-1,24
 957 434 957 434 957 301 c 0,25,26
 957 158 957 158 843 69 c 128,-1,27
 729 -20 729 -20 540 -20 c 0,28,29
 467 -20 467 -20 402 -7 c 1,30,31
 479 -158 479 -158 525.5 -224 c 128,-1,32
 572 -290 572 -290 633 -290 c 0,33,34
 674 -290 674 -290 710 -269.5 c 128,-1,35
 746 -249 746 -249 770 -226 c 1,36,-1
 834 -336 l 1,37,38
 802 -370 802 -370 746 -403.5 c 128,-1,39
 690 -437 690 -437 630 -437 c 0,40,41
 536 -437 536 -437 467.5 -374.5 c 128,-1,42
 399 -312 399 -312 332 -194 c 2,43,-1
 90 240 l 1,44,-1
 220 315 l 1,45,46
 276 213 276 213 364.5 172 c 128,-1,47
 453 131 453 131 540 131 c 0,48,49
 653 131 653 131 712.5 175.5 c 128,-1,50
 772 220 772 220 772 287 c 0,0,1
EndSplineSet
EndChar

StartChar: uni0240
Encoding: 576 576 245
Width: 1018
Flags: W
LayerCount: 2
Fore
SplineSet
97 929 m 1,0,-1
 97 1082 l 1,1,-1
 918 1082 l 1,2,-1
 918 951 l 1,3,-1
 316 152 l 1,4,-1
 403 152 l 2,5,6
 530 152 530 152 605.5 85 c 128,-1,7
 681 18 681 18 729 -69 c 128,-1,8
 777 -156 777 -156 818.5 -223 c 128,-1,9
 860 -290 860 -290 920 -290 c 0,10,11
 963 -290 963 -290 996.5 -271 c 128,-1,12
 1030 -252 1030 -252 1058 -227 c 1,13,-1
 1122 -337 l 1,14,15
 1088 -371 1088 -371 1033.5 -404 c 128,-1,16
 979 -437 979 -437 911 -437 c 0,17,18
 823 -437 823 -437 768.5 -393 c 128,-1,19
 714 -349 714 -349 674.5 -284 c 128,-1,20
 635 -219 635 -219 594 -153.5 c 128,-1,21
 553 -88 553 -88 493.5 -44 c 128,-1,22
 434 0 434 0 338 0 c 2,23,-1
 89 0 l 1,24,-1
 89 136 l 1,25,-1
 685 929 l 1,26,-1
 97 929 l 1,0,-1
EndSplineSet
EndChar

StartChar: uni0241
Encoding: 577 577 246
Width: 1103
Flags: W
LayerCount: 2
Fore
SplineSet
410 0 m 1,0,-1
 410 449 l 1,1,-1
 499 449 l 2,2,3
 672 449 672 449 733.5 566.5 c 128,-1,4
 795 684 795 684 795 826 c 2,5,-1
 795 936 l 2,6,7
 795 1077 795 1077 732.5 1194.5 c 128,-1,8
 670 1312 670 1312 499 1312 c 0,9,10
 388 1312 388 1312 320 1246.5 c 128,-1,11
 252 1181 252 1181 244 1071 c 1,12,-1
 63 1071 l 1,13,14
 70 1248 70 1248 189.5 1362 c 128,-1,15
 309 1476 309 1476 499 1476 c 0,16,17
 743 1476 743 1476 864.5 1315 c 128,-1,18
 986 1154 986 1154 986 936 c 2,19,-1
 986 826 l 2,20,21
 986 633 986 633 890.5 481.5 c 128,-1,22
 795 330 795 330 602 295 c 1,23,-1
 602 0 l 1,24,-1
 410 0 l 1,0,-1
EndSplineSet
EndChar

